<svg width="30" height="31" viewBox="0 0 30 31" fill="none" xmlns="http://www.w3.org/2000/svg">
<path d="M9.75 2.68604H20.25C24.25 2.68604 27.5 5.93604 27.5 9.93604V20.436C27.5 22.3589 26.7362 24.2029 25.3765 25.5626C24.0169 26.9222 22.1728 27.686 20.25 27.686H9.75C5.75 27.686 2.5 24.436 2.5 20.436V9.93604C2.5 8.01322 3.26384 6.16915 4.62348 4.80951C5.98311 3.44987 7.82718 2.68604 9.75 2.68604ZM9.5 5.18604C8.30653 5.18604 7.16193 5.66014 6.31802 6.50405C5.47411 7.34797 5 8.49256 5 9.68604V20.686C5 23.1735 7.0125 25.186 9.5 25.186H20.5C21.6935 25.186 22.8381 24.7119 23.682 23.868C24.5259 23.0241 25 21.8795 25 20.686V9.68604C25 7.19853 22.9875 5.18604 20.5 5.18604H9.5ZM21.5625 7.06104C21.9769 7.06104 22.3743 7.22566 22.6674 7.51868C22.9604 7.81171 23.125 8.20913 23.125 8.62354C23.125 9.03794 22.9604 9.43536 22.6674 9.72839C22.3743 10.0214 21.9769 10.186 21.5625 10.186C21.1481 10.186 20.7507 10.0214 20.4576 9.72839C20.1646 9.43536 20 9.03794 20 8.62354C20 8.20913 20.1646 7.81171 20.4576 7.51868C20.7507 7.22566 21.1481 7.06104 21.5625 7.06104ZM15 8.93604C16.6576 8.93604 18.2473 9.59452 19.4194 10.7666C20.5915 11.9387 21.25 13.5284 21.25 15.186C21.25 16.8436 20.5915 18.4334 19.4194 19.6055C18.2473 20.7776 16.6576 21.436 15 21.436C13.3424 21.436 11.7527 20.7776 10.5806 19.6055C9.40848 18.4334 8.75 16.8436 8.75 15.186C8.75 13.5284 9.40848 11.9387 10.5806 10.7666C11.7527 9.59452 13.3424 8.93604 15 8.93604ZM15 11.436C14.0054 11.436 13.0516 11.8311 12.3483 12.5344C11.6451 13.2376 11.25 14.1915 11.25 15.186C11.25 16.1806 11.6451 17.1344 12.3483 17.8377C13.0516 18.5409 14.0054 18.936 15 18.936C15.9946 18.936 16.9484 18.5409 17.6517 17.8377C18.3549 17.1344 18.75 16.1806 18.75 15.186C18.75 14.1915 18.3549 13.2376 17.6517 12.5344C16.9484 11.8311 15.9946 11.436 15 11.436Z" fill="#F5D06F"/>
</svg>
