<svg width="30" height="31" viewBox="0 0 30 31" fill="none" xmlns="http://www.w3.org/2000/svg">
<path d="M23.75 3.93604C24.413 3.93604 25.0489 4.19943 25.5178 4.66827C25.9866 5.13711 26.25 5.77299 26.25 6.43604V23.936C26.25 24.5991 25.9866 25.235 25.5178 25.7038C25.0489 26.1726 24.413 26.436 23.75 26.436H6.25C5.58696 26.436 4.95107 26.1726 4.48223 25.7038C4.01339 25.235 3.75 24.5991 3.75 23.936V6.43604C3.75 5.77299 4.01339 5.13711 4.48223 4.66827C4.95107 4.19943 5.58696 3.93604 6.25 3.93604H23.75ZM23.125 23.311V16.686C23.125 15.6053 22.6957 14.5688 21.9315 13.8046C21.1672 13.0404 20.1308 12.611 19.05 12.611C17.9875 12.611 16.75 13.261 16.15 14.236V12.8485H12.6625V23.311H16.15V17.1485C16.15 16.186 16.925 15.3985 17.8875 15.3985C18.3516 15.3985 18.7967 15.5829 19.1249 15.9111C19.4531 16.2393 19.6375 16.6844 19.6375 17.1485V23.311H23.125ZM8.6 10.886C9.15695 10.886 9.6911 10.6648 10.0849 10.271C10.4788 9.87713 10.7 9.34299 10.7 8.78604C10.7 7.62354 9.7625 6.67354 8.6 6.67354C8.03973 6.67354 7.50241 6.8961 7.10624 7.29227C6.71007 7.68844 6.4875 8.22577 6.4875 8.78604C6.4875 9.94854 7.4375 10.886 8.6 10.886ZM10.3375 23.311V12.8485H6.875V23.311H10.3375Z" fill="#F5D06F"/>
</svg>
