<svg width="40" height="41" viewBox="0 0 40 41" fill="none" xmlns="http://www.w3.org/2000/svg">
<g clip-path="url(#clip0_6_83)">
<path d="M35.1183 26.7653H33.8791V1.9808C33.8791 1.65214 33.7485 1.33694 33.5161 1.10454C33.2837 0.872138 32.9685 0.741577 32.6398 0.741577H23.9653C23.6366 0.741577 23.3214 0.872138 23.089 1.10454C22.8566 1.33694 22.7261 1.65214 22.7261 1.9808V8.17692H15.2907C14.962 8.17692 14.6468 8.30748 14.4144 8.53988C14.182 8.77228 14.0515 9.08748 14.0515 9.41615V15.6123H7.85537C7.5267 15.6123 7.2115 15.7428 6.9791 15.9752C6.7467 16.2076 6.61614 16.5228 6.61614 16.8515V26.7653H5.37692C5.04826 26.7653 4.73306 26.8958 4.50066 27.1282C4.26826 27.3606 4.1377 27.6758 4.1377 28.0045C4.1377 28.3332 4.26826 28.6484 4.50066 28.8808C4.73306 29.1132 5.04826 29.2437 5.37692 29.2437H35.1183C35.447 29.2437 35.7622 29.1132 35.9946 28.8808C36.227 28.6484 36.3575 28.3332 36.3575 28.0045C36.3575 27.6758 36.227 27.3606 35.9946 27.1282C35.7622 26.8958 35.447 26.7653 35.1183 26.7653ZM25.2045 3.22003H31.4006V26.7653H25.2045V3.22003ZM16.5299 10.6554H22.7261V26.7653H16.5299V10.6554ZM9.09459 18.0907H14.0515V26.7653H9.09459V18.0907Z" fill="#F5D06F"/>
</g>
<defs>
<clipPath id="clip0_6_83">
<rect width="39.6552" height="39.6552" fill="white" transform="translate(0.172852 0.741455)"/>
</clipPath>
</defs>
</svg>
