<svg width="40" height="41" viewBox="0 0 40 41" fill="none" xmlns="http://www.w3.org/2000/svg">
<path d="M25.5583 19.7097L18.1229 14.7528C17.9362 14.6282 17.7193 14.5567 17.4951 14.5459C17.271 14.535 17.0481 14.5852 16.8502 14.6911C16.6524 14.797 16.487 14.9547 16.3718 15.1472C16.2566 15.3398 16.1958 15.56 16.1959 15.7844V25.6982C16.1958 25.9226 16.2566 26.1429 16.3718 26.3354C16.487 26.528 16.6524 26.6856 16.8502 26.7915C17.0481 26.8975 17.271 26.9477 17.4951 26.9368C17.7193 26.9259 17.9362 26.8544 18.1229 26.7299L25.5583 21.773C25.7282 21.6599 25.8676 21.5065 25.9641 21.3265C26.0605 21.1465 26.1109 20.9455 26.1109 20.7413C26.1109 20.5372 26.0605 20.3361 25.9641 20.1562C25.8676 19.9762 25.7282 19.8228 25.5583 19.7097ZM18.6744 23.3824V18.108L22.6368 20.7413L18.6744 23.3824ZM36.3844 11.6826C36.2385 11.1116 35.9588 10.5834 35.5686 10.1417C35.1783 9.69998 34.6886 9.35739 34.1399 9.1422C28.8298 7.09128 20.3783 7.10987 19.9136 7.10987C19.4489 7.10987 10.9974 7.09128 5.6873 9.1422C5.13857 9.35739 4.64888 9.69998 4.25862 10.1417C3.86836 10.5834 3.58871 11.1116 3.44275 11.6826C3.04155 13.2285 2.56445 16.054 2.56445 20.7413C2.56445 25.4287 3.04155 28.2541 3.44275 29.8001C3.58849 30.3714 3.86804 30.8999 4.25831 31.3419C4.64859 31.7839 5.1384 32.1267 5.6873 32.342C10.7743 34.3046 18.7363 34.3728 19.8114 34.3728H20.0158C21.0909 34.3728 29.0575 34.3046 34.1399 32.342C34.6888 32.1267 35.1786 31.7839 35.5689 31.3419C35.9591 30.8999 36.2387 30.3714 36.3844 29.8001C36.7856 28.251 37.2627 25.4287 37.2627 20.7413C37.2627 16.054 36.7856 13.2285 36.3844 11.6826ZM33.985 29.1866C33.9378 29.3767 33.8462 29.5529 33.7178 29.7007C33.5893 29.8485 33.4277 29.9638 33.2461 30.0371C28.3434 31.93 20.005 31.8959 19.9244 31.8959H19.9136C19.8299 31.8959 11.4977 31.9269 6.59193 30.0371C6.41034 29.9638 6.2487 29.8485 6.12026 29.7007C5.99183 29.5529 5.90025 29.3767 5.85304 29.1866C5.47663 27.7724 5.0429 25.1669 5.0429 20.7413C5.0429 16.3158 5.47663 13.7103 5.8422 12.3038C5.88853 12.1126 5.97971 11.9352 6.10819 11.7862C6.23668 11.6373 6.39878 11.521 6.58109 11.4472C11.3087 9.62085 19.2305 9.58832 19.8795 9.58832H19.9213C20.005 9.58832 28.345 9.56044 33.243 11.4472C33.4246 11.5204 33.5862 11.6357 33.7147 11.7835C33.8431 11.9314 33.9347 12.1075 33.9819 12.2976C34.3506 13.7103 34.7843 16.3158 34.7843 20.7413C34.7843 25.1669 34.3506 27.7724 33.985 29.1789V29.1866Z" fill="#F5D06F"/>
</svg>
