<svg width="41" height="41" viewBox="0 0 41 41" fill="none" xmlns="http://www.w3.org/2000/svg">
<path d="M38.7967 15.8626L30.1222 5.94876C30.0062 5.8163 29.8633 5.71006 29.703 5.63714C29.5428 5.56423 29.3688 5.5263 29.1928 5.52588H11.8436C11.6676 5.5263 11.4936 5.56423 11.3333 5.63714C11.1731 5.71006 11.0302 5.8163 10.9142 5.94876L2.23963 15.8626C2.03726 16.0936 1.92791 16.3916 1.93277 16.6987C1.93764 17.0058 2.05638 17.3001 2.26597 17.5247L19.6151 36.113C19.7311 36.2373 19.8713 36.3365 20.0272 36.4042C20.1831 36.472 20.3513 36.507 20.5213 36.507C20.6913 36.507 20.8594 36.472 21.0153 36.4042C21.1712 36.3365 21.3115 36.2373 21.4275 36.113L38.7766 17.5247C38.9853 17.2994 39.103 17.0046 39.1067 16.6975C39.1104 16.3904 39 16.0928 38.7967 15.8626ZM35.1364 15.4397H28.5731L22.9966 8.00433H28.6305L35.1364 15.4397ZM12.2433 17.9181L16.9105 29.587L6.02081 17.9181H12.2433ZM26.1226 17.9181L20.5182 31.9306L14.9138 17.9181H26.1226ZM15.5613 15.4397L20.5182 8.82996L25.4751 15.4397H15.5613ZM28.7931 17.9181H35.0156L24.1259 29.587L28.7931 17.9181ZM12.4059 8.00433H18.0397L12.4632 15.4397H5.89999L12.4059 8.00433Z" fill="#F5D06F"/>
</svg>
