<svg width="40" height="41" viewBox="0 0 40 41" fill="none" xmlns="http://www.w3.org/2000/svg">
<path d="M12.5 6.45679C11.2639 6.45679 10.0555 6.82335 9.02769 7.5101C7.99988 8.19686 7.1988 9.17298 6.72576 10.315C6.25271 11.4571 6.12894 12.7137 6.37009 13.9261C6.61125 15.1385 7.20651 16.2521 8.08059 17.1262C8.95466 18.0003 10.0683 18.5955 11.2807 18.8367C12.4931 19.0779 13.7497 18.9541 14.8918 18.481C16.0338 18.008 17.0099 17.2069 17.6967 16.1791C18.3834 15.1513 18.75 13.9429 18.75 12.7068C18.75 11.0492 18.0915 9.45947 16.9194 8.28737C15.7473 7.11527 14.1576 6.45679 12.5 6.45679ZM12.5 16.4568C11.7583 16.4568 11.0333 16.2369 10.4166 15.8248C9.79993 15.4127 9.31928 14.8271 9.03545 14.1419C8.75163 13.4566 8.67736 12.7026 8.82206 11.9752C8.96675 11.2478 9.32391 10.5796 9.84835 10.0551C10.3728 9.53069 11.041 9.17354 11.7684 9.02885C12.4958 8.88415 13.2498 8.95841 13.9351 9.24224C14.6203 9.52607 15.206 10.0067 15.618 10.6234C16.0301 11.2401 16.25 11.9651 16.25 12.7068C16.25 13.7014 15.8549 14.6552 15.1517 15.3584C14.4484 16.0617 13.4946 16.4568 12.5 16.4568ZM27.5 18.9568C28.7361 18.9568 29.9445 18.5902 30.9723 17.9035C32.0001 17.2167 32.8012 16.2406 33.2742 15.0986C33.7473 13.9565 33.8711 12.6999 33.6299 11.4875C33.3888 10.2751 32.7935 9.16145 31.9194 8.28737C31.0453 7.41329 29.9317 6.81804 28.7193 6.57688C27.5069 6.33572 26.2503 6.4595 25.1082 6.93254C23.9662 7.40559 22.9901 8.20667 22.3033 9.23448C21.6166 10.2623 21.25 11.4707 21.25 12.7068C21.25 14.3644 21.9085 15.9541 23.0806 17.1262C24.2527 18.2983 25.8424 18.9568 27.5 18.9568ZM27.5 8.95679C28.2417 8.95679 28.9667 9.17672 29.5834 9.58878C30.2001 10.0008 30.6807 10.5865 30.9645 11.2717C31.2484 11.9569 31.3226 12.7109 31.1779 13.4384C31.0333 14.1658 30.6761 14.834 30.1517 15.3584C29.6272 15.8829 28.959 16.24 28.2316 16.3847C27.5042 16.5294 26.7502 16.4552 26.0649 16.1713C25.3797 15.8875 24.794 15.4069 24.382 14.7902C23.9699 14.1735 23.75 13.4485 23.75 12.7068C23.75 11.7122 24.1451 10.7584 24.8484 10.0551C25.5516 9.35188 26.5054 8.95679 27.5 8.95679ZM12.5 21.4568C11.2639 21.4568 10.0555 21.8233 9.02769 22.5101C7.99988 23.1969 7.1988 24.173 6.72576 25.315C6.25271 26.4571 6.12894 27.7137 6.37009 28.9261C6.61125 30.1385 7.20651 31.2521 8.08059 32.1262C8.95466 33.0003 10.0683 33.5955 11.2807 33.8367C12.4931 34.0779 13.7497 33.9541 14.8918 33.481C16.0338 33.008 17.0099 32.2069 17.6967 31.1791C18.3834 30.1513 18.75 28.9429 18.75 27.7068C18.75 26.0492 18.0915 24.4595 16.9194 23.2874C15.7473 22.1153 14.1576 21.4568 12.5 21.4568ZM12.5 31.4568C11.7583 31.4568 11.0333 31.2369 10.4166 30.8248C9.79993 30.4127 9.31928 29.8271 9.03545 29.1418C8.75163 28.4566 8.67736 27.7026 8.82206 26.9752C8.96675 26.2478 9.32391 25.5796 9.84835 25.0551C10.3728 24.5307 11.041 24.1735 11.7684 24.0288C12.4958 23.8841 13.2498 23.9584 13.9351 24.2422C14.6203 24.5261 15.206 25.0067 15.618 25.6234C16.0301 26.2401 16.25 26.9651 16.25 27.7068C16.25 28.7013 15.8549 29.6552 15.1517 30.3584C14.4484 31.0617 13.4946 31.4568 12.5 31.4568ZM33.75 27.7068C33.75 28.0383 33.6183 28.3563 33.3839 28.5907C33.1495 28.8251 32.8315 28.9568 32.5 28.9568H28.75V32.7068C28.75 33.0383 28.6183 33.3563 28.3839 33.5907C28.1495 33.8251 27.8315 33.9568 27.5 33.9568C27.1685 33.9568 26.8505 33.8251 26.6161 33.5907C26.3817 33.3563 26.25 33.0383 26.25 32.7068V28.9568H22.5C22.1685 28.9568 21.8505 28.8251 21.6161 28.5907C21.3817 28.3563 21.25 28.0383 21.25 27.7068C21.25 27.3753 21.3817 27.0573 21.6161 26.8229C21.8505 26.5885 22.1685 26.4568 22.5 26.4568H26.25V22.7068C26.25 22.3753 26.3817 22.0573 26.6161 21.8229C26.8505 21.5885 27.1685 21.4568 27.5 21.4568C27.8315 21.4568 28.1495 21.5885 28.3839 21.8229C28.6183 22.0573 28.75 22.3753 28.75 22.7068V26.4568H32.5C32.8315 26.4568 33.1495 26.5885 33.3839 26.8229C33.6183 27.0573 33.75 27.3753 33.75 27.7068Z" fill="#F5D06F"/>
</svg>
