<svg width="41" height="41" viewBox="0 0 41 41" fill="none" xmlns="http://www.w3.org/2000/svg">
<path d="M13.1713 27.8363C13.3027 27.935 13.4522 28.0069 13.6114 28.0478C13.7706 28.0886 13.9362 28.0977 14.0989 28.0745C14.2616 28.0513 14.4181 27.9962 14.5595 27.9124C14.7009 27.8287 14.8243 27.7178 14.9229 27.5863C15.6797 26.5772 16.661 25.7582 17.7892 25.1941C18.9174 24.63 20.1615 24.3363 21.4229 24.3363C22.6842 24.3363 23.9283 24.63 25.0565 25.1941C26.1847 25.7582 27.166 26.5772 27.9229 27.5863C28.0213 27.7176 28.1447 27.8283 28.286 27.9119C28.4272 27.9955 28.5836 28.0505 28.7461 28.0737C28.9086 28.097 29.0741 28.0879 29.2331 28.0472C29.3921 28.0065 29.5415 27.9348 29.6729 27.8363C29.8042 27.7378 29.9148 27.6144 29.9984 27.4732C30.0821 27.3319 30.1371 27.1756 30.1603 27.0131C30.1835 26.8506 30.1745 26.6851 30.1337 26.5261C30.093 26.3671 30.0213 26.2176 29.9229 26.0863C28.816 24.6023 27.34 23.4339 25.6416 22.6972C26.5724 21.8475 27.2245 20.7361 27.5123 19.5091C27.8002 18.2821 27.7104 16.9967 27.2546 15.8216C26.7989 14.6466 25.9986 13.6368 24.9587 12.9247C23.9188 12.2126 22.6879 11.8316 21.4275 11.8316C20.1672 11.8316 18.9363 12.2126 17.8964 12.9247C16.8565 13.6368 16.0562 14.6466 15.6004 15.8216C15.1447 16.9967 15.0549 18.2821 15.3427 19.5091C15.6306 20.7361 16.2827 21.8475 17.2135 22.6972C15.5117 23.4325 14.0323 24.601 12.9229 26.0863C12.7238 26.3513 12.6381 26.6846 12.6847 27.0127C12.7313 27.3409 12.9063 27.6372 13.1713 27.8363ZM17.6729 18.0863C17.6729 17.3446 17.8928 16.6196 18.3048 16.0029C18.7169 15.3862 19.3026 14.9056 19.9878 14.6218C20.673 14.3379 21.427 14.2637 22.1544 14.4084C22.8819 14.5531 23.5501 14.9102 24.0745 15.4347C24.5989 15.9591 24.9561 16.6273 25.1008 17.3547C25.2455 18.0821 25.1712 18.8361 24.8874 19.5214C24.6036 20.2066 24.1229 20.7923 23.5062 21.2043C22.8896 21.6164 22.1645 21.8363 21.4229 21.8363C20.4283 21.8363 19.4745 21.4412 18.7712 20.738C18.0679 20.0347 17.6729 19.0809 17.6729 18.0863ZM32.6729 4.3363H10.1729C9.50981 4.3363 8.87393 4.5997 8.40508 5.06854C7.93624 5.53738 7.67285 6.17326 7.67285 6.8363V10.5863H5.17285C4.84133 10.5863 4.52339 10.718 4.28897 10.9524C4.05455 11.1868 3.92285 11.5048 3.92285 11.8363C3.92285 12.1678 4.05455 12.4858 4.28897 12.7202C4.52339 12.9546 4.84133 13.0863 5.17285 13.0863H7.67285V19.3363H5.17285C4.84133 19.3363 4.52339 19.468 4.28897 19.7024C4.05455 19.9368 3.92285 20.2548 3.92285 20.5863C3.92285 20.9178 4.05455 21.2358 4.28897 21.4702C4.52339 21.7046 4.84133 21.8363 5.17285 21.8363H7.67285V28.0863H5.17285C4.84133 28.0863 4.52339 28.218 4.28897 28.4524C4.05455 28.6868 3.92285 29.0048 3.92285 29.3363C3.92285 29.6678 4.05455 29.9858 4.28897 30.2202C4.52339 30.4546 4.84133 30.5863 5.17285 30.5863H7.67285V34.3363C7.67285 34.9993 7.93624 35.6352 8.40508 36.1041C8.87393 36.5729 9.50981 36.8363 10.1729 36.8363H32.6729C33.3359 36.8363 33.9718 36.5729 34.4406 36.1041C34.9095 35.6352 35.1729 34.9993 35.1729 34.3363V6.8363C35.1729 6.17326 34.9095 5.53738 34.4406 5.06854C33.9718 4.5997 33.3359 4.3363 32.6729 4.3363ZM32.6729 34.3363H10.1729V6.8363H32.6729V34.3363Z" fill="#F5D06F"/>
</svg>
