<svg width="40" height="41" viewBox="0 0 40 41" fill="none" xmlns="http://www.w3.org/2000/svg">
<path d="M33.3844 13.6591L24.6344 4.90908C24.5182 4.79304 24.3803 4.70102 24.2286 4.63829C24.0768 4.57555 23.9142 4.54333 23.75 4.54346H8.75C8.08696 4.54346 7.45107 4.80685 6.98223 5.27569C6.51339 5.74453 6.25 6.38042 6.25 7.04346V18.2935C6.25 18.625 6.3817 18.9429 6.61612 19.1773C6.85054 19.4118 7.16848 19.5435 7.5 19.5435C7.83152 19.5435 8.14946 19.4118 8.38388 19.1773C8.6183 18.9429 8.75 18.625 8.75 18.2935V7.04346H22.5V14.5435C22.5 14.875 22.6317 15.1929 22.8661 15.4273C23.1005 15.6618 23.4185 15.7935 23.75 15.7935H31.25V34.5435H30C29.6685 34.5435 29.3505 34.6752 29.1161 34.9096C28.8817 35.144 28.75 35.4619 28.75 35.7935C28.75 36.125 28.8817 36.4429 29.1161 36.6773C29.3505 36.9118 29.6685 37.0435 30 37.0435H31.25C31.913 37.0435 32.5489 36.7801 33.0178 36.3112C33.4866 35.8424 33.75 35.2065 33.75 34.5435V14.5435C33.7501 14.3793 33.7179 14.2166 33.6552 14.0649C33.5924 13.9132 33.5004 13.7753 33.3844 13.6591ZM25 8.81065L29.4828 13.2935H25V8.81065ZM24.3563 23.4497C24.161 23.3416 23.9403 23.2878 23.7172 23.2939C23.4941 23.2999 23.2767 23.3656 23.0875 23.4841L19.9703 25.431C19.8834 24.8376 19.586 24.2953 19.1326 23.9029C18.6791 23.5105 18.0997 23.2942 17.5 23.2935H7.5C6.83696 23.2935 6.20107 23.5569 5.73223 24.0257C5.26339 24.4945 5 25.1304 5 25.7935V33.2935C5 33.9565 5.26339 34.5924 5.73223 35.0612C6.20107 35.5301 6.83696 35.7935 7.5 35.7935H17.5C18.0997 35.7927 18.6791 35.5764 19.1326 35.184C19.586 34.7916 19.8834 34.2493 19.9703 33.656L23.0875 35.6028C23.2767 35.7211 23.494 35.7865 23.717 35.7924C23.94 35.7983 24.1605 35.7444 24.3557 35.6363C24.5508 35.5282 24.7135 35.3699 24.8268 35.1777C24.9401 34.9855 24.9999 34.7665 25 34.5435V24.5435C25.0001 24.3203 24.9405 24.1011 24.8273 23.9088C24.7141 23.7165 24.5514 23.5579 24.3563 23.4497ZM17.5 33.2935H7.5V25.7935H17.5V33.2935ZM22.5 32.2888L20 30.7263V28.3606L22.5 26.7981V32.2888Z" fill="#F5D06F"/>
</svg>
