<svg width="41" height="41" viewBox="0 0 41 41" fill="none" xmlns="http://www.w3.org/2000/svg">
<path d="M33.9227 17.0433H16.1242L32.9852 12.5917C33.1448 12.5497 33.2944 12.4764 33.4256 12.3762C33.5567 12.276 33.6667 12.1508 33.7492 12.0079C33.8318 11.8649 33.8851 11.7071 33.9063 11.5434C33.9275 11.3797 33.9161 11.2135 33.8727 11.0542L32.5977 6.36673C32.4222 5.73608 32.0053 5.19995 31.4374 4.87445C30.8694 4.54896 30.1961 4.46029 29.5633 4.62766L5.76797 10.9089C5.45113 10.9912 5.15389 11.1358 4.89365 11.3343C4.6334 11.5329 4.41538 11.7813 4.25234 12.0652C4.08839 12.3455 3.98247 12.656 3.94087 12.9781C3.89926 13.3002 3.92282 13.6273 4.01015 13.9402L5.17265 18.2245C5.17265 18.2464 5.17265 18.2699 5.17265 18.2933V32.0433C5.17265 32.7063 5.43604 33.3422 5.90489 33.8111C6.37373 34.2799 7.00961 34.5433 7.67265 34.5433H32.6727C33.3357 34.5433 33.9716 34.2799 34.4404 33.8111C34.9093 33.3422 35.1727 32.7063 35.1727 32.0433V18.2933C35.1727 17.9618 35.041 17.6438 34.8065 17.4094C34.5721 17.175 34.2542 17.0433 33.9227 17.0433ZM30.1977 7.04329L31.1352 10.4917L27.6008 11.4292L23.207 8.89173L30.1977 7.04329ZM19.7773 9.79329L24.1711 12.3308L18.3992 13.8542L14.0055 11.3199L19.7773 9.79329ZM7.37109 16.7652L6.43359 13.3152L10.5742 12.2214L14.968 14.762L7.37109 16.7652ZM32.6727 32.0433H7.67265V19.5433H32.6727V32.0433Z" fill="#F5D06F"/>
</svg>
