<svg width="41" height="41" viewBox="0 0 41 41" fill="none" xmlns="http://www.w3.org/2000/svg">
<path d="M33.3281 7.04346H8.32812C7.33356 7.04346 6.37974 7.43855 5.67647 8.14181C4.97321 8.84507 4.57813 9.7989 4.57812 10.7935V28.2935C4.57813 29.288 4.97321 30.2418 5.67647 30.9451C6.37974 31.6484 7.33356 32.0435 8.32812 32.0435H33.3281C34.3227 32.0435 35.2765 31.6484 35.9798 30.9451C36.683 30.2418 37.0781 29.288 37.0781 28.2935V10.7935C37.0781 9.7989 36.683 8.84507 35.9798 8.14181C35.2765 7.43855 34.3227 7.04346 33.3281 7.04346ZM34.5781 28.2935C34.5781 28.625 34.4464 28.9429 34.212 29.1773C33.9776 29.4118 33.6596 29.5435 33.3281 29.5435H8.32812C7.9966 29.5435 7.67866 29.4118 7.44424 29.1773C7.20982 28.9429 7.07812 28.625 7.07812 28.2935V10.7935C7.07812 10.4619 7.20982 10.144 7.44424 9.90957C7.67866 9.67515 7.9966 9.54346 8.32812 9.54346H33.3281C33.6596 9.54346 33.9776 9.67515 34.212 9.90957C34.4464 10.144 34.5781 10.4619 34.5781 10.7935V28.2935ZM27.0781 35.7935C27.0781 36.125 26.9464 36.4429 26.712 36.6773C26.4776 36.9118 26.1596 37.0435 25.8281 37.0435H15.8281C15.4966 37.0435 15.1787 36.9118 14.9442 36.6773C14.7098 36.4429 14.5781 36.125 14.5781 35.7935C14.5781 35.4619 14.7098 35.144 14.9442 34.9096C15.1787 34.6752 15.4966 34.5435 15.8281 34.5435H25.8281C26.1596 34.5435 26.4776 34.6752 26.712 34.9096C26.9464 35.144 27.0781 35.4619 27.0781 35.7935ZM25.4625 17.4091C25.5786 17.5252 25.6708 17.6631 25.7336 17.8148C25.7965 17.9666 25.8288 18.1292 25.8288 18.2935C25.8288 18.4577 25.7965 18.6203 25.7336 18.7721C25.6708 18.9238 25.5786 19.0617 25.4625 19.1778C25.3464 19.294 25.2085 19.3861 25.0567 19.4489C24.905 19.5118 24.7424 19.5442 24.5781 19.5442C24.4139 19.5442 24.2512 19.5118 24.0995 19.4489C23.9478 19.3861 23.8099 19.294 23.6937 19.1778L22.0781 17.5606V24.5435C22.0781 24.875 21.9464 25.1929 21.712 25.4273C21.4776 25.6618 21.1596 25.7935 20.8281 25.7935C20.4966 25.7935 20.1787 25.6618 19.9442 25.4273C19.7098 25.1929 19.5781 24.875 19.5781 24.5435V17.5606L17.9625 19.1778C17.728 19.4124 17.4098 19.5442 17.0781 19.5442C16.7464 19.5442 16.4283 19.4124 16.1937 19.1778C15.9592 18.9433 15.8274 18.6252 15.8274 18.2935C15.8274 17.9618 15.9592 17.6436 16.1937 17.4091L19.9437 13.6591C20.0598 13.5429 20.1977 13.4507 20.3494 13.3878C20.5012 13.3249 20.6639 13.2925 20.8281 13.2925C20.9924 13.2925 21.1551 13.3249 21.3068 13.3878C21.4585 13.4507 21.5964 13.5429 21.7125 13.6591L25.4625 17.4091Z" fill="#F5D06F"/>
</svg>
