<svg width="40" height="41" viewBox="0 0 40 41" fill="none" xmlns="http://www.w3.org/2000/svg">
<path d="M15 16.3363C15 16.0048 15.1317 15.6868 15.3661 15.4524C15.6005 15.218 15.9185 15.0863 16.25 15.0863H26.25C26.5815 15.0863 26.8995 15.218 27.1339 15.4524C27.3683 15.6868 27.5 16.0048 27.5 16.3363C27.5 16.6678 27.3683 16.9858 27.1339 17.2202C26.8995 17.4546 26.5815 17.5863 26.25 17.5863H16.25C15.9185 17.5863 15.6005 17.4546 15.3661 17.2202C15.1317 16.9858 15 16.6678 15 16.3363ZM16.25 22.5863H26.25C26.5815 22.5863 26.8995 22.4546 27.1339 22.2202C27.3683 21.9858 27.5 21.6678 27.5 21.3363C27.5 21.0048 27.3683 20.6868 27.1339 20.4524C26.8995 20.218 26.5815 20.0863 26.25 20.0863H16.25C15.9185 20.0863 15.6005 20.218 15.3661 20.4524C15.1317 20.6868 15 21.0048 15 21.3363C15 21.6678 15.1317 21.9858 15.3661 22.2202C15.6005 22.4546 15.9185 22.5863 16.25 22.5863ZM36.25 30.0863C36.25 31.4124 35.7232 32.6842 34.7855 33.6218C33.8479 34.5595 32.5761 35.0863 31.25 35.0863H13.75C12.4239 35.0863 11.1521 34.5595 10.2145 33.6218C9.27678 32.6842 8.75 31.4124 8.75 30.0863V10.0863C8.75 9.42326 8.48661 8.78738 8.01777 8.31854C7.54893 7.8497 6.91304 7.5863 6.25 7.5863C5.58696 7.5863 4.95107 7.8497 4.48223 8.31854C4.01339 8.78738 3.75 9.42326 3.75 10.0863C3.75 10.9832 4.50469 11.5894 4.5125 11.5957C4.71938 11.7549 4.87122 11.9749 4.94673 12.2247C5.02223 12.4746 5.01761 12.7419 4.93352 12.989C4.84942 13.2361 4.69006 13.4507 4.4778 13.6027C4.26555 13.7546 4.01104 13.8363 3.75 13.8363C3.47969 13.8368 3.21672 13.7484 3.00156 13.5847C2.82031 13.4519 1.25 12.2129 1.25 10.0863C1.25 8.76022 1.77678 7.48845 2.71447 6.55077C3.65215 5.61309 4.92392 5.0863 6.25 5.0863H27.5C28.8261 5.0863 30.0979 5.61309 31.0355 6.55077C31.9732 7.48845 32.5 8.76022 32.5 10.0863V26.3363H33.75C34.0205 26.3363 34.2836 26.424 34.5 26.5863C34.6875 26.7207 36.25 27.9597 36.25 30.0863ZM15.0406 27.1926C15.126 26.9405 15.289 26.7218 15.5063 26.568C15.7235 26.4142 15.9838 26.3331 16.25 26.3363H30V10.0863C30 9.42326 29.7366 8.78738 29.2678 8.31854C28.7989 7.8497 28.163 7.5863 27.5 7.5863H10.5766C11.0187 8.34522 11.2511 9.20801 11.25 10.0863V30.0863C11.25 30.7493 11.5134 31.3852 11.9822 31.8541C12.4511 32.3229 13.087 32.5863 13.75 32.5863C14.413 32.5863 15.0489 32.3229 15.5178 31.8541C15.9866 31.3852 16.25 30.7493 16.25 30.0863C16.25 29.1894 15.4953 28.5832 15.4875 28.5769C15.2745 28.4245 15.1161 28.2077 15.0356 27.9585C14.9551 27.7092 14.9569 27.4407 15.0406 27.1926ZM33.75 30.0863C33.7344 29.6232 33.5556 29.1805 33.2453 28.8363H18.5578C18.6834 29.2411 18.7472 29.6625 18.7469 30.0863C18.7481 30.9642 18.5168 31.8268 18.0766 32.5863H31.25C31.913 32.5863 32.5489 32.3229 33.0178 31.8541C33.4866 31.3852 33.75 30.7493 33.75 30.0863Z" fill="#F5D06F"/>
</svg>
