<svg width="41" height="41" viewBox="0 0 41 41" fill="none" xmlns="http://www.w3.org/2000/svg">
<path d="M34.5781 6.3363H7.07812C6.41508 6.3363 5.7792 6.5997 5.31036 7.06854C4.84152 7.53738 4.57813 8.17326 4.57812 8.8363V31.3363C4.57813 31.9993 4.84152 32.6352 5.31036 33.1041C5.7792 33.5729 6.41508 33.8363 7.07812 33.8363H9.17031C9.40689 33.8364 9.63862 33.7693 9.8386 33.6429C10.0386 33.5165 10.1986 33.336 10.3 33.1222C10.9078 31.8389 11.8675 30.7545 13.0674 29.9952C14.2673 29.2358 15.6581 28.8327 17.0781 28.8327C18.4981 28.8327 19.8889 29.2358 21.0888 29.9952C22.2887 30.7545 23.2484 31.8389 23.8563 33.1222C23.9577 33.336 24.1177 33.5165 24.3177 33.6429C24.5176 33.7693 24.7494 33.8364 24.9859 33.8363H34.5781C35.2412 33.8363 35.8771 33.5729 36.3459 33.1041C36.8147 32.6352 37.0781 31.9993 37.0781 31.3363V8.8363C37.0781 8.17326 36.8147 7.53738 36.3459 7.06854C35.8771 6.5997 35.2412 6.3363 34.5781 6.3363ZM13.3281 22.5863C13.3281 21.8446 13.5481 21.1196 13.9601 20.5029C14.3722 19.8862 14.9578 19.4056 15.6431 19.1218C16.3283 18.8379 17.0823 18.7637 17.8097 18.9084C18.5371 19.0531 19.2053 19.4102 19.7298 19.9347C20.2542 20.4591 20.6114 21.1273 20.7561 21.8547C20.9008 22.5821 20.8265 23.3361 20.5427 24.0214C20.2588 24.7066 19.7782 25.2923 19.1615 25.7043C18.5448 26.1164 17.8198 26.3363 17.0781 26.3363C16.0836 26.3363 15.1297 25.9412 14.4265 25.238C13.7232 24.5347 13.3281 23.5809 13.3281 22.5863ZM34.5781 31.3363H25.7391C24.6952 29.5417 23.1217 28.1139 21.2344 27.2488C22.1806 26.4063 22.8484 25.2961 23.1493 24.0653C23.4502 22.8346 23.37 21.5415 22.9192 20.3574C22.4684 19.1733 21.6684 18.1542 20.6253 17.4352C19.5822 16.7161 18.3451 16.331 17.0781 16.331C15.8112 16.331 14.5741 16.7161 13.531 17.4352C12.4878 18.1542 11.6878 19.1733 11.2371 20.3574C10.7863 21.5415 10.706 22.8346 11.0069 24.0653C11.3078 25.2961 11.9756 26.4063 12.9219 27.2488C11.0345 28.1139 9.46104 29.5417 8.41719 31.3363H7.07812V8.8363H34.5781V31.3363ZM9.57812 15.0863V12.5863C9.57812 12.2548 9.70982 11.9368 9.94424 11.7024C10.1787 11.468 10.4966 11.3363 10.8281 11.3363H30.8281C31.1596 11.3363 31.4776 11.468 31.712 11.7024C31.9464 11.9368 32.0781 12.2548 32.0781 12.5863V27.5863C32.0781 27.9178 31.9464 28.2358 31.712 28.4702C31.4776 28.7046 31.1596 28.8363 30.8281 28.8363H28.3281C27.9966 28.8363 27.6787 28.7046 27.4442 28.4702C27.2098 28.2358 27.0781 27.9178 27.0781 27.5863C27.0781 27.2548 27.2098 26.9368 27.4442 26.7024C27.6787 26.468 27.9966 26.3363 28.3281 26.3363H29.5781V13.8363H12.0781V15.0863C12.0781 15.4178 11.9464 15.7358 11.712 15.9702C11.4776 16.2046 11.1596 16.3363 10.8281 16.3363C10.4966 16.3363 10.1787 16.2046 9.94424 15.9702C9.70982 15.7358 9.57812 15.4178 9.57812 15.0863Z" fill="#F5D06F"/>
</svg>
