<svg width="20" height="20" viewBox="0 0 20 20" fill="none" xmlns="http://www.w3.org/2000/svg">
<path d="M17.4652 10.0629C17.4652 10.2243 17.4011 10.3792 17.287 10.4933C17.1728 10.6074 17.018 10.6716 16.8566 10.6716H4.93564L9.3749 15.1101C9.43145 15.1666 9.47631 15.2337 9.50691 15.3076C9.53751 15.3815 9.55327 15.4607 9.55327 15.5407C9.55327 15.6206 9.53751 15.6998 9.50691 15.7737C9.47631 15.8476 9.43145 15.9147 9.3749 15.9713C9.31835 16.0278 9.25122 16.0727 9.17733 16.1033C9.10345 16.1339 9.02426 16.1496 8.94429 16.1496C8.86432 16.1496 8.78513 16.1339 8.71124 16.1033C8.63736 16.0727 8.57022 16.0278 8.51368 15.9713L3.03593 10.4935C2.97934 10.437 2.93445 10.3699 2.90382 10.296C2.87319 10.2221 2.85742 10.1429 2.85742 10.0629C2.85742 9.98294 2.87319 9.90374 2.90382 9.82985C2.93445 9.75596 2.97934 9.68884 3.03593 9.63231L8.51368 4.15456C8.62788 4.04036 8.78278 3.9762 8.94429 3.9762C9.1058 3.9762 9.26069 4.04036 9.3749 4.15456C9.48911 4.26877 9.55327 4.42366 9.55327 4.58517C9.55327 4.74668 9.48911 4.90158 9.3749 5.01579L4.93564 9.45428H16.8566C17.018 9.45428 17.1728 9.51841 17.287 9.63255C17.4011 9.74669 17.4652 9.9015 17.4652 10.0629Z" fill="white"/>
</svg>
