<svg width="20" height="20" viewBox="0 0 20 20" fill="none" xmlns="http://www.w3.org/2000/svg">
<path d="M16.9645 10.4935L11.4867 15.9713C11.3725 16.0855 11.2176 16.1496 11.0561 16.1496C10.8946 16.1496 10.7397 16.0855 10.6255 15.9713C10.5113 15.8571 10.4471 15.7022 10.4471 15.5407C10.4471 15.3792 10.5113 15.2243 10.6255 15.1101L15.0647 10.6716H3.14379C2.98237 10.6716 2.82756 10.6074 2.71342 10.4933C2.59928 10.3792 2.53516 10.2243 2.53516 10.0629C2.53516 9.9015 2.59928 9.74669 2.71342 9.63255C2.82756 9.51841 2.98237 9.45428 3.14379 9.45428H15.0647L10.6255 5.01579C10.5113 4.90158 10.4471 4.74668 10.4471 4.58517C10.4471 4.42366 10.5113 4.26877 10.6255 4.15456C10.7397 4.04036 10.8946 3.9762 11.0561 3.9762C11.2176 3.9762 11.3725 4.04036 11.4867 4.15456L16.9645 9.63231C17.021 9.68884 17.0659 9.75596 17.0966 9.82985C17.1272 9.90374 17.143 9.98294 17.143 10.0629C17.143 10.1429 17.1272 10.2221 17.0966 10.296C17.0659 10.3699 17.021 10.437 16.9645 10.4935Z" fill="white"/>
</svg>
