<svg width="62" height="62" viewBox="0 0 62 62" fill="none" xmlns="http://www.w3.org/2000/svg">
<rect x="0.660156" y="0.638916" width="61" height="61" rx="30.5" fill="#F5D06F"/>
<path d="M37.5538 31.8132L28.0225 41.3444C27.934 41.433 27.8288 41.5032 27.7131 41.5511C27.5974 41.5991 27.4734 41.6237 27.3482 41.6237C27.223 41.6237 27.0989 41.5991 26.9832 41.5511C26.8675 41.5032 26.7624 41.433 26.6738 41.3444C26.5853 41.2559 26.515 41.1507 26.4671 41.035C26.4192 40.9193 26.3945 40.7953 26.3945 40.6701C26.3945 40.5448 26.4192 40.4208 26.4671 40.3051C26.515 40.1894 26.5853 40.0843 26.6738 39.9957L35.532 31.1388L26.6738 22.2819C26.495 22.1031 26.3945 21.8605 26.3945 21.6076C26.3945 21.3547 26.495 21.1121 26.6738 20.9332C26.8527 20.7544 27.0953 20.6539 27.3482 20.6539C27.6011 20.6539 27.8437 20.7544 28.0225 20.9332L37.5538 30.4645C37.6424 30.553 37.7127 30.6581 37.7607 30.7738C37.8086 30.8896 37.8333 31.0136 37.8333 31.1388C37.8333 31.2641 37.8086 31.3881 37.7607 31.5038C37.7127 31.6195 37.6424 31.7247 37.5538 31.8132Z" fill="#040404"/>
</svg>
