<svg width="62" height="62" viewBox="0 0 62 62" fill="none" xmlns="http://www.w3.org/2000/svg">
<rect x="0.5" y="0.638916" width="61" height="61" rx="30.5" fill="#F5D06F"/>
<g clip-path="url(#clip0_184_1284)">
<path d="M35.4856 39.9957C35.5742 40.0843 35.6444 40.1894 35.6924 40.3051C35.7403 40.4208 35.765 40.5448 35.765 40.6701C35.765 40.7953 35.7403 40.9193 35.6924 41.035C35.6444 41.1507 35.5742 41.2559 35.4856 41.3444C35.3971 41.433 35.2919 41.5032 35.1762 41.5511C35.0605 41.5991 34.9365 41.6237 34.8113 41.6237C34.6861 41.6237 34.5621 41.5991 34.4463 41.5511C34.3306 41.5032 34.2255 41.433 34.137 41.3444L24.6057 31.8132C24.5171 31.7247 24.4468 31.6195 24.3988 31.5038C24.3509 31.3881 24.3262 31.2641 24.3262 31.1388C24.3262 31.0136 24.3509 30.8896 24.3988 30.7738C24.4468 30.6581 24.5171 30.553 24.6057 30.4645L34.137 20.9332C34.3158 20.7544 34.5584 20.6539 34.8113 20.6539C35.0642 20.6539 35.3068 20.7544 35.4856 20.9332C35.6645 21.1121 35.765 21.3547 35.765 21.6076C35.765 21.8605 35.6645 22.1031 35.4856 22.2819L26.6275 31.1388L35.4856 39.9957Z" fill="#040404"/>
</g>
<defs>
<clipPath id="clip0_184_1284">
<rect width="30.5" height="30.5" fill="white" transform="translate(15.75 15.8889)"/>
</clipPath>
</defs>
</svg>
