<svg width="16" height="17" viewBox="0 0 16 17" fill="none" xmlns="http://www.w3.org/2000/svg">
<path d="M7.90572 0.524902C6.34081 0.524902 4.81105 0.988951 3.50988 1.85837C2.2087 2.72778 1.19456 3.96351 0.5957 5.4093C-0.00316352 6.85508 -0.159854 8.44598 0.145444 9.98082C0.450742 11.5157 1.20432 12.9255 2.31087 14.0321C3.41743 15.1386 4.82727 15.8922 6.3621 16.1975C7.89694 16.5028 9.48784 16.3461 10.9336 15.7472C12.3794 15.1484 13.6151 14.1342 14.4846 12.833C15.354 11.5319 15.818 10.0021 15.818 8.43721C15.8158 6.33941 14.9815 4.32817 13.4981 2.84481C12.0147 1.36144 10.0035 0.527118 7.90572 0.524902ZM7.90572 15.1322C6.58156 15.1322 5.28715 14.7396 4.18616 14.0039C3.08517 13.2683 2.22705 12.2226 1.72032 10.9993C1.21359 9.77593 1.081 8.42978 1.33933 7.13107C1.59766 5.83236 2.2353 4.63942 3.17162 3.70311C4.10793 2.76679 5.30087 2.12915 6.59958 1.87082C7.89829 1.61249 9.24444 1.74508 10.4678 2.25181C11.6911 2.75854 12.7368 3.61666 13.4724 4.71765C14.2081 5.81864 14.6007 7.11306 14.6007 8.43721C14.5987 10.2122 13.8927 11.914 12.6376 13.1691C11.3825 14.4242 9.68073 15.1302 7.90572 15.1322ZM11.3795 8.00659C11.4361 8.06312 11.481 8.13025 11.5116 8.20413C11.5423 8.27802 11.558 8.35722 11.558 8.43721C11.558 8.51719 11.5423 8.59639 11.5116 8.67028C11.481 8.74417 11.4361 8.81129 11.3795 8.86782L8.94497 11.3024C8.83076 11.4166 8.67587 11.4807 8.51435 11.4807C8.35284 11.4807 8.19795 11.4166 8.08374 11.3024C7.96954 11.1882 7.90538 11.0333 7.90538 10.8718C7.90538 10.7103 7.96954 10.5554 8.08374 10.4411L9.47981 9.04585H4.86252C4.7011 9.04585 4.54629 8.98172 4.43215 8.86758C4.31801 8.75344 4.25388 8.59863 4.25388 8.43721C4.25388 8.27579 4.31801 8.12098 4.43215 8.00683C4.54629 7.89269 4.7011 7.82857 4.86252 7.82857H9.47981L8.08374 6.43326C7.96954 6.31906 7.90538 6.16416 7.90538 6.00265C7.90538 5.84114 7.96954 5.68624 8.08374 5.57204C8.19795 5.45783 8.35284 5.39367 8.51435 5.39367C8.67587 5.39367 8.83076 5.45783 8.94497 5.57204L11.3795 8.00659Z" fill="black"/>
</svg>
