<svg width="41" height="41" viewBox="0 0 41 41" fill="none" xmlns="http://www.w3.org/2000/svg">
<g clip-path="url(#clip0_536_1455)">
<path d="M14.5781 23.2935V20.7935C14.5781 20.4619 14.7098 20.144 14.9442 19.9096C15.1787 19.6752 15.4966 19.5435 15.8281 19.5435C16.1596 19.5435 16.4776 19.6752 16.712 19.9096C16.9464 20.144 17.0781 20.4619 17.0781 20.7935V23.2935C17.0781 23.625 16.9464 23.9429 16.712 24.1773C16.4776 24.4118 16.1596 24.5435 15.8281 24.5435C15.4966 24.5435 15.1787 24.4118 14.9442 24.1773C14.7098 23.9429 14.5781 23.625 14.5781 23.2935ZM20.8281 24.5435C21.1596 24.5435 21.4776 24.4118 21.712 24.1773C21.9464 23.9429 22.0781 23.625 22.0781 23.2935V19.5435C22.0781 19.2119 21.9464 18.894 21.712 18.6596C21.4776 18.4252 21.1596 18.2935 20.8281 18.2935C20.4966 18.2935 20.1787 18.4252 19.9442 18.6596C19.7098 18.894 19.5781 19.2119 19.5781 19.5435V23.2935C19.5781 23.625 19.7098 23.9429 19.9442 24.1773C20.1787 24.4118 20.4966 24.5435 20.8281 24.5435ZM25.8281 24.5435C26.1596 24.5435 26.4776 24.4118 26.712 24.1773C26.9464 23.9429 27.0781 23.625 27.0781 23.2935V18.2935C27.0781 17.9619 26.9464 17.644 26.712 17.4096C26.4776 17.1752 26.1596 17.0435 25.8281 17.0435C25.4966 17.0435 25.1787 17.1752 24.9442 17.4096C24.7098 17.644 24.5781 17.9619 24.5781 18.2935V23.2935C24.5781 23.625 24.7098 23.9429 24.9442 24.1773C25.1787 24.4118 25.4966 24.5435 25.8281 24.5435ZM34.5781 13.2935V28.2935H35.8281C36.1596 28.2935 36.4776 28.4251 36.712 28.6596C36.9464 28.894 37.0781 29.2119 37.0781 29.5435C37.0781 29.875 36.9464 30.1929 36.712 30.4273C36.4776 30.6618 36.1596 30.7935 35.8281 30.7935H22.0781V33.5091C22.9121 33.8039 23.6151 34.3842 24.0627 35.1472C24.5103 35.9102 24.6737 36.8069 24.5241 37.6787C24.3745 38.5506 23.9215 39.3415 23.2452 39.9117C22.5689 40.4819 21.7127 40.7946 20.8281 40.7946C19.9435 40.7946 19.0874 40.4819 18.4111 39.9117C17.7347 39.3415 17.2817 38.5506 17.1321 37.6787C16.9825 36.8069 17.146 35.9102 17.5936 35.1472C18.0412 34.3842 18.7441 33.8039 19.5781 33.5091V30.7935H5.82812C5.4966 30.7935 5.17866 30.6618 4.94424 30.4273C4.70982 30.1929 4.57813 29.875 4.57812 29.5435C4.57812 29.2119 4.70982 28.894 4.94424 28.6596C5.17866 28.4251 5.4966 28.2935 5.82812 28.2935H7.07812V13.2935C6.41508 13.2935 5.7792 13.0301 5.31036 12.5612C4.84152 12.0924 4.57813 11.4565 4.57812 10.7935V8.29346C4.57812 7.63042 4.84152 6.99453 5.31036 6.52569C5.7792 6.05685 6.41508 5.79346 7.07812 5.79346H34.5781C35.2412 5.79346 35.8771 6.05685 36.3459 6.52569C36.8147 6.99453 37.0781 7.63042 37.0781 8.29346V10.7935C37.0781 11.4565 36.8147 12.0924 36.3459 12.5612C35.8771 13.0301 35.2412 13.2935 34.5781 13.2935ZM22.0781 37.0435C22.0781 36.7962 22.0048 36.5546 21.8675 36.349C21.7301 36.1434 21.5349 35.9832 21.3065 35.8886C21.0781 35.794 20.8267 35.7692 20.5843 35.8175C20.3418 35.8657 20.1191 35.9848 19.9442 36.1596C19.7694 36.3344 19.6504 36.5571 19.6021 36.7996C19.5539 37.0421 19.5787 37.2934 19.6733 37.5218C19.7679 37.7502 19.9281 37.9454 20.1337 38.0828C20.3392 38.2201 20.5809 38.2935 20.8281 38.2935C21.1596 38.2935 21.4776 38.1618 21.712 37.9273C21.9464 37.6929 22.0781 37.375 22.0781 37.0435ZM7.07812 10.7935H34.5781V8.29346H7.07812V10.7935ZM32.0781 13.2935H9.57812V28.2935H32.0781V13.2935Z" fill="#F5D06F"/>
</g>
<defs>
<clipPath id="clip0_536_1455">
<rect width="40" height="40" fill="white" transform="translate(0.828125 0.793457)"/>
</clipPath>
</defs>
</svg>
