<svg width="41" height="41" viewBox="0 0 41 41" fill="none" xmlns="http://www.w3.org/2000/svg">
<path d="M36.4229 32.7417C36.4229 33.0732 36.2912 33.3912 36.0567 33.6256C35.8223 33.86 35.5044 33.9917 35.1729 33.9917H5.17285C4.84133 33.9917 4.52339 33.86 4.28897 33.6256C4.05455 33.3912 3.92285 33.0732 3.92285 32.7417V7.7417C3.92285 7.41018 4.05455 7.09224 4.28897 6.85782C4.52339 6.6234 4.84133 6.4917 5.17285 6.4917C5.50437 6.4917 5.82231 6.6234 6.05673 6.85782C6.29116 7.09224 6.42285 7.41018 6.42285 7.7417V24.7245L14.2885 16.8573C14.4046 16.7411 14.5424 16.6489 14.6942 16.586C14.8459 16.5231 15.0086 16.4907 15.1729 16.4907C15.3371 16.4907 15.4998 16.5231 15.6515 16.586C15.8033 16.6489 15.9411 16.7411 16.0572 16.8573L20.1729 20.9745L28.4057 12.7417H25.1729C24.8413 12.7417 24.5234 12.61 24.289 12.3756C24.0545 12.1412 23.9229 11.8232 23.9229 11.4917C23.9229 11.1602 24.0545 10.8422 24.289 10.6078C24.5234 10.3734 24.8413 10.2417 25.1729 10.2417H31.4229C31.7544 10.2417 32.0723 10.3734 32.3067 10.6078C32.5412 10.8422 32.6729 11.1602 32.6729 11.4917V17.7417C32.6729 18.0732 32.5412 18.3912 32.3067 18.6256C32.0723 18.86 31.7544 18.9917 31.4229 18.9917C31.0913 18.9917 30.7734 18.86 30.539 18.6256C30.3045 18.3912 30.1729 18.0732 30.1729 17.7417V14.5089L21.0572 23.6261C20.9411 23.7423 20.8033 23.8345 20.6515 23.8974C20.4998 23.9603 20.3371 23.9927 20.1729 23.9927C20.0086 23.9927 19.8459 23.9603 19.6942 23.8974C19.5424 23.8345 19.4046 23.7423 19.2885 23.6261L15.1729 19.5089L6.42285 28.2589V31.4917H35.1729C35.5044 31.4917 35.8223 31.6234 36.0567 31.8578C36.2912 32.0922 36.4229 32.4102 36.4229 32.7417Z" fill="#F5D06F"/>
</svg>
