<svg width="40" height="41" viewBox="0 0 40 41" fill="none" xmlns="http://www.w3.org/2000/svg">
<path d="M37.4999 14.5795C37.4372 16.7555 36.5424 18.8247 34.9999 20.3608L29.5702 25.7936C28.7794 26.5887 27.8388 27.2191 26.8027 27.6482C25.7666 28.0773 24.6557 28.2967 23.5343 28.2936H23.5265C22.3859 28.2928 21.2571 28.0634 20.2066 27.619C19.1562 27.1746 18.2055 26.5242 17.4106 25.7062C16.6158 24.8882 15.993 23.9192 15.5789 22.8564C15.1648 21.7937 14.968 20.6587 14.9999 19.5186C15.0092 19.187 15.1499 18.8728 15.3909 18.645C15.6319 18.4172 15.9535 18.2944 16.2851 18.3037C16.6166 18.3131 16.9308 18.4537 17.1587 18.6947C17.3865 18.9357 17.5092 19.2574 17.4999 19.5889C17.4772 20.395 17.6162 21.1975 17.9089 21.949C18.2015 22.7005 18.6418 23.3857 19.2038 23.9641C19.7658 24.5425 20.438 25.0025 21.1807 25.3167C21.9234 25.6309 22.7216 25.7931 23.528 25.7936C24.3208 25.7956 25.1061 25.6405 25.8385 25.3371C26.571 25.0338 27.236 24.5883 27.7952 24.0264L33.2249 18.5967C34.3452 17.4623 34.9711 15.9308 34.9661 14.3366C34.9612 12.7423 34.3256 11.2147 33.1983 10.0874C32.071 8.96006 30.5434 8.32452 28.9491 8.31953C27.3548 8.31454 25.8233 8.94051 24.689 10.0608L22.9702 11.7795C22.7339 12.004 22.4192 12.1274 22.0933 12.1232C21.7673 12.119 21.4559 11.9877 21.2254 11.7572C20.9949 11.5267 20.8635 11.2152 20.8594 10.8893C20.8552 10.5633 20.9785 10.2486 21.203 10.0123L22.9218 8.29357C23.7148 7.50034 24.6562 6.87109 25.6924 6.44178C26.7286 6.01247 27.8392 5.7915 28.9609 5.7915C30.0825 5.7915 31.1931 6.01247 32.2293 6.44178C33.2655 6.87109 34.2069 7.50034 34.9999 8.29357C35.8212 9.11694 36.4664 10.0988 36.8962 11.1795C37.326 12.2601 37.5314 13.417 37.4999 14.5795ZM17.0312 29.8029L15.3124 31.5217C14.7518 32.086 14.0847 32.5333 13.3497 32.8375C12.6147 33.1416 11.8266 33.2967 11.0312 33.2936C9.83789 33.2926 8.67167 32.938 7.67986 32.2745C6.68805 31.611 5.91516 30.6684 5.45884 29.5658C5.00253 28.4632 4.88326 27.2501 5.11612 26.0798C5.34897 24.9095 5.9235 23.8344 6.7671 22.9904L12.1874 17.5608C13.0411 16.7025 14.1332 16.1208 15.3218 15.8912C16.5103 15.6616 17.7405 15.7947 18.8525 16.2731C19.9644 16.7516 20.9068 17.5534 21.5573 18.5744C22.2077 19.5953 22.5362 20.7883 22.4999 21.9983C22.4906 22.3298 22.6133 22.6514 22.8412 22.8924C23.069 23.1335 23.3832 23.2741 23.7148 23.2834C24.0463 23.2927 24.3679 23.17 24.6089 22.9422C24.85 22.7143 24.9906 22.4001 24.9999 22.0686C25.0299 20.9078 24.8238 19.7531 24.3941 18.6744C23.9643 17.5958 23.3199 16.6157 22.4999 15.7936C20.8986 14.193 18.7273 13.2938 16.4632 13.2938C14.1991 13.2938 12.0278 14.193 10.4265 15.7936L4.99992 21.2233C3.80653 22.4162 2.99353 23.9361 2.66368 25.5909C2.33383 27.2457 2.50192 28.9611 3.14671 30.5204C3.79151 32.0798 4.88406 33.4129 6.28631 34.3515C7.68855 35.2901 9.33755 35.7919 11.0249 35.7936C12.1466 35.7968 13.2578 35.5775 14.2941 35.1484C15.3304 34.7193 16.2714 34.0888 17.0624 33.2936L18.7812 31.5748C18.9835 31.3365 19.0891 31.0311 19.0774 30.7188C19.0656 30.4064 18.9373 30.1098 18.7176 29.8875C18.498 29.6651 18.203 29.533 17.8908 29.5174C17.5786 29.5018 17.2719 29.6036 17.0312 29.8029Z" fill="#F5D06F"/>
</svg>
