<svg width="40" height="41" viewBox="0 0 40 41" fill="none" xmlns="http://www.w3.org/2000/svg">
<path d="M35.8847 34.2019L28.0613 26.38C30.3288 23.6577 31.4596 20.166 31.2182 16.6312C30.9769 13.0964 29.3821 9.79076 26.7656 7.40188C24.1491 5.01299 20.7123 3.72482 17.1702 3.80532C13.6281 3.88582 10.2534 5.3288 7.74814 7.83408C5.24286 10.3394 3.79988 13.7141 3.71938 17.2561C3.63888 20.7982 4.92706 24.235 7.31594 26.8515C9.70482 29.468 13.0105 31.0628 16.5453 31.3042C20.08 31.5455 23.5718 30.4148 26.2941 28.1472L34.116 35.9707C34.2321 36.0868 34.37 36.1789 34.5217 36.2418C34.6735 36.3046 34.8361 36.337 35.0004 36.337C35.1646 36.337 35.3272 36.3046 35.479 36.2418C35.6307 36.1789 35.7686 36.0868 35.8847 35.9707C36.0009 35.8545 36.093 35.7167 36.1559 35.5649C36.2187 35.4132 36.2511 35.2505 36.2511 35.0863C36.2511 34.9221 36.2187 34.7594 36.1559 34.6077C36.093 34.4559 36.0009 34.3181 35.8847 34.2019ZM6.25036 17.5863C6.25036 15.3613 6.91016 13.1862 8.14632 11.3361C9.38249 9.48608 11.1395 8.04414 13.1952 7.19265C15.2508 6.34116 17.5128 6.11838 19.6951 6.55246C21.8774 6.98654 23.882 8.058 25.4553 9.63134C27.0287 11.2047 28.1001 13.2092 28.5342 15.3915C28.9683 17.5738 28.7455 19.8358 27.894 21.8915C27.0425 23.9472 25.6006 25.7042 23.7505 26.9403C21.9005 28.1765 19.7254 28.8363 17.5004 28.8363C14.5177 28.833 11.6581 27.6467 9.54906 25.5376C7.43999 23.4285 6.25367 20.569 6.25036 17.5863Z" fill="#F5D06F"/>
</svg>
