<svg width="41" height="41" viewBox="0 0 41 41" fill="none" xmlns="http://www.w3.org/2000/svg">
<path d="M9.89062 8.08643C8.81318 8.08643 7.77987 8.51444 7.018 9.2763C6.25614 10.0382 5.82812 11.0715 5.82812 12.1489V24.0239C5.82812 24.5574 5.9332 25.0857 6.13736 25.5786C6.34152 26.0715 6.64077 26.5193 7.018 26.8965C7.39524 27.2738 7.84309 27.573 8.33597 27.7772C8.82886 27.9813 9.35713 28.0864 9.89062 28.0864H18.9531C18.9531 27.2277 19.0494 26.3902 19.2319 25.5864H9.89062C9.02812 25.5864 8.32812 24.8864 8.32812 24.0239V12.1489C8.32812 11.2864 9.02812 10.5864 9.89062 10.5864H31.7656C32.6281 10.5864 33.3281 11.2864 33.3281 12.1489V17.2764C34.2014 17.5291 35.0409 17.8867 35.8281 18.3414V12.1489C35.8281 11.6154 35.723 11.0872 35.5189 10.5943C35.3147 10.1014 35.0155 9.65354 34.6382 9.2763C34.261 8.89907 33.8132 8.59983 33.3203 8.39567C32.8274 8.19151 32.2991 8.08643 31.7656 8.08643H9.89062ZM4.57812 30.5864H19.2319C19.4319 31.4627 19.7319 32.3014 20.1219 33.0864H4.57812C4.2466 33.0864 3.92866 32.9547 3.69424 32.7203C3.45982 32.4859 3.32813 32.1679 3.32812 31.8364C3.32813 31.5049 3.45982 31.187 3.69424 30.9525C3.92866 30.7181 4.2466 30.5864 4.57812 30.5864ZM24.3819 23.1327C24.4583 23.3825 24.4824 23.6455 24.4526 23.9051C24.4229 24.1647 24.3399 24.4153 24.2088 24.6414C24.0778 24.8675 23.9015 25.0641 23.6911 25.2189C23.4806 25.3738 23.2404 25.4836 22.9856 25.5414L21.0656 25.9789C20.7632 27.2891 20.7461 28.6491 21.0156 29.9664L23.1381 30.4952C23.3858 30.5565 23.6186 30.6672 23.8226 30.8205C24.0266 30.9738 24.1977 31.1666 24.3255 31.3874C24.4534 31.6083 24.5355 31.8526 24.5668 32.1058C24.5982 32.3591 24.5782 32.6161 24.5081 32.8614L23.8881 35.0152C24.8781 35.9187 26.0503 36.5994 27.3256 37.0114L28.9006 35.3864C29.0788 35.2033 29.2919 35.0577 29.5274 34.9583C29.7628 34.8589 30.0157 34.8077 30.2713 34.8077C30.5268 34.8077 30.7797 34.8589 31.0151 34.9583C31.2506 35.0577 31.4637 35.2033 31.6419 35.3864L33.1869 36.9764C34.4606 36.5482 35.6274 35.8512 36.6081 34.9327L36.0244 33.0414C35.9477 32.7915 35.9235 32.5284 35.9532 32.2687C35.9828 32.0089 36.0658 31.7581 36.1969 31.5319C36.3279 31.3057 36.5042 31.109 36.7148 30.954C36.9254 30.7991 37.1657 30.6893 37.4206 30.6314L39.3406 30.1939C39.6431 28.8837 39.6601 27.5238 39.3906 26.2064L37.2681 25.6777C37.0206 25.6163 36.7879 25.5057 36.584 25.3525C36.3801 25.1993 36.2091 25.0066 36.0813 24.7859C35.9534 24.5652 35.8713 24.321 35.8399 24.0679C35.8084 23.8148 35.8282 23.558 35.8981 23.3127L36.5181 21.1577C35.5282 20.2542 34.356 19.5735 33.0806 19.1614L31.5056 20.7864C31.3274 20.9696 31.1143 21.1151 30.8789 21.2145C30.6435 21.3139 30.3905 21.3651 30.135 21.3651C29.8795 21.3651 29.6265 21.3139 29.3911 21.2145C29.1557 21.1151 28.9426 20.9696 28.7644 20.7864L27.2194 19.1964C25.9457 19.6246 24.7789 20.3216 23.7981 21.2402L24.3819 23.1327ZM32.7031 28.0864C32.7031 28.7495 32.4397 29.3854 31.9709 29.8542C31.5021 30.323 30.8662 30.5864 30.2031 30.5864C29.5401 30.5864 28.9042 30.323 28.4354 29.8542C27.9665 29.3854 27.7031 28.7495 27.7031 28.0864C27.7031 27.4234 27.9665 26.7875 28.4354 26.3187C28.9042 25.8498 29.5401 25.5864 30.2031 25.5864C30.8662 25.5864 31.5021 25.8498 31.9709 26.3187C32.4397 26.7875 32.7031 27.4234 32.7031 28.0864Z" fill="#F5D06F"/>
</svg>
