<svg width="41" height="41" viewBox="0 0 41 41" fill="none" xmlns="http://www.w3.org/2000/svg">
<path d="M25.8666 17.2528L18.3666 12.2528C18.1783 12.1272 17.9594 12.0551 17.7333 12.0441C17.5072 12.0332 17.2824 12.0838 17.0829 12.1906C16.8833 12.2975 16.7165 12.4565 16.6003 12.6507C16.484 12.845 16.4227 13.0671 16.4229 13.2935V23.2935C16.4227 23.5198 16.484 23.742 16.6003 23.9362C16.7165 24.1304 16.8833 24.2894 17.0829 24.3963C17.2824 24.5031 17.5072 24.5538 17.7333 24.5428C17.9594 24.5319 18.1783 24.4597 18.3666 24.3341L25.8666 19.3341C26.0381 19.22 26.1787 19.0653 26.2759 18.8837C26.3732 18.7022 26.4241 18.4994 26.4241 18.2935C26.4241 18.0875 26.3732 17.8847 26.2759 17.7032C26.1787 17.5216 26.0381 17.3669 25.8666 17.2528ZM18.9229 20.9575V15.6372L22.9197 18.2935L18.9229 20.9575ZM33.9229 7.04346H6.42285C5.75981 7.04346 5.12393 7.30685 4.65508 7.77569C4.18624 8.24453 3.92285 8.88042 3.92285 9.54346V27.0435C3.92285 27.7065 4.18624 28.3424 4.65508 28.8112C5.12393 29.2801 5.75981 29.5435 6.42285 29.5435H33.9229C34.5859 29.5435 35.2218 29.2801 35.6906 28.8112C36.1595 28.3424 36.4229 27.7065 36.4229 27.0435V9.54346C36.4229 8.88042 36.1595 8.24453 35.6906 7.77569C35.2218 7.30685 34.5859 7.04346 33.9229 7.04346ZM33.9229 27.0435H6.42285V9.54346H33.9229V27.0435ZM36.4229 33.2935C36.4229 33.625 36.2912 33.9429 36.0567 34.1773C35.8223 34.4118 35.5044 34.5435 35.1729 34.5435H5.17285C4.84133 34.5435 4.52339 34.4118 4.28897 34.1773C4.05455 33.9429 3.92285 33.625 3.92285 33.2935C3.92285 32.9619 4.05455 32.644 4.28897 32.4096C4.52339 32.1752 4.84133 32.0435 5.17285 32.0435H35.1729C35.5044 32.0435 35.8223 32.1752 36.0567 32.4096C36.2912 32.644 36.4229 32.9619 36.4229 33.2935Z" fill="#F5D06F"/>
</svg>
