<svg width="40" height="41" viewBox="0 0 40 41" fill="none" xmlns="http://www.w3.org/2000/svg">
<path d="M33.75 11.2849H28.2687C28.3297 11.2333 28.3922 11.1833 28.4516 11.1286C28.9261 10.707 29.3086 10.1921 29.575 9.61592C29.8414 9.03976 29.9861 8.41483 30 7.78021C30.0205 7.08595 29.8989 6.39482 29.6427 5.74925C29.3865 5.10368 29.001 4.5173 28.5099 4.02609C28.0189 3.53489 27.4326 3.14923 26.7871 2.8928C26.1416 2.63637 25.4505 2.51458 24.7563 2.5349C24.1214 2.54857 23.4961 2.69315 22.9197 2.95959C22.3433 3.22604 21.828 3.6086 21.4062 4.08333C20.8226 4.75973 20.3482 5.52309 20 6.34583C19.6518 5.52309 19.1774 4.75973 18.5938 4.08333C18.172 3.6086 17.6567 3.22604 17.0803 2.95959C16.5039 2.69315 15.8786 2.54857 15.2437 2.5349C14.5495 2.51458 13.8584 2.63637 13.2129 2.8928C12.5674 3.14923 11.9811 3.53489 11.4901 4.02609C10.999 4.5173 10.6135 5.10368 10.3573 5.74925C10.1011 6.39482 9.97948 7.08595 10 7.78021C10.0139 8.41483 10.1586 9.03976 10.425 9.61592C10.6914 10.1921 11.0739 10.707 11.5484 11.1286C11.6078 11.1802 11.6703 11.2302 11.7313 11.2849H6.25C5.58696 11.2849 4.95107 11.5483 4.48223 12.0171C4.01339 12.486 3.75 13.1219 3.75 13.7849V18.7849C3.75 19.4479 4.01339 20.0838 4.48223 20.5527C4.95107 21.0215 5.58696 21.2849 6.25 21.2849V31.2849C6.25 31.9479 6.51339 32.5838 6.98223 33.0527C7.45107 33.5215 8.08696 33.7849 8.75 33.7849H31.25C31.913 33.7849 32.5489 33.5215 33.0178 33.0527C33.4866 32.5838 33.75 31.9479 33.75 31.2849V21.2849C34.413 21.2849 35.0489 21.0215 35.5178 20.5527C35.9866 20.0838 36.25 19.4479 36.25 18.7849V13.7849C36.25 13.1219 35.9866 12.486 35.5178 12.0171C35.0489 11.5483 34.413 11.2849 33.75 11.2849ZM23.2812 5.73958C23.4792 5.52102 23.7201 5.34574 23.989 5.22474C24.2579 5.10374 24.5489 5.03964 24.8438 5.03646H24.9203C25.2659 5.03862 25.6076 5.10973 25.9253 5.24563C26.243 5.38153 26.5305 5.57948 26.7707 5.82789C27.011 6.07629 27.1992 6.37015 27.3245 6.69225C27.4497 7.01434 27.5094 7.35819 27.5 7.70365C27.4968 7.99849 27.4327 8.28949 27.3117 8.55837C27.1907 8.82726 27.0154 9.06823 26.7969 9.26615C25.3141 10.5786 22.8531 11.0411 21.3281 11.2036C21.5156 9.54896 22.0312 7.14427 23.2812 5.73958ZM13.2672 5.79583C13.7515 5.3116 14.4073 5.03813 15.0922 5.0349H15.1688C15.4636 5.03808 15.7546 5.10218 16.0235 5.22318C16.2924 5.34418 16.5333 5.51946 16.7313 5.73802C18.0422 7.21927 18.5047 9.67552 18.6672 11.1943C17.1484 11.038 14.6922 10.5693 13.2109 9.25833C12.9924 9.06041 12.8171 8.81945 12.6961 8.55056C12.5751 8.28167 12.511 7.99067 12.5078 7.69583C12.4981 7.34464 12.5599 6.99513 12.6893 6.66853C12.8188 6.34192 13.0133 6.04502 13.2609 5.79583H13.2672ZM6.25 13.7849H18.75V18.7849H6.25V13.7849ZM8.75 21.2849H18.75V31.2849H8.75V21.2849ZM31.25 31.2849H21.25V21.2849H31.25V31.2849ZM33.75 18.7849H21.25V13.7849H33.75V18.7849Z" fill="#F5D06F"/>
</svg>
