<svg width="40" height="41" viewBox="0 0 40 41" fill="none" xmlns="http://www.w3.org/2000/svg">
<path d="M17.5641 16.5193C17.5121 16.3636 17.4914 16.1992 17.503 16.0354C17.5147 15.8716 17.5584 15.7118 17.6319 15.565C17.7053 15.4181 17.8069 15.2872 17.9309 15.1796C18.0549 15.0721 18.1989 14.99 18.3547 14.9381L20.2297 14.3131C20.4176 14.2504 20.6177 14.2334 20.8135 14.2632C21.0093 14.2931 21.1952 14.3691 21.3559 14.4849C21.5166 14.6007 21.6475 14.7531 21.7377 14.9294C21.828 15.1057 21.875 15.3009 21.875 15.499V21.749C21.875 22.0805 21.7433 22.3985 21.5089 22.6329C21.2745 22.8673 20.9565 22.999 20.625 22.999C20.2935 22.999 19.9755 22.8673 19.7411 22.6329C19.5067 22.3985 19.375 22.0805 19.375 21.749V17.2334L19.1453 17.31C18.9896 17.3619 18.8251 17.3826 18.6614 17.371C18.4976 17.3594 18.3378 17.3156 18.1909 17.2422C18.0441 17.1688 17.9132 17.0671 17.8056 16.9431C17.698 16.8191 17.616 16.6751 17.5641 16.5193ZM38.75 32.999C38.75 33.3305 38.6183 33.6485 38.3839 33.8829C38.1495 34.1173 37.8315 34.249 37.5 34.249H2.5C2.16848 34.249 1.85054 34.1173 1.61612 33.8829C1.3817 33.6485 1.25 33.3305 1.25 32.999C1.25 32.6675 1.3817 32.3496 1.61612 32.1151C1.85054 31.8807 2.16848 31.749 2.5 31.749H3.75V16.749C3.75 16.086 4.01339 15.4501 4.48223 14.9813C4.95107 14.5124 5.58696 14.249 6.25 14.249H12.5V9.24902C12.5 8.58598 12.7634 7.9501 13.2322 7.48126C13.7011 7.01242 14.337 6.74902 15 6.74902H25C25.663 6.74902 26.2989 7.01242 26.7678 7.48126C27.2366 7.9501 27.5 8.58598 27.5 9.24902V20.499H33.75C34.413 20.499 35.0489 20.7624 35.5178 21.2313C35.9866 21.7001 36.25 22.336 36.25 22.999V31.749H37.5C37.8315 31.749 38.1495 31.8807 38.3839 32.1151C38.6183 32.3496 38.75 32.6675 38.75 32.999ZM27.5 22.999V31.749H33.75V22.999H27.5ZM15 31.749H25V9.24902H15V31.749ZM6.25 31.749H12.5V16.749H6.25V31.749Z" fill="#F5D06F"/>
</svg>
