<svg width="40" height="41" viewBox="0 0 40 41" fill="none" xmlns="http://www.w3.org/2000/svg">
<path d="M25.6938 17.1488L18.1938 12.1488C18.0055 12.0232 17.7866 11.9511 17.5605 11.9401C17.3344 11.9292 17.1096 11.9798 16.91 12.0866C16.7105 12.1935 16.5437 12.3525 16.4274 12.5467C16.3112 12.7409 16.2499 12.9631 16.25 13.1895V23.1895C16.2499 23.4158 16.3112 23.638 16.4274 23.8322C16.5437 24.0264 16.7105 24.1854 16.91 24.2923C17.1096 24.3991 17.3344 24.4498 17.5605 24.4388C17.7866 24.4278 18.0055 24.3557 18.1938 24.2301L25.6938 19.2301C25.8652 19.116 26.0058 18.9613 26.1031 18.7797C26.2003 18.5982 26.2512 18.3954 26.2512 18.1895C26.2512 17.9835 26.2003 17.7807 26.1031 17.5992C26.0058 17.4176 25.8652 17.2629 25.6938 17.1488ZM18.75 20.8535V15.5332L22.7469 18.1895L18.75 20.8535ZM33.75 6.93945H6.25C5.58696 6.93945 4.95107 7.20285 4.48223 7.67169C4.01339 8.14053 3.75 8.77641 3.75 9.43945V26.9395C3.75 27.6025 4.01339 28.2384 4.48223 28.7072C4.95107 29.1761 5.58696 29.4395 6.25 29.4395H33.75C34.413 29.4395 35.0489 29.1761 35.5178 28.7072C35.9866 28.2384 36.25 27.6025 36.25 26.9395V9.43945C36.25 8.77641 35.9866 8.14053 35.5178 7.67169C35.0489 7.20285 34.413 6.93945 33.75 6.93945ZM33.75 26.9395H6.25V9.43945H33.75V26.9395ZM36.25 33.1895C36.25 33.521 36.1183 33.8389 35.8839 34.0733C35.6495 34.3078 35.3315 34.4395 35 34.4395H5C4.66848 34.4395 4.35054 34.3078 4.11612 34.0733C3.8817 33.8389 3.75 33.521 3.75 33.1895C3.75 32.8579 3.8817 32.54 4.11612 32.3056C4.35054 32.0711 4.66848 31.9395 5 31.9395H35C35.3315 31.9395 35.6495 32.0711 35.8839 32.3056C36.1183 32.54 36.25 32.8579 36.25 33.1895Z" fill="#F5D06F"/>
</svg>
