<svg width="30" height="30" viewBox="0 0 30 30" fill="none" xmlns="http://www.w3.org/2000/svg">
<path d="M3.75 15C3.75 14.7513 3.84877 14.5129 4.02458 14.3371C4.2004 14.1612 4.43886 14.0625 4.6875 14.0625L23.0496 14.0625L16.2117 7.22575C16.1246 7.13864 16.0555 7.03524 16.0084 6.92143C15.9612 6.80762 15.937 6.68565 15.937 6.56246C15.937 6.43928 15.9612 6.31731 16.0084 6.2035C16.0555 6.08969 16.1246 5.98629 16.2117 5.89918C16.2988 5.81208 16.4022 5.74299 16.516 5.69585C16.6298 5.64871 16.7518 5.62444 16.875 5.62444C16.9982 5.62444 17.1202 5.64871 17.234 5.69585C17.3478 5.74299 17.4512 5.81208 17.5383 5.89918L25.9758 14.3367C26.0629 14.4238 26.1321 14.5271 26.1793 14.641C26.2264 14.7548 26.2507 14.8768 26.2507 15C26.2507 15.1232 26.2264 15.2452 26.1793 15.359C26.1321 15.4728 26.0629 15.5762 25.9758 15.6632L17.5383 24.1007C17.3624 24.2767 17.1238 24.3755 16.875 24.3755C16.6262 24.3755 16.3876 24.2767 16.2117 24.1007C16.0358 23.9248 15.937 23.6862 15.937 23.4375C15.937 23.1887 16.0358 22.9501 16.2117 22.7742L23.0496 15.9375L4.6875 15.9375C4.43886 15.9375 4.2004 15.8387 4.02458 15.6629C3.84877 15.4871 3.75 15.2486 3.75 15Z" fill="#F5D06F"/>
</svg>
