<svg width="30" height="30" viewBox="0 0 30 30" fill="none" xmlns="http://www.w3.org/2000/svg">
<path d="M26.25 15C26.25 15.2487 26.1512 15.4871 25.9754 15.6629C25.7996 15.8388 25.5611 15.9375 25.3125 15.9375H6.95039L13.7883 22.7743C13.8754 22.8614 13.9445 22.9648 13.9916 23.0786C14.0388 23.1924 14.063 23.3144 14.063 23.4375C14.063 23.5607 14.0388 23.6827 13.9916 23.7965C13.9445 23.9103 13.8754 24.0137 13.7883 24.1008C13.7012 24.1879 13.5978 24.257 13.484 24.3042C13.3702 24.3513 13.2482 24.3756 13.125 24.3756C13.0018 24.3756 12.8798 24.3513 12.766 24.3042C12.6522 24.257 12.5488 24.1879 12.4617 24.1008L4.02422 15.6633C3.93705 15.5762 3.8679 15.4729 3.82072 15.359C3.77354 15.2452 3.74926 15.1232 3.74926 15C3.74926 14.8768 3.77354 14.7548 3.82072 14.641C3.8679 14.5272 3.93705 14.4238 4.02422 14.3368L12.4617 5.89925C12.6376 5.72334 12.8762 5.62451 13.125 5.62451C13.3738 5.62451 13.6124 5.72334 13.7883 5.89925C13.9642 6.07516 14.063 6.31375 14.063 6.56253C14.063 6.81131 13.9642 7.0499 13.7883 7.22581L6.95039 14.0625H25.3125C25.5611 14.0625 25.7996 14.1613 25.9754 14.3371C26.1512 14.5129 26.25 14.7514 26.25 15Z" fill="#F5D06F"/>
</svg>
