<svg width="134" height="139" viewBox="0 0 134 139" fill="none" xmlns="http://www.w3.org/2000/svg">
<g clip-path="url(#clip0_135_586)">
<path d="M32.6085 46.6416C32.6085 46.6416 27.6685 91.8316 69.4585 113.792C69.6285 113.792 108.438 97.7016 108.178 46.6416C108.178 45.8716 94.3885 46.1316 94.1385 28.7716C94.1385 28.2616 45.8785 28.7716 45.8785 28.7716C45.8785 28.7716 47.1585 40.2616 32.5985 46.6416H32.6085Z" fill="white" stroke="white" stroke-miterlimit="10"/>
<path d="M38.7385 49.7116C38.7385 49.7116 35.0785 90.0516 69.4585 108.432C69.3685 108.692 99.2485 100.002 102.308 51.2416C101.798 51.2416 89.7985 47.9216 90.5685 34.9016C90.3085 35.4116 49.9685 34.9016 49.9685 34.9016C49.9685 34.9016 48.4385 47.1616 38.7385 49.7116Z" fill="#181818" stroke="white" stroke-miterlimit="10"/>
<path d="M92.8885 11.4017C92.8885 12.8517 91.7185 14.0317 90.2685 14.0317C89.8485 14.0317 89.4485 13.9317 89.0985 13.7517L89.2885 13.9617L84.9485 20.3517H54.5685L50.5185 14.0217C50.4285 14.0317 50.3385 14.0317 50.2485 14.0317C48.7985 14.0317 47.6185 12.8517 47.6185 11.4017C47.6185 9.9517 48.7985 8.7817 50.2485 8.7817C51.6985 8.7817 52.8685 9.9517 52.8685 11.4017C52.8685 11.9517 52.6985 12.4617 52.4085 12.8817L52.6485 12.7517L55.4585 14.9817L57.2485 13.7117L57.4685 7.5417C56.5585 7.1317 55.9185 6.2117 55.9185 5.1517C55.9185 3.7017 57.0985 2.5317 58.5485 2.5317C59.9985 2.5317 61.1685 3.7017 61.1685 5.1517C61.1685 5.8417 60.9085 6.4717 60.4685 6.9417L64.5185 13.3217L66.0585 13.7117L68.2685 5.4317C67.6485 4.9517 67.2585 4.2117 67.2585 3.3717C67.2585 1.9217 68.4385 0.741699 69.8885 0.741699C71.3385 0.741699 72.5085 1.9217 72.5085 3.3717C72.5085 4.3317 71.9985 5.1717 71.2285 5.6217L72.3085 13.3217L75.7585 12.9417L79.8085 7.7917C79.3585 7.3217 79.0885 6.6817 79.0885 5.9917C79.0885 4.5417 80.2685 3.3717 81.7185 3.3717C83.1685 3.3717 84.3385 4.5417 84.3385 5.9917C84.3385 7.2017 83.5185 8.2217 82.4085 8.5217L82.5185 16.2217H84.1785L87.5885 12.0917L87.8185 12.3517C87.6985 12.0617 87.6385 11.7417 87.6385 11.4017C87.6385 9.9517 88.8185 8.7817 90.2685 8.7817C91.7185 8.7817 92.8885 9.9517 92.8885 11.4017Z" fill="white"/>
<path d="M67.8485 57.6717C67.9285 58.2817 68.0185 59.0517 67.8485 60.0317C67.7485 60.6117 67.6285 61.3316 67.1685 62.0016C67.1084 62.0816 66.9285 62.3317 66.5685 62.8217C66.2985 63.1917 66.0684 63.5017 66.0184 63.5617C65.2684 64.5017 64.4484 65.3616 63.5684 66.1216C62.6884 66.8816 61.8384 67.5417 61.0384 68.1017C62.1584 68.2017 63.2684 68.4717 64.3884 68.9217C65.4984 69.3717 66.4985 69.9917 67.3885 70.7817C68.2785 71.5717 68.9984 72.5317 69.5484 73.6517C70.0984 74.7717 70.3784 76.0517 70.3784 77.4717C70.3784 78.6417 70.2185 79.6917 69.8885 80.6317C69.5385 81.6417 69.0984 82.3217 68.5784 83.1417C68.1884 83.7417 67.7184 84.4717 66.9084 85.2717C66.2084 85.9617 65.5285 86.3617 65.0584 86.6517C64.4684 87.0117 64.1584 87.1417 64.0284 87.1917C63.4884 87.3917 63.0384 87.4617 62.4984 87.5317C62.0884 87.5917 61.7884 87.6017 61.2084 87.6417C60.3084 87.6917 59.8584 87.7217 59.5384 87.7017C58.5084 87.6417 57.7784 87.6017 57.3284 87.0717C56.7684 86.4117 56.7684 85.1417 57.3484 84.6717C57.8384 84.2617 58.3884 84.7117 60.6784 84.9017C62.0384 85.0117 62.7184 84.9317 62.9084 84.9017C63.4484 84.8317 64.2485 84.7117 65.1385 84.2117C65.2885 84.1317 65.8884 83.7817 66.5084 83.1217C66.7084 82.9117 67.2284 82.3217 67.6484 81.4217C68.2584 80.0917 68.2284 78.9016 68.2284 78.2717C68.2284 77.1117 67.9985 76.0917 67.5285 75.2117C67.0585 74.3317 66.4384 73.5817 65.6584 72.9717C64.8784 72.3617 63.9884 71.9016 62.9684 71.5917C61.9584 71.2817 60.8984 71.1216 59.8084 71.1216C59.3584 71.1216 58.9184 71.1517 58.4884 71.2017C58.3884 71.2117 57.8984 71.2717 57.2584 71.3917C57.0784 71.4217 56.9384 71.4616 56.8284 71.4816C56.8884 71.1817 56.9484 70.8817 57.0184 70.5917C57.0884 69.9016 57.1584 69.2016 57.2284 68.5116C57.3784 68.4716 57.5584 68.4217 57.7484 68.3617C57.9184 68.3217 58.1184 68.2717 58.3584 68.2217C58.5984 68.1717 58.8584 68.1317 59.1584 68.1017C59.8284 67.6917 60.5284 67.1617 61.2684 66.5317C62.0084 65.9017 62.6784 65.1617 63.2784 64.3217C63.8784 63.4817 64.3884 62.5517 64.7884 61.5016C65.1884 60.4616 65.3885 59.3216 65.3885 58.0917C65.3885 56.0217 64.9084 54.4517 63.9384 53.4017C62.9684 52.3517 61.5984 51.8117 59.8084 51.8117C58.3084 51.8117 57.3784 52.9917 56.6784 52.4817C56.3884 52.2717 56.1684 51.8217 56.2684 51.4517C56.5584 50.3417 59.3284 49.7017 61.5284 50.2817C62.4884 50.5317 63.2384 51.0017 63.7884 51.3317C64.3484 51.6717 65.1385 52.1717 65.9185 53.0817C66.0885 53.2817 66.6884 54.0017 67.1784 55.1017C67.2684 55.3017 67.6884 56.2717 67.8684 57.6517L67.8485 57.6717Z" fill="white"/>
<path d="M91.8085 79.1916C91.7585 79.5316 91.0985 83.3616 88.2485 84.7616C86.7285 85.5116 84.6985 85.5216 84.5785 85.5216C83.5885 85.5216 82.6285 85.3416 81.7085 84.9716C80.7885 84.6016 79.9585 84.0516 79.2285 83.2916C78.4985 82.5316 77.9185 81.5816 77.4885 80.4216C77.0585 79.2616 76.8385 77.8816 76.8385 76.2916C76.8385 74.9116 76.9885 73.6516 77.2985 72.5116C77.6085 71.3716 78.0385 70.3816 78.5885 69.5316C79.1385 68.6816 79.7985 67.9716 80.5685 67.4116C81.3385 66.8516 82.1885 66.4516 83.1085 66.2116C83.4685 66.2816 83.8485 66.3316 84.2385 66.3616C84.6285 66.3916 85.0285 66.4016 85.4385 66.4016C85.7585 66.4016 86.0185 66.3716 86.2285 66.3216C86.4385 66.2716 86.5885 66.1916 86.6985 66.1116C86.8085 66.0316 86.8885 65.9316 86.9285 65.8316C86.9685 65.7316 86.9885 65.6216 86.9885 65.5016C86.9885 65.2616 86.8885 65.0716 86.6785 64.9116C86.4685 64.7516 86.1285 64.6816 85.6485 64.6816C85.3685 64.6816 84.9885 64.7116 84.5185 64.7716C84.0485 64.8316 83.5085 64.9416 82.8985 65.1016C82.2585 64.8916 81.6885 64.5716 81.1985 64.1516C80.7085 63.7316 80.2985 63.2216 79.9785 62.6416C79.6585 62.0616 79.4085 61.4216 79.2485 60.7316C79.0885 60.0416 78.9985 59.3316 78.9985 58.6216C78.9985 57.5216 79.1285 56.5216 79.3885 55.6216C79.6485 54.7216 80.0285 53.9616 80.5285 53.3316C81.0285 52.7016 81.6585 52.2116 82.4085 51.8716C82.9685 51.6216 84.1885 51.0516 84.9985 51.3616C86.0385 51.7516 86.6485 53.6516 86.1785 55.9516C86.5785 55.9816 86.9685 56.0016 87.3685 56.0316C88.5485 53.6816 88.3885 51.2116 87.0885 50.0116C86.1885 49.1816 84.8585 49.0516 84.4985 49.0216C83.2585 48.9016 82.2885 49.2816 81.3585 49.6516C80.8985 49.8316 80.0885 50.1616 79.1885 50.8516C78.2385 51.5916 77.6685 52.3616 77.4185 52.7416C76.9385 53.4616 76.7185 54.0416 76.3785 54.9716C75.8785 56.3316 75.5585 57.2216 75.5585 58.4616C75.5585 59.1916 75.6785 59.9116 75.9285 60.6316C76.1785 61.3516 76.5285 62.0316 76.9985 62.6616C77.4685 63.2916 78.0485 63.8716 78.7285 64.3916C79.4085 64.9116 80.2085 65.3316 81.0985 65.6716C80.1585 66.0116 79.2185 66.4516 78.2585 67.0016C77.2985 67.5516 76.4285 68.2516 75.6485 69.0916C74.8685 69.9316 74.2285 70.9416 73.7285 72.1216C73.2285 73.3016 72.9885 74.6916 72.9885 76.2816C72.9885 77.6916 73.2585 79.0216 73.7885 80.2716C74.3185 81.5216 75.0685 82.6116 76.0185 83.5416C76.9685 84.4716 78.1285 85.2216 79.4685 85.7616C80.8085 86.3016 82.2985 86.5816 83.9385 86.5816C85.3385 86.5816 87.2285 86.5816 88.9985 85.5716C92.1785 83.7516 92.7985 79.8716 92.8885 79.1816H91.8185L91.8085 79.1916Z" fill="white"/>
<path d="M63.5985 74.2016C52.1985 77.7216 41.8785 66.3916 49.3585 56.0116C51.3685 53.2216 54.4785 51.2916 57.8385 50.6216L58.1385 52.1616C55.1585 52.7716 52.4185 54.4716 50.6385 56.9416C44.0785 66.0716 53.1885 75.7216 63.1085 72.6416L63.5985 74.2016Z" fill="white"/>
<path d="M63.7185 44.1416C61.1585 47.7716 59.5685 51.9016 59.2785 56.2216C59.2485 57.9316 59.1585 62.6416 59.1285 64.4216C58.9985 70.8716 58.9185 79.9616 58.7385 86.3216L58.6985 87.7416H57.3385C55.4585 87.7716 53.5685 87.7916 51.6885 87.7716L51.6285 85.0916C53.5085 85.0016 55.3885 84.9416 57.2785 84.8816L55.8685 86.3116C55.8385 77.2116 56.0785 67.9216 56.4885 58.8016C56.5185 57.1316 56.6285 54.7316 57.0885 53.1516C58.0085 49.3916 60.0485 45.9016 62.8785 43.4016L63.7085 44.1416H63.7185Z" fill="white"/>
<path d="M17.7184 49.0117C17.7184 49.0117 10.7385 103.332 69.4585 115.412C69.7985 115.582 120.178 116.332 122.058 50.0817" stroke="white" stroke-miterlimit="10"/>
<path d="M20.3446 46.29C20.9251 44.3538 20.6409 42.5579 19.7099 42.2787C18.7788 41.9996 17.5534 43.3429 16.9729 45.2791C16.3924 47.2153 16.6765 49.0112 17.6076 49.2904C18.5387 49.5695 19.7641 48.2262 20.3446 46.29Z" fill="white"/>
<path d="M21.693 57.147C22.7037 55.3964 22.8406 53.5833 21.9988 53.0973C21.157 52.6113 19.6553 53.6364 18.6446 55.387C17.634 57.1375 17.497 58.9506 18.3388 59.4366C19.1806 59.9227 20.6824 58.8975 21.693 57.147Z" fill="white"/>
<path d="M17.5098 59.0182C18.2405 58.3772 17.7522 56.6257 16.4192 55.1062C15.0862 53.5867 13.4132 52.8746 12.6825 53.5156C11.9518 54.1566 12.4401 55.9081 13.7731 57.4276C15.1062 58.9471 16.7792 59.6592 17.5098 59.0182Z" fill="white"/>
<path d="M23.7602 69.8533C24.582 67.7849 24.4411 65.7874 23.4454 65.3918C22.4497 64.9961 20.9762 66.3522 20.1544 68.4206C19.3325 70.489 19.4734 72.4865 20.4692 72.8821C21.4649 73.2778 22.9383 71.9217 23.7602 69.8533Z" fill="white"/>
<path d="M19.4961 72.5624C20.1907 71.7466 19.3799 69.9156 17.6852 68.4728C15.9905 67.03 14.0536 66.5217 13.3591 67.3375C12.6645 68.1533 13.4753 69.9843 15.17 71.4272C16.8647 72.87 18.8016 73.3783 19.4961 72.5624Z" fill="white"/>
<path d="M28.1874 81.5773C28.2899 79.354 27.5053 77.5116 26.435 77.4622C25.3647 77.4129 24.414 79.1752 24.3115 81.3986C24.209 83.6219 24.9935 85.4643 26.0638 85.5137C27.1341 85.563 28.0848 83.8007 28.1874 81.5773Z" fill="white"/>
<path d="M25.0316 85.529C25.4224 84.5313 24.0592 83.0646 21.9868 82.2528C19.9144 81.4411 17.9176 81.5917 17.5268 82.5894C17.1361 83.587 18.4993 85.0538 20.5717 85.8655C22.6441 86.6773 24.6409 86.5266 25.0316 85.529Z" fill="white"/>
<path d="M35.7546 92.8964C35.8571 90.6731 35.0725 88.8307 34.0022 88.7813C32.9319 88.732 31.9812 90.4943 31.8787 92.7177C31.7762 94.941 32.5607 96.7834 33.631 96.8328C34.7013 96.8821 35.652 95.1197 35.7546 92.8964Z" fill="white"/>
<path d="M32.6065 96.8495C32.9972 95.8519 31.634 94.3851 29.5616 93.5734C27.4892 92.7616 25.4924 92.9123 25.1016 93.9099C24.7109 94.9076 26.0741 96.3744 28.1465 97.1861C30.2189 97.9979 32.2157 97.8472 32.6065 96.8495Z" fill="white"/>
<path d="M43.4003 104.986C44.4436 104.742 44.8782 102.787 44.3711 100.62C43.864 98.4526 42.6072 96.8937 41.5639 97.1378C40.5206 97.3819 40.086 99.3367 40.5931 101.504C41.1002 103.671 42.357 105.23 43.4003 104.986Z" fill="white"/>
<path d="M42.4212 105.288C42.5254 104.222 40.8141 103.182 38.5989 102.966C36.3838 102.749 34.5036 103.438 34.3994 104.504C34.2952 105.571 36.0065 106.611 38.2217 106.827C40.4368 107.044 42.317 106.355 42.4212 105.288Z" fill="white"/>
<path d="M53.6286 110.408C54.5889 109.932 54.5671 107.93 53.5799 105.935C52.5927 103.94 51.0139 102.708 50.0537 103.184C49.0934 103.659 49.1152 105.661 50.1024 107.656C51.0896 109.651 52.6683 110.883 53.6286 110.408Z" fill="white"/>
<path d="M49.0072 113.366C51.2134 113.072 52.8871 111.973 52.7456 110.911C52.6041 109.849 50.7009 109.226 48.4947 109.52C46.2885 109.814 44.6147 110.913 44.7562 111.975C44.8978 113.037 46.801 113.66 49.0072 113.366Z" fill="white"/>
<path d="M91.4652 113.481C93.6595 113.108 95.2926 111.949 95.113 110.893C94.9334 109.836 93.0091 109.283 90.8148 109.656C88.6206 110.029 86.9875 111.188 87.1671 112.244C87.3467 113.3 89.271 113.854 91.4652 113.481Z" fill="white"/>
<path d="M89.4892 107.588C89.8412 105.39 89.2689 103.471 88.211 103.302C87.153 103.132 86.01 104.776 85.658 106.974C85.306 109.172 85.8783 111.091 86.9362 111.26C87.9942 111.43 89.1372 109.785 89.4892 107.588Z" fill="white"/>
<path d="M102.047 107.936C104.241 107.563 105.874 106.404 105.695 105.348C105.515 104.291 103.591 103.737 101.396 104.111C99.2022 104.484 97.5691 105.642 97.7487 106.699C97.9283 107.755 99.8526 108.309 102.047 107.936Z" fill="white"/>
<path d="M100.072 102.045C100.424 99.8471 99.852 97.9281 98.794 97.7587C97.7361 97.5892 96.5931 99.2334 96.2411 101.431C95.8891 103.629 96.4613 105.548 97.5193 105.717C98.5772 105.887 99.7202 104.242 100.072 102.045Z" fill="white"/>
<path d="M111.749 98.7499C113.943 98.3768 115.576 97.2181 115.397 96.1618C115.217 95.1055 113.293 94.5517 111.099 94.9248C108.904 95.2979 107.271 96.4566 107.451 97.5129C107.631 98.5692 109.555 99.123 111.749 98.7499Z" fill="white"/>
<path d="M109.772 92.8634C110.124 90.6657 109.552 88.7467 108.494 88.5773C107.436 88.4078 106.293 90.052 105.941 92.2497C105.589 94.4474 106.161 96.3664 107.219 96.5358C108.277 96.7053 109.42 95.0611 109.772 92.8634Z" fill="white"/>
<path d="M126.203 57.5984C127.476 55.7723 127.795 53.7954 126.916 53.1828C126.037 52.5703 124.293 53.554 123.02 55.3801C121.748 57.2062 121.429 59.1831 122.308 59.7957C123.187 60.4082 124.931 59.4245 126.203 57.5984Z" fill="white"/>
<path d="M121.424 59.2541C122.287 58.6184 121.915 56.6507 120.595 54.859C119.275 53.0673 117.505 52.1301 116.642 52.7658C115.78 53.4014 116.151 55.3692 117.472 57.1609C118.792 58.9526 120.562 59.8897 121.424 59.2541Z" fill="white"/>
<path d="M123.712 72.4457C125.455 71.0617 126.328 69.2595 125.662 68.4204C124.996 67.5813 123.043 68.0231 121.3 69.4071C119.557 70.7911 118.684 72.5933 119.35 73.4324C120.016 74.2715 121.969 73.8297 123.712 72.4457Z" fill="white"/>
<path d="M118.673 72.6862C119.682 72.3251 119.891 70.3336 119.141 68.2381C118.391 66.1427 116.965 64.7368 115.956 65.098C114.947 65.4592 114.738 67.4506 115.488 69.5461C116.239 71.6415 117.664 73.0474 118.673 72.6862Z" fill="white"/>
<path d="M122.161 50.3458C123.128 50.2479 123.747 48.5382 123.544 46.5271C123.34 44.516 122.391 42.9651 121.424 43.063C120.457 43.1609 119.838 44.8705 120.041 46.8816C120.245 48.8927 121.194 50.4437 122.161 50.3458Z" fill="white"/>
<path d="M2.11245 131.422V121.818H7.06845C7.61911 121.818 8.09511 121.916 8.49645 122.112C8.89778 122.298 9.20578 122.564 9.42045 122.91C9.64445 123.255 9.75645 123.666 9.75645 124.142C9.75645 124.506 9.69111 124.842 9.56045 125.15C9.42978 125.458 9.24778 125.714 9.01445 125.92C8.78111 126.125 8.51511 126.279 8.21645 126.382V126.438C8.55245 126.512 8.85578 126.648 9.12645 126.844C9.39711 127.04 9.61178 127.301 9.77045 127.628C9.93845 127.945 10.0224 128.337 10.0224 128.804C10.0224 129.429 9.89178 129.933 9.63045 130.316C9.36911 130.698 9.01911 130.978 8.58045 131.156C8.14178 131.333 7.63778 131.422 7.06845 131.422H2.11245ZM3.44245 130.274H7.05445C7.53045 130.274 7.91778 130.152 8.21645 129.91C8.51511 129.658 8.66445 129.242 8.66445 128.664C8.66445 128.309 8.59911 128.015 8.46845 127.782C8.33778 127.539 8.14645 127.362 7.89445 127.25C7.64245 127.128 7.32511 127.068 6.94245 127.068H3.44245V130.274ZM3.44245 125.934H6.81645C7.13378 125.934 7.40911 125.873 7.64245 125.752C7.87578 125.621 8.05778 125.444 8.18845 125.22C8.32845 124.986 8.39845 124.725 8.39845 124.436C8.39845 123.932 8.26311 123.563 7.99245 123.33C7.72178 123.087 7.36245 122.966 6.91445 122.966H3.44245V125.934ZM15.7798 131.59C14.9678 131.59 14.2678 131.459 13.6798 131.198C13.0918 130.936 12.6392 130.526 12.3218 129.966C12.0138 129.396 11.8598 128.668 11.8598 127.782V121.818H13.1898V127.922C13.1898 128.762 13.4138 129.392 13.8618 129.812C14.3192 130.232 14.9585 130.442 15.7798 130.442C16.6105 130.442 17.2592 130.232 17.7258 129.812C18.1925 129.392 18.4258 128.762 18.4258 127.922V121.818H19.7418V127.782C19.7418 128.668 19.5832 129.396 19.2658 129.966C18.9485 130.526 18.4912 130.936 17.8938 131.198C17.3058 131.459 16.6012 131.59 15.7798 131.59ZM22.1281 131.422V121.818H23.4581V130.26H28.2321V131.422H22.1281ZM29.6339 131.422V121.818H30.9639V130.26H35.7379V131.422H29.6339ZM37.1398 131.422V121.818H40.7238C41.7318 121.818 42.5905 121.986 43.2998 122.322C44.0091 122.658 44.5505 123.18 44.9238 123.89C45.3065 124.59 45.4978 125.5 45.4978 126.62C45.4978 127.721 45.3065 128.626 44.9238 129.336C44.5505 130.045 44.0091 130.572 43.2998 130.918C42.5905 131.254 41.7318 131.422 40.7238 131.422H37.1398ZM38.4698 130.274H40.6958C41.2278 130.274 41.7038 130.208 42.1238 130.078C42.5438 129.938 42.9031 129.728 43.2018 129.448C43.5005 129.168 43.7245 128.808 43.8738 128.37C44.0325 127.922 44.1118 127.39 44.1118 126.774V126.494C44.1118 125.859 44.0325 125.322 43.8738 124.884C43.7245 124.436 43.5005 124.072 43.2018 123.792C42.9125 123.512 42.5578 123.306 42.1378 123.176C41.7178 123.036 41.2371 122.966 40.6958 122.966H38.4698V130.274ZM51.733 131.59C50.7344 131.59 49.8757 131.408 49.157 131.044C48.4477 130.68 47.897 130.129 47.505 129.392C47.1224 128.654 46.931 127.73 46.931 126.62C46.931 125.5 47.1224 124.576 47.505 123.848C47.897 123.11 48.4477 122.56 49.157 122.196C49.8757 121.832 50.7344 121.65 51.733 121.65C52.7317 121.65 53.5857 121.832 54.295 122.196C55.0137 122.56 55.5644 123.11 55.947 123.848C56.339 124.576 56.535 125.5 56.535 126.62C56.535 127.73 56.339 128.654 55.947 129.392C55.5644 130.129 55.0137 130.68 54.295 131.044C53.5857 131.408 52.7317 131.59 51.733 131.59ZM51.733 130.442C52.2557 130.442 52.727 130.372 53.147 130.232C53.5764 130.092 53.9357 129.872 54.225 129.574C54.5237 129.266 54.7524 128.883 54.911 128.426C55.0697 127.959 55.149 127.408 55.149 126.774V126.48C55.149 125.836 55.0697 125.285 54.911 124.828C54.7524 124.361 54.5237 123.978 54.225 123.68C53.9357 123.372 53.5764 123.148 53.147 123.008C52.727 122.868 52.2557 122.798 51.733 122.798C51.201 122.798 50.725 122.868 50.305 123.008C49.885 123.148 49.5257 123.372 49.227 123.68C48.9284 123.978 48.6997 124.361 48.541 124.828C48.3917 125.285 48.317 125.836 48.317 126.48V126.774C48.317 127.408 48.3917 127.959 48.541 128.426C48.6997 128.883 48.9284 129.266 49.227 129.574C49.5257 129.872 49.885 130.092 50.305 130.232C50.725 130.372 51.201 130.442 51.733 130.442ZM62.7802 131.59C61.2309 131.59 60.0502 131.184 59.2382 130.372C58.4356 129.56 58.0342 128.309 58.0342 126.62C58.0342 125.518 58.2209 124.599 58.5942 123.862C58.9676 123.124 59.5182 122.574 60.2462 122.21C60.9742 121.836 61.8609 121.65 62.9062 121.65C63.5596 121.65 64.1522 121.72 64.6842 121.86C65.2162 122 65.6736 122.214 66.0562 122.504C66.4482 122.784 66.7469 123.138 66.9522 123.568C67.1669 123.997 67.2742 124.506 67.2742 125.094H65.9162C65.9162 124.683 65.8416 124.333 65.6922 124.044C65.5429 123.745 65.3282 123.502 65.0482 123.316C64.7776 123.129 64.4602 122.998 64.0962 122.924C63.7322 122.84 63.3449 122.798 62.9342 122.798C62.3742 122.798 61.8749 122.868 61.4362 123.008C60.9976 123.148 60.6289 123.367 60.3302 123.666C60.0316 123.964 59.8029 124.347 59.6442 124.814C59.4856 125.28 59.4062 125.836 59.4062 126.48V126.774C59.4062 127.642 59.5369 128.346 59.7982 128.888C60.0689 129.429 60.4562 129.826 60.9602 130.078C61.4642 130.32 62.0709 130.442 62.7802 130.442C63.4989 130.442 64.0916 130.344 64.5582 130.148C65.0249 129.942 65.3702 129.634 65.5942 129.224C65.8276 128.813 65.9442 128.295 65.9442 127.67V127.502H62.5562V126.368H67.2882V131.422H66.2802L66.1402 130.204C65.8882 130.53 65.5896 130.796 65.2442 131.002C64.8989 131.207 64.5162 131.356 64.0962 131.45C63.6856 131.543 63.2469 131.59 62.7802 131.59ZM72.5226 131.422V121.818H79.9146V122.966H73.8526V125.934H79.2986V127.082H73.8526V130.274H79.9986V131.422H72.5226ZM85.5252 131.59C85.0025 131.59 84.4985 131.538 84.0132 131.436C83.5372 131.333 83.1125 131.17 82.7392 130.946C82.3659 130.712 82.0672 130.414 81.8432 130.05C81.6285 129.686 81.5212 129.238 81.5212 128.706C81.5212 128.659 81.5212 128.612 81.5212 128.566C81.5305 128.519 81.5352 128.472 81.5352 128.426H82.8792C82.8792 128.454 82.8745 128.5 82.8652 128.566C82.8652 128.622 82.8652 128.673 82.8652 128.72C82.8652 129.093 82.9772 129.41 83.2012 129.672C83.4252 129.933 83.7332 130.129 84.1252 130.26C84.5265 130.381 84.9792 130.442 85.4832 130.442C85.7072 130.442 85.9405 130.428 86.1832 130.4C86.4352 130.372 86.6732 130.325 86.8972 130.26C87.1305 130.185 87.3359 130.092 87.5132 129.98C87.6999 129.858 87.8445 129.714 87.9472 129.546C88.0592 129.368 88.1152 129.154 88.1152 128.902C88.1152 128.584 88.0219 128.323 87.8352 128.118C87.6579 127.903 87.4199 127.73 87.1212 127.6C86.8225 127.46 86.4819 127.338 86.0992 127.236C85.7259 127.124 85.3385 127.016 84.9372 126.914C84.5359 126.811 84.1439 126.694 83.7612 126.564C83.3879 126.424 83.0519 126.256 82.7532 126.06C82.4545 125.854 82.2119 125.602 82.0252 125.304C81.8479 125.005 81.7592 124.641 81.7592 124.212C81.7592 123.81 81.8385 123.451 81.9972 123.134C82.1652 122.816 82.4079 122.55 82.7252 122.336C83.0519 122.112 83.4532 121.944 83.9292 121.832C84.4052 121.71 84.9512 121.65 85.5672 121.65C86.0712 121.65 86.5379 121.706 86.9672 121.818C87.4059 121.92 87.7885 122.084 88.1152 122.308C88.4512 122.522 88.7125 122.798 88.8992 123.134C89.0859 123.47 89.1792 123.876 89.1792 124.352V124.52H87.8632V124.31C87.8632 123.992 87.7652 123.722 87.5692 123.498C87.3732 123.274 87.1025 123.101 86.7572 122.98C86.4212 122.858 86.0385 122.798 85.6092 122.798C85.0492 122.798 84.5825 122.854 84.2092 122.966C83.8359 123.068 83.5559 123.222 83.3692 123.428C83.1919 123.624 83.1032 123.848 83.1032 124.1C83.1032 124.389 83.1919 124.632 83.3692 124.828C83.5559 125.024 83.7985 125.187 84.0972 125.318C84.3959 125.439 84.7365 125.551 85.1192 125.654C85.5019 125.756 85.8892 125.864 86.2812 125.976C86.6825 126.078 87.0699 126.2 87.4432 126.34C87.8259 126.47 88.1665 126.638 88.4652 126.844C88.7732 127.04 89.0159 127.292 89.1932 127.6C89.3705 127.898 89.4592 128.267 89.4592 128.706C89.4592 129.387 89.2912 129.942 88.9552 130.372C88.6192 130.792 88.1572 131.1 87.5692 131.296C86.9812 131.492 86.2999 131.59 85.5252 131.59ZM93.7691 131.422V122.98H90.4791V121.818H98.4171V122.98H95.0991V131.422H93.7691ZM97.5846 131.422L101.379 121.818H103.129L106.937 131.422H105.495L104.557 129.042H99.8806L98.9566 131.422H97.5846ZM100.315 127.908H104.109L102.947 124.898C102.919 124.814 102.877 124.697 102.821 124.548C102.765 124.398 102.704 124.235 102.639 124.058C102.573 123.871 102.508 123.684 102.443 123.498C102.377 123.302 102.317 123.124 102.261 122.966H102.177C102.111 123.152 102.037 123.367 101.953 123.61C101.869 123.852 101.785 124.09 101.701 124.324C101.617 124.548 101.547 124.739 101.491 124.898L100.315 127.908ZM109.369 131.422V122.98H106.079V121.818H114.017V122.98H110.699V131.422H109.369ZM115.507 131.422V121.818H122.899V122.966H116.837V125.934H122.283V127.082H116.837V130.274H122.983V131.422H115.507ZM128.51 131.59C127.987 131.59 127.483 131.538 126.998 131.436C126.522 131.333 126.097 131.17 125.724 130.946C125.35 130.712 125.052 130.414 124.828 130.05C124.613 129.686 124.506 129.238 124.506 128.706C124.506 128.659 124.506 128.612 124.506 128.566C124.515 128.519 124.52 128.472 124.52 128.426H125.864C125.864 128.454 125.859 128.5 125.85 128.566C125.85 128.622 125.85 128.673 125.85 128.72C125.85 129.093 125.962 129.41 126.186 129.672C126.41 129.933 126.718 130.129 127.11 130.26C127.511 130.381 127.964 130.442 128.468 130.442C128.692 130.442 128.925 130.428 129.168 130.4C129.42 130.372 129.658 130.325 129.882 130.26C130.115 130.185 130.32 130.092 130.498 129.98C130.684 129.858 130.829 129.714 130.932 129.546C131.044 129.368 131.1 129.154 131.1 128.902C131.1 128.584 131.006 128.323 130.82 128.118C130.642 127.903 130.404 127.73 130.106 127.6C129.807 127.46 129.466 127.338 129.084 127.236C128.71 127.124 128.323 127.016 127.922 126.914C127.52 126.811 127.128 126.694 126.746 126.564C126.372 126.424 126.036 126.256 125.738 126.06C125.439 125.854 125.196 125.602 125.01 125.304C124.832 125.005 124.744 124.641 124.744 124.212C124.744 123.81 124.823 123.451 124.982 123.134C125.15 122.816 125.392 122.55 125.71 122.336C126.036 122.112 126.438 121.944 126.914 121.832C127.39 121.71 127.936 121.65 128.552 121.65C129.056 121.65 129.522 121.706 129.952 121.818C130.39 121.92 130.773 122.084 131.1 122.308C131.436 122.522 131.697 122.798 131.884 123.134C132.07 123.47 132.164 123.876 132.164 124.352V124.52H130.848V124.31C130.848 123.992 130.75 123.722 130.554 123.498C130.358 123.274 130.087 123.101 129.742 122.98C129.406 122.858 129.023 122.798 128.594 122.798C128.034 122.798 127.567 122.854 127.194 122.966C126.82 123.068 126.54 123.222 126.354 123.428C126.176 123.624 126.088 123.848 126.088 124.1C126.088 124.389 126.176 124.632 126.354 124.828C126.54 125.024 126.783 125.187 127.082 125.318C127.38 125.439 127.721 125.551 128.104 125.654C128.486 125.756 128.874 125.864 129.266 125.976C129.667 126.078 130.054 126.2 130.428 126.34C130.81 126.47 131.151 126.638 131.45 126.844C131.758 127.04 132 127.292 132.178 127.6C132.355 127.898 132.444 128.267 132.444 128.706C132.444 129.387 132.276 129.942 131.94 130.372C131.604 130.792 131.142 131.1 130.554 131.296C129.966 131.492 129.284 131.59 128.51 131.59Z" fill="white"/>
</g>
<defs>
<clipPath id="clip0_135_586">
<rect width="132.27" height="138.2" fill="white" transform="translate(0.908447 0.741699)"/>
</clipPath>
</defs>
</svg>
