<svg width="148" height="143" viewBox="0 0 148 143" fill="none" xmlns="http://www.w3.org/2000/svg">
<path d="M42.6631 85.3372C41.1831 85.3372 40.1731 84.8472 39.6231 83.8772C39.0831 82.9072 38.8131 81.8472 38.8131 80.6972C38.8131 79.6472 38.9831 78.5672 39.3031 77.4672C39.6331 76.3672 40.0831 75.3372 40.6631 74.3772C41.2431 73.4272 41.8831 72.6572 42.5931 72.0772C43.3031 71.4972 44.0131 71.2172 44.7431 71.2172C44.9731 71.2172 45.2431 71.2572 45.5631 71.3372C45.8731 71.4172 46.0931 71.5472 46.2331 71.7072C45.8331 72.1972 45.4331 72.8072 45.0231 73.5372C44.6131 74.2572 44.2331 75.0272 43.8831 75.8372C43.5331 76.6472 43.2631 77.4572 43.0731 78.2772C42.8731 79.0972 42.7731 79.8572 42.7731 80.5472C42.7731 81.2372 42.8931 81.7472 43.1431 82.1772C43.3931 82.6072 43.8231 82.8172 44.4531 82.8172C45.0831 82.8172 45.8231 82.4672 46.7031 81.7572C47.5731 81.0472 48.4031 80.2372 49.1931 79.3172C48.1431 78.3672 47.3831 77.3172 46.9231 76.1872C46.4631 75.0472 46.2331 73.6772 46.2331 72.0672C46.2331 71.3772 46.4031 70.5872 46.7531 69.6972C47.1031 68.8072 47.6631 68.0372 48.4331 67.3772C49.2031 66.7172 50.2531 66.3872 51.5731 66.3872C52.9831 66.3872 53.9831 66.7872 54.5631 67.5672C55.1431 68.3572 55.4231 69.2972 55.4231 70.3772C55.4231 71.5972 55.1031 72.9572 54.4631 74.4772C53.8231 75.9872 53.0531 77.4272 52.1631 78.7772C52.5631 78.9772 53.0231 79.0772 53.5431 79.0772C54.0331 79.0772 54.6331 78.9572 55.3231 78.7272C56.0131 78.4972 56.6931 78.1072 57.3431 77.5672C58.0031 77.0272 58.5231 76.2872 58.9231 75.3672L59.8131 76.0072C59.0931 77.6872 58.1231 78.9172 56.9231 79.6872C55.7231 80.4572 54.5431 80.8472 53.3931 80.8472C52.9631 80.8472 52.5331 80.8072 52.1131 80.7272C51.6831 80.6472 51.2931 80.5372 50.9231 80.4072C49.8031 81.7272 48.5231 82.8772 47.0731 83.8672C45.6231 84.8572 44.1631 85.3472 42.6831 85.3472L42.6631 85.3372ZM50.4631 77.7372C51.2531 76.5872 51.9231 75.3472 52.4831 74.0372C53.0431 72.7272 53.3231 71.5072 53.3231 70.3872C53.3231 69.6272 53.2031 69.0772 52.9731 68.7372C52.7431 68.3872 52.3931 68.2172 51.9331 68.2172C51.3031 68.2172 50.6631 68.6572 50.0131 69.5472C49.3531 70.4372 49.0231 71.5572 49.0231 72.9072C49.0231 73.5972 49.1431 74.4372 49.3931 75.4272C49.6431 76.4172 49.9931 77.1872 50.4531 77.7472L50.4631 77.7372Z" fill="white"/>
<path d="M61.0331 85.3372C59.5531 85.3372 58.5431 84.8472 57.9931 83.8772C57.4531 82.9072 57.1831 81.8472 57.1831 80.6972C57.1831 79.6472 57.3431 78.5672 57.6731 77.4672C58.0031 76.3672 58.4531 75.3372 59.0331 74.3772C59.6131 73.4272 60.2531 72.6572 60.9631 72.0772C61.6731 71.4972 62.3831 71.2172 63.1131 71.2172C63.3431 71.2172 63.6131 71.2572 63.9331 71.3372C64.2431 71.4172 64.4631 71.5472 64.6031 71.7072C64.2031 72.1972 63.8031 72.8072 63.3931 73.5372C62.9831 74.2572 62.6031 75.0272 62.2531 75.8372C61.9031 76.6472 61.6331 77.4572 61.4431 78.2772C61.2431 79.0972 61.1431 79.8572 61.1431 80.5472C61.1431 81.2372 61.2631 81.7472 61.5131 82.1772C61.7631 82.6072 62.1931 82.8172 62.8231 82.8172C63.4531 82.8172 64.1931 82.4672 65.0731 81.7572C65.9431 81.0472 66.7731 80.2372 67.5631 79.3172C66.5131 78.3672 65.7531 77.3172 65.2931 76.1872C64.8331 75.0472 64.6031 73.6772 64.6031 72.0672C64.6031 71.3772 64.7731 70.5872 65.1231 69.6972C65.4731 68.8072 66.0331 68.0372 66.8031 67.3772C67.5731 66.7172 68.6231 66.3872 69.9431 66.3872C71.3531 66.3872 72.3531 66.7872 72.9331 67.5672C73.5131 68.3572 73.7931 69.2972 73.7931 70.3772C73.7931 71.5972 73.4731 72.9572 72.8331 74.4772C72.1931 75.9872 71.4231 77.4272 70.5331 78.7772C70.9331 78.9772 71.3931 79.0772 71.9131 79.0772C72.4031 79.0772 73.0031 78.9572 73.6931 78.7272C74.3831 78.4972 75.0631 78.1072 75.7131 77.5672C76.3731 77.0272 76.8931 76.2872 77.2931 75.3672L78.1831 76.0072C77.4631 77.6872 76.4931 78.9172 75.2931 79.6872C74.0931 80.4572 72.9131 80.8472 71.7631 80.8472C71.3331 80.8472 70.9031 80.8072 70.4831 80.7272C70.0531 80.6472 69.6631 80.5372 69.2931 80.4072C68.1731 81.7272 66.8931 82.8772 65.4431 83.8672C63.9931 84.8572 62.5331 85.3472 61.0531 85.3472L61.0331 85.3372ZM68.8331 77.7372C69.6231 76.5872 70.2931 75.3472 70.8531 74.0372C71.4131 72.7272 71.6931 71.5072 71.6931 70.3872C71.6931 69.6272 71.5731 69.0772 71.3431 68.7372C71.1131 68.3872 70.7631 68.2172 70.3031 68.2172C69.6731 68.2172 69.0331 68.6572 68.3831 69.5472C67.7231 70.4372 67.3931 71.5572 67.3931 72.9072C67.3931 73.5972 67.5131 74.4372 67.7631 75.4272C68.0131 76.4172 68.3631 77.1872 68.8231 77.7472L68.8331 77.7372Z" fill="white"/>
<path d="M109.613 81.1373C108.293 82.2573 107.073 82.8173 105.963 82.8173C105.243 82.8173 104.683 82.6473 104.313 82.2973C103.943 81.9573 103.843 81.4973 103.743 80.1973C103.623 78.6973 103.563 77.9473 103.633 77.2673C103.813 75.6073 104.373 74.4473 105.033 73.0673C105.603 71.8873 105.973 71.1173 106.693 70.1773C107.083 69.6773 107.763 68.8773 108.403 67.6073C108.703 67.0173 108.873 66.5473 108.693 66.1073C108.473 65.5873 107.873 65.3973 107.743 65.3573C107.303 65.2273 106.903 65.3173 106.513 65.4473C105.043 65.9373 104.043 66.9473 103.973 67.0273C103.183 67.8473 102.823 68.5773 102.133 70.0073C101.623 71.0573 101.043 72.2873 100.553 74.0373C100.303 74.9373 99.9231 76.3573 99.8531 78.2373C99.8231 79.0973 99.8731 79.6773 99.9731 80.8473C100.063 81.9273 100.173 82.4673 100.463 83.0573C100.623 83.3773 100.823 83.6773 101.053 83.9573C101.773 84.8173 102.863 85.2373 104.313 85.2373C106.353 85.2373 108.263 84.4273 110.043 82.8173C111.823 81.2073 113.283 78.9473 114.433 76.0573L113.693 75.2673C112.273 78.0673 110.913 80.0273 109.593 81.1373H109.613Z" fill="white"/>
<path d="M118.153 85.9273C116.043 85.9273 114.423 85.3573 113.293 84.2273C112.163 83.0973 111.593 81.6673 111.593 79.9573C111.593 78.5073 111.963 76.9673 112.703 75.3373C113.443 73.7073 114.443 72.1773 115.693 70.7473C116.943 69.3173 118.323 68.1573 119.843 67.2673C121.353 66.3773 122.873 65.9373 124.383 65.9373C125.243 65.9373 126.053 66.1573 126.823 66.6073C127.593 67.0473 127.983 67.9373 127.983 69.2473C127.983 70.5573 127.623 71.6673 126.893 72.7573C126.173 73.8473 125.193 74.8173 123.983 75.6673C122.773 76.5173 121.423 77.2173 119.963 77.7673C118.493 78.3073 117.023 78.6673 115.543 78.8273C115.513 78.9573 115.483 79.0973 115.473 79.2473C115.453 79.3973 115.453 79.6373 115.453 79.9673C115.453 80.1373 115.473 80.4173 115.523 80.8373C115.573 81.2573 115.713 81.6873 115.943 82.1473C116.173 82.6073 116.553 83.0073 117.083 83.3373C117.613 83.6673 118.333 83.8273 119.253 83.8273C120.633 83.8273 122.023 83.4373 123.423 82.6673C124.823 81.8973 126.143 80.8673 127.373 79.5773C128.603 78.2973 129.633 76.8573 130.463 75.2773L131.453 76.0673C130.563 78.0473 129.423 79.7673 128.023 81.2473C126.623 82.7273 125.073 83.8773 123.383 84.7073C121.693 85.5373 119.953 85.9373 118.173 85.9373L118.153 85.9273ZM116.083 76.9873C116.943 76.8873 117.893 76.5873 118.943 76.0973C119.993 75.6073 121.013 74.9773 121.983 74.2173C122.953 73.4573 123.753 72.6273 124.373 71.7273C125.003 70.8273 125.313 69.9073 125.313 68.9873C125.313 68.6273 125.243 68.3773 125.113 68.2473C124.983 68.1173 124.763 68.0473 124.473 68.0473C123.713 68.0473 122.923 68.3173 122.103 68.8573C121.283 69.3973 120.473 70.1073 119.683 70.9773C118.893 71.8473 118.183 72.8173 117.563 73.8673C116.933 74.9173 116.443 75.9573 116.083 76.9773V76.9873Z" fill="white"/>
<path d="M53.3331 47.4371C51.3531 48.7671 49.6731 49.1871 48.4731 49.3171C48.0331 49.3671 48.2231 49.3171 45.4831 49.3871C43.2631 49.4471 42.7831 49.4971 41.6131 49.4871C40.8631 49.4871 39.7731 49.4571 38.4331 49.3471C38.0831 50.4271 37.7031 51.6671 37.3031 53.0771C36.9031 54.4871 36.4931 56.0071 36.0931 57.6071C35.6931 59.2171 35.2831 60.8771 34.8631 62.5971C36.5831 62.5971 38.1331 62.6571 39.5331 62.7271C40.9231 62.7971 42.4531 62.8071 44.1431 62.7671C43.7831 63.3271 43.4031 63.7671 43.0131 64.1071C42.6231 64.4471 42.1031 64.7071 41.4431 64.8871C40.7631 65.0571 39.8531 65.2171 38.7031 65.3571C37.5431 65.5071 36.0331 65.6571 34.1531 65.8071C33.9631 66.8071 33.7431 67.8271 33.5231 68.8771C33.4031 69.3771 33.1831 70.3871 32.9331 71.5271C32.5131 73.4271 32.2831 74.3771 32.1531 74.9071C31.5231 77.4671 31.7931 75.9171 30.2831 80.5171C30.2031 80.7571 30.0432 81.2671 29.5732 81.6571C28.9432 82.1871 27.8632 82.4471 27.3232 82.0171C26.8532 81.6371 26.9431 80.6471 27.3031 78.6771C28.2431 73.5871 27.6831 75.4771 28.2631 72.9371C28.6731 71.1871 29.2632 68.9371 30.0732 66.3271C29.6732 66.2871 29.1031 66.2671 28.4331 66.2871C27.4731 66.3371 26.7431 66.4871 25.9931 66.6271C25.4931 66.7271 24.8431 66.8871 24.1031 67.0971C24.1331 66.6671 24.2531 65.9971 24.7631 65.5971C25.1031 65.3371 25.4631 65.3071 25.7331 65.2671C25.7331 65.2671 26.8831 65.1371 28.6631 64.5171C29.3031 64.2971 30.1832 63.8371 31.0732 62.7871C31.7732 60.3671 32.5031 58.0071 33.2531 55.6871C34.0031 53.3871 34.7732 51.2571 35.5732 49.3171C35.3632 49.3071 35.1331 49.2871 34.8731 49.2971C34.6131 49.2971 34.2531 49.3071 33.7931 49.3371C31.7931 49.4671 30.2531 49.7971 29.1831 50.2871C28.1031 50.7871 27.3931 51.4471 27.0331 52.2571C26.6731 53.0771 26.5331 54.0671 26.6131 55.2171C26.6631 56.0371 26.8031 56.7671 27.0131 57.4271C27.2231 58.0971 27.5131 58.8071 27.9031 59.5771C27.5031 59.5271 26.5031 59.3371 25.6831 58.5171C25.0031 57.8371 24.7831 57.0571 24.6631 56.6371C24.4631 55.9171 24.4731 55.3471 24.4831 54.9271C24.5131 53.6771 24.8731 52.7571 25.1331 52.1071C25.4331 51.3471 25.8231 50.3771 26.6531 49.4571C26.8931 49.1871 27.8531 48.1771 29.8431 47.4571C31.3031 46.9371 32.1831 47.0571 36.7831 47.0271C40.3631 47.0071 40.2231 47.1371 42.3131 47.0271C43.9331 46.9471 45.0331 46.8271 47.2431 46.8171C48.6131 46.8171 49.4531 46.8571 50.2231 46.9271C51.5031 47.0371 52.5631 47.2271 53.3531 47.3971L53.3331 47.4371Z" fill="white"/>
<path d="M31.6531 76.4672C29.8431 80.5072 28.3031 85.3072 24.6231 88.3772C21.8331 90.5172 18.6231 91.5072 15.0631 90.9772C7.37308 89.0672 9.84309 78.7372 12.7631 73.7472C15.1231 69.7372 19.2331 66.9272 23.5731 65.6072C27.3431 64.3072 33.4731 63.7172 32.4231 69.6172C31.9931 71.8272 31.0631 73.8672 30.2231 75.9072L31.6431 76.4672H31.6531ZM29.2431 75.5172C30.0831 72.7172 33.6731 65.8672 28.1531 66.3572C21.3831 67.1872 14.9431 71.8872 13.3831 78.7072C12.0531 83.6572 12.3631 89.7972 19.1731 87.4272C24.1531 86.1072 25.7431 80.3072 27.8231 74.9472L29.2431 75.5072V75.5172Z" fill="white"/>
<path d="M22.953 103.907C23.343 100.547 23.863 97.0672 24.483 93.8072C24.483 93.9072 24.803 94.2372 25.013 94.1872C25.033 94.1872 25.053 94.1872 25.073 94.1872C25.093 94.1772 25.023 94.2172 24.993 94.2172L24.813 94.3172C23.623 95.0772 20.843 97.9572 19.743 98.9572L19.233 98.5372C20.643 96.3972 22.013 94.2072 24.193 92.6872C24.583 92.4772 25.073 92.3472 25.533 92.5572C25.913 92.7072 26.133 93.1272 26.183 93.3272C26.293 93.7772 26.243 94.0072 26.233 94.2572C25.963 96.0472 25.483 97.7572 25.023 99.5072C24.583 101.027 24.203 102.557 23.743 104.067L22.963 103.897L22.953 103.907Z" fill="white"/>
<path d="M77.4231 85.3873C75.7531 85.3873 74.9231 84.5673 74.9231 82.9173C74.9231 79.9073 76.6131 76.4473 80.0031 72.5173C81.7731 70.4373 83.5231 68.8673 85.2431 67.8273C86.9631 66.7873 88.6531 66.3373 90.3231 66.4773C91.2331 63.6673 92.1731 61.0473 93.1431 58.6273C94.1131 56.2073 95.1631 53.9473 96.2931 51.8673C99.9531 45.0773 103.523 41.6873 107.023 41.6873C109.283 41.6873 110.413 42.8473 110.413 45.1773C110.413 50.2673 103.983 59.6273 91.1431 73.2473C90.8231 74.8973 90.6631 76.4973 90.6631 78.0473C90.6631 81.7273 91.5231 83.5673 93.2431 83.5673C94.3731 83.5673 96.0131 82.4073 98.1631 80.0773C100.313 77.7073 101.493 76.5173 101.713 76.5173C101.873 76.5173 101.953 76.6373 101.953 76.8773C101.953 77.1673 101.813 77.5073 101.553 77.8973C98.2231 82.7973 94.9431 85.2373 91.7131 85.2373C88.9131 85.2373 87.5231 83.3273 87.5231 79.4973C87.5231 78.2873 87.6831 76.8773 88.0031 75.2773C83.8131 82.0173 80.2831 85.3873 77.4331 85.3873H77.4231ZM78.7931 83.1373C80.0331 83.1373 81.5631 82.0473 83.3931 79.8673C83.7731 79.4773 84.2431 78.8673 84.8031 78.0173C85.3631 77.1673 86.0531 76.1173 86.8631 74.8573C87.7731 73.4473 88.4331 72.3373 88.8431 71.5073C89.2431 70.6873 89.4431 70.1473 89.4431 69.9073C89.4431 69.8073 89.4331 69.7573 89.4031 69.7573C89.3731 69.7573 89.3331 69.7373 89.2831 69.6873C89.2331 69.5473 88.9331 69.4673 88.3931 69.4673C86.2431 69.4673 83.9031 70.9673 81.3731 73.9773C78.8431 76.9873 77.5831 79.5073 77.5831 81.5373C77.5831 82.6073 77.9831 83.1373 78.7931 83.1373ZM91.6131 71.1373C102.043 58.3873 107.263 49.7873 107.263 45.3273C107.263 44.2573 106.783 43.7273 105.813 43.7273C103.123 43.7273 100.143 47.6773 96.8631 55.5773C94.6531 60.8073 92.9131 65.9973 91.6231 71.1373H91.6131Z" fill="white"/>
<path d="M31.4031 113.397C29.2231 113.397 28.1331 111.387 28.1331 107.377C28.1331 105.597 28.3331 103.867 28.7331 102.197C29.1331 100.527 29.6031 98.9871 30.1431 97.5971C28.8031 99.3271 27.3931 101.457 25.9231 103.987C24.4531 106.527 23.0031 109.357 21.5931 112.467C21.3631 112.967 21.1931 113.217 21.0731 113.217C20.7331 113.217 20.5531 112.717 20.5531 111.717C20.5531 111.497 20.5931 111.267 20.6631 111.047C21.0831 109.547 21.5031 107.797 21.9231 105.827C22.3431 103.847 22.7631 101.527 23.1831 98.8471C23.2631 98.2871 23.3331 97.7371 23.4131 97.1771C23.4931 96.6171 23.6031 95.8971 23.7531 95.0071C23.8331 94.6771 24.0931 94.2871 24.5531 93.8371C24.9331 93.4471 25.3231 93.2471 25.7031 93.2471C25.9731 93.2471 26.1031 93.4171 26.1031 93.7471C26.1031 94.0271 25.8731 95.2271 25.4131 97.3371C24.9531 99.4571 24.2831 102.497 23.4031 106.447C23.6331 105.997 24.1131 105.177 24.8331 103.977C25.5631 102.777 26.5131 101.237 27.7031 99.3371L31.2631 93.6571C31.5331 93.2671 31.8331 93.0671 32.1831 93.0671C33.0631 93.0671 33.5031 93.7071 33.5031 94.9871C33.5031 95.2671 33.4231 95.5971 33.2731 95.9871C31.1331 101.117 30.0631 105.177 30.0631 108.187C30.0631 110.307 30.7531 111.367 32.1331 111.367C33.1231 111.367 34.2731 110.557 35.5731 108.947C36.1131 108.337 36.5831 107.647 36.9831 106.897C37.3831 106.147 37.8131 105.317 38.2731 104.427C39.0731 102.817 39.5331 102.007 39.6531 102.007C39.7731 102.007 39.8231 102.177 39.8231 102.507C39.8231 102.837 39.7131 103.317 39.4831 103.927C36.8831 110.227 34.1831 113.367 31.3931 113.367L31.4031 113.397Z" fill="white"/>
<path d="M39.5931 113.637C38.6331 113.637 38.1531 113.077 38.1531 111.947C38.1531 110.387 38.8431 108.547 40.2131 106.437C40.1831 106.297 40.1631 106.147 40.1531 105.987C40.1431 105.827 40.1331 105.677 40.1331 105.537C40.1331 104.547 40.4631 103.587 41.1231 102.657C41.7831 101.727 42.5931 101.257 43.5531 101.257C44.3731 101.257 44.9331 101.547 45.2231 102.117C45.5131 102.697 45.6531 103.337 45.6531 104.047C45.6531 104.647 45.5831 105.227 45.4431 105.777C45.3031 106.357 45.1031 106.997 44.8231 107.707C44.5531 108.417 44.2031 109.177 43.7931 109.967C44.2031 110.217 44.6731 110.337 45.1931 110.337C45.6631 110.337 46.0931 110.277 46.5131 110.157C46.9231 110.037 47.3031 109.797 47.6631 109.437C48.0231 109.077 48.3031 108.767 48.5031 108.487C48.7031 108.207 48.7931 108.087 48.7731 108.117C48.8231 108.067 48.8831 108.037 48.9331 108.037C49.0431 108.037 49.1331 108.107 49.2031 108.237C49.2731 108.377 49.2531 108.507 49.1431 108.647C48.7031 109.277 48.1331 109.837 47.4331 110.317C46.7331 110.797 45.9731 111.037 45.1531 111.037C44.5231 111.037 43.9731 110.897 43.5031 110.627C42.2431 112.627 40.9331 113.627 39.5931 113.627V113.637ZM40.2531 112.647C40.6131 112.647 41.1131 112.317 41.7731 111.657C42.0431 111.387 42.2831 111.127 42.4731 110.877C42.6631 110.627 42.8131 110.397 42.9231 110.177C41.9931 109.547 41.3031 108.847 40.8631 108.077C40.0431 109.807 39.6331 111.057 39.6331 111.817C39.6331 112.367 39.8431 112.637 40.2531 112.637V112.647ZM43.2531 109.607C43.6131 108.727 43.8831 107.977 44.0731 107.347C44.2631 106.717 44.3631 106.127 44.3631 105.577V105.247C44.3631 104.507 44.2431 103.817 43.9931 103.167C43.7431 102.527 43.3931 102.197 42.9231 102.197C42.2931 102.197 41.8031 102.587 41.4431 103.347C41.1931 103.867 41.0731 104.447 41.0731 105.077V105.327C41.5131 104.807 41.9531 104.547 42.3931 104.547C42.8031 104.547 43.1031 104.687 43.3031 104.957C43.3831 105.067 43.4231 105.157 43.4231 105.247C43.4231 105.407 43.2631 105.497 42.9331 105.497C42.4431 105.497 41.9131 106.017 41.3731 107.057C41.7531 108.127 42.3831 108.977 43.2631 109.607H43.2531Z" fill="white"/>
<path d="M51.403 113.677C49.923 113.677 49.003 112.787 48.643 111.007C48.613 110.757 48.583 110.517 48.543 110.267C48.503 110.017 48.483 109.777 48.483 109.527C48.483 108.297 48.713 107.027 49.163 105.737C49.613 104.447 50.173 103.187 50.833 101.957C51.493 100.727 52.093 99.5872 52.643 98.5372C53.163 97.5772 53.743 96.6272 54.393 95.6772C55.033 94.7272 55.673 93.8572 56.303 93.0672C56.933 92.2672 57.473 91.6272 57.903 91.1372C58.613 90.3372 59.303 89.7772 59.963 89.4272C60.623 89.0772 61.213 88.9172 61.733 88.9172C62.093 88.9172 62.403 89.0972 62.683 89.4472C62.983 89.8272 63.133 90.2072 63.133 90.5572C63.133 92.4472 61.363 95.6172 57.823 100.057C56.423 101.817 55.083 103.397 53.793 104.807C52.503 106.217 51.253 107.487 50.053 108.617C50.023 108.837 50.003 109.067 49.993 109.297C49.983 109.527 49.973 109.757 49.973 109.977C49.973 110.907 50.123 111.617 50.423 112.097C50.723 112.577 51.263 112.817 52.023 112.817C52.783 112.817 53.693 112.377 54.713 111.477C55.743 110.587 56.803 109.327 57.903 107.717C57.983 107.577 58.083 107.497 58.193 107.467C58.353 107.467 58.443 107.567 58.443 107.757C58.443 107.897 58.413 108.007 58.363 108.087C57.983 108.747 57.543 109.377 57.063 109.977C56.583 110.577 56.043 111.157 55.443 111.707C54.753 112.307 54.083 112.787 53.403 113.147C52.723 113.507 52.063 113.677 51.403 113.677ZM50.133 107.707C50.903 107.047 51.813 106.097 52.873 104.847C53.933 103.597 55.043 102.137 56.223 100.467C58.883 96.7972 60.473 94.1272 60.993 92.4872C61.243 91.6872 61.363 91.1072 61.363 90.7172C61.363 90.1972 61.183 89.9372 60.823 89.9372C60.023 89.9372 59.053 90.7072 57.903 92.2372C57.243 93.1172 56.473 94.2372 55.603 95.5872C54.733 96.9372 53.873 98.4172 53.053 100.007C52.093 101.847 51.413 103.367 51.013 104.577C50.613 105.787 50.323 106.827 50.133 107.707Z" fill="white"/>
<path d="M61.4931 113.347C60.6431 113.347 60.2131 112.877 60.2131 111.947C60.2131 110.547 60.9031 108.837 62.2731 106.807C63.6131 104.807 64.9431 103.567 66.2631 103.107C66.5131 103.027 66.7431 102.957 66.9631 102.897C67.1831 102.847 67.4031 102.817 67.6231 102.817C68.6131 102.817 69.3231 103.157 69.7631 103.847C69.8431 103.957 69.8831 104.047 69.8831 104.137C69.8831 104.187 69.7831 104.237 69.5931 104.257C69.4331 104.287 69.2931 104.377 69.1831 104.547C68.5231 105.617 68.1931 107.217 68.1931 109.357C68.1931 111.337 68.6231 112.317 69.4731 112.317C70.0531 112.317 70.8831 111.717 71.9831 110.507C72.1431 110.347 72.3831 110.057 72.6831 109.647C72.9831 109.237 73.2831 108.817 73.5931 108.397C73.8931 107.977 74.1031 107.687 74.2131 107.557C74.2931 107.477 74.3631 107.437 74.4231 107.437C74.5331 107.437 74.5831 107.537 74.5831 107.727C74.5831 107.867 74.5031 108.057 74.3331 108.307C73.7331 109.267 73.0431 110.197 72.2731 111.107C71.5031 112.007 70.8431 112.597 70.3031 112.877C69.8131 113.127 69.3131 113.247 68.8231 113.247C67.1531 113.247 66.3131 112.067 66.3131 109.707C66.3131 109.517 66.3131 109.317 66.3331 109.107C66.3431 108.897 66.3631 108.687 66.3931 108.467C64.5231 111.737 62.8931 113.367 61.4931 113.367V113.347ZM62.1931 112.117C62.4931 112.117 62.8531 111.947 63.2631 111.607C63.6731 111.267 64.1031 110.807 64.5431 110.227C65.2031 109.347 65.8231 108.417 66.3931 107.427C66.9731 106.437 67.4731 105.367 67.9131 104.217C67.8331 104.187 67.7031 104.177 67.5431 104.177C66.4231 104.177 65.2831 104.877 64.1331 106.277C62.4631 108.277 61.6231 109.937 61.6231 111.257C61.6231 111.837 61.8131 112.127 62.2031 112.127L62.1931 112.117Z" fill="white"/>
<path d="M86.5531 114.727C84.5531 114.727 82.9331 114.317 81.7031 113.497C81.1131 113.107 80.6331 112.637 80.2831 112.087C80.1431 111.867 79.5731 110.947 79.5231 109.217C79.4431 106.937 80.3131 105.177 80.9831 103.857C81.7331 102.377 82.5231 101.377 83.2431 100.497C84.0431 99.5073 85.2331 98.1873 86.8831 96.8173C87.8931 95.9873 94.5331 90.4873 101.653 90.5873C104.783 90.6273 105.613 91.7273 105.813 92.0573C105.983 92.3373 106.293 92.9873 106.293 93.7973C106.293 94.1373 106.243 94.8773 105.993 94.9373C105.723 94.9873 105.323 94.2273 105.143 93.7173C104.963 93.2373 104.993 93.0273 104.913 92.8073C104.533 91.7473 102.013 91.6973 101.723 91.6973C97.1831 91.6573 92.3031 94.7373 92.3031 94.7373C85.8631 98.7973 82.4331 103.867 81.8231 106.817C81.6931 107.457 81.3731 109.007 82.0731 110.617C82.2031 110.927 82.5231 111.667 83.2431 112.267C84.1231 112.977 85.3431 113.337 86.9031 113.337C91.8631 113.337 96.6931 111.357 101.383 107.417C101.493 107.307 101.603 107.257 101.713 107.257H101.983C101.983 107.257 102.003 107.357 102.003 107.547C102.003 107.687 101.953 107.807 101.843 107.917C100.773 108.907 99.6531 109.777 98.4731 110.527C97.2931 111.287 96.0431 111.977 94.7331 112.607C91.7731 114.027 89.0431 114.747 86.5431 114.747L86.5531 114.727Z" fill="white"/>
<path d="M110.293 113.247C108.813 113.247 108.073 112.357 108.073 110.577C108.073 109.977 108.193 109.257 108.423 108.417C108.653 107.577 108.953 106.807 109.303 106.097C108.923 106.457 108.443 106.917 107.863 107.497C107.283 108.077 106.723 108.707 106.173 109.387C105.103 110.707 104.283 111.837 103.703 112.797C103.403 113.017 103.043 113.127 102.633 113.127C101.893 113.127 101.523 112.947 101.523 112.597C101.523 112.297 101.673 111.737 101.973 110.907C102.273 110.087 102.713 109.017 103.293 107.697C104.173 105.697 105.093 103.767 106.073 101.917C107.053 100.067 108.083 98.2872 109.183 96.5872C112.503 91.2972 115.233 88.6472 117.373 88.6472C118.553 88.6472 119.143 89.3172 119.143 90.6672C119.143 92.4272 117.713 94.8772 114.863 98.0272C114.263 98.6872 113.443 99.5272 112.413 100.557C111.383 101.587 110.103 102.797 108.563 104.197C108.203 104.527 107.693 104.977 107.023 105.557C106.353 106.137 105.673 106.767 104.983 107.447C104.903 107.557 104.793 107.777 104.653 108.107C104.513 108.437 104.333 108.867 104.123 109.387C103.683 110.457 103.463 111.127 103.463 111.407C103.493 111.437 103.503 111.477 103.503 111.527C103.803 111.147 104.253 110.627 104.843 109.987C105.433 109.347 106.073 108.637 106.753 107.867C107.383 107.177 107.983 106.537 108.563 105.937C109.143 105.337 109.593 104.927 109.923 104.707C110.173 104.547 110.393 104.457 110.583 104.457C111.133 104.457 111.403 104.747 111.403 105.317L110.413 107.457C109.753 108.887 109.423 110.007 109.423 110.827C109.423 111.787 109.893 112.267 110.823 112.267C111.593 112.267 112.413 111.867 113.293 111.077C113.923 110.527 114.573 109.787 115.223 108.857L116.123 107.587C116.173 107.507 116.243 107.467 116.333 107.467C116.423 107.467 116.493 107.507 116.563 107.587C116.633 107.667 116.643 107.767 116.583 107.877C116.533 108.037 116.403 108.257 116.213 108.537C115.283 109.907 114.323 111.037 113.333 111.927C112.343 112.817 111.333 113.267 110.293 113.267V113.247ZM105.483 106.007C106.443 105.297 107.563 104.347 108.833 103.167C110.103 101.987 111.463 100.557 112.883 98.8872C116.093 95.1872 117.693 92.5472 117.693 90.9872C117.693 90.0772 117.393 89.6272 116.783 89.6272C115.303 89.6272 113.203 91.9072 110.493 96.4572C109.563 98.0172 108.653 99.6272 107.753 101.267C106.853 102.907 106.103 104.487 105.473 105.997L105.483 106.007Z" fill="white"/>
<path d="M118.273 113.247C117.373 113.247 116.573 112.987 115.883 112.467C115.193 111.947 114.853 111.067 114.853 109.837C114.853 109.097 115.013 108.297 115.343 107.427C115.673 106.567 116.113 105.747 116.683 104.977C117.243 104.207 117.873 103.577 118.553 103.087C119.243 102.597 119.933 102.347 120.653 102.347C120.923 102.347 121.163 102.447 121.373 102.637C121.583 102.827 121.683 103.117 121.683 103.497C121.683 104.347 121.043 105.377 119.753 106.587C119.233 107.077 118.693 107.517 118.123 107.907C117.563 108.287 117.043 108.567 116.583 108.727C116.473 109.087 116.423 109.497 116.423 109.957C116.423 110.587 116.573 111.167 116.873 111.687C117.173 112.207 117.653 112.467 118.313 112.467C119.133 112.467 119.893 112.237 120.573 111.767C121.263 111.297 121.893 110.737 122.463 110.057C123.033 109.377 123.543 108.757 123.983 108.187C124.173 107.917 124.363 107.777 124.563 107.777C124.673 107.777 124.723 107.827 124.723 107.937C124.723 107.997 124.713 108.057 124.683 108.127C124.653 108.197 124.623 108.257 124.603 108.307C124.133 108.967 123.603 109.677 123.003 110.447C122.403 111.217 121.713 111.877 120.943 112.427C120.173 112.977 119.283 113.247 118.273 113.247ZM116.873 107.897C117.583 107.597 118.323 107.057 119.093 106.297C120.003 105.417 120.453 104.647 120.453 103.997C120.453 103.667 120.293 103.507 119.963 103.507C119.523 103.507 118.923 104.137 118.153 105.397C117.463 106.437 117.043 107.277 116.873 107.907V107.897Z" fill="white"/>
<path d="M121.813 127.647C120.803 127.647 120.123 127.247 119.793 126.437C119.463 125.627 119.303 124.677 119.303 123.577C119.303 122.617 119.473 121.447 119.813 120.077C120.153 118.707 120.593 117.247 121.133 115.697C121.673 114.147 122.253 112.607 122.903 111.087C123.543 109.567 124.173 108.177 124.773 106.907C125.463 105.487 126.053 104.267 126.563 103.267C127.073 102.267 127.533 101.377 127.963 100.617C128.393 99.8471 128.803 99.1071 129.193 98.3771C129.593 97.6471 130.023 96.8471 130.493 95.9671C131.043 94.9771 131.533 94.1371 131.953 93.4371C132.383 92.7371 132.683 92.2771 132.883 92.0571C133.023 91.9171 133.233 91.7671 133.523 91.5871C133.813 91.4071 134.083 91.3171 134.323 91.3171C134.703 91.3171 134.903 91.5471 134.903 92.0171C134.903 92.2071 134.723 92.6171 134.363 93.2471C134.003 93.8771 133.543 94.6271 132.963 95.4871C132.383 96.3471 131.783 97.2471 131.153 98.1771C130.353 99.3571 129.543 100.627 128.703 102.007C127.863 103.377 127.053 104.787 126.253 106.247C126.473 106.087 126.673 105.997 126.873 105.997C127.803 105.997 128.563 107.477 129.133 110.437C129.433 110.737 129.753 110.917 130.083 110.977C130.413 111.027 130.703 111.057 130.943 111.057C131.653 111.057 132.433 110.637 133.293 109.787C133.733 109.347 134.103 108.907 134.403 108.467C134.703 108.027 134.933 107.717 135.103 107.517C135.183 107.437 135.263 107.397 135.353 107.397C135.543 107.397 135.643 107.477 135.643 107.647C135.643 107.787 135.543 107.987 135.353 108.267C134.613 109.307 133.883 110.157 133.173 110.797C132.463 111.447 131.733 111.777 130.993 111.807C130.583 111.807 130.203 111.757 129.863 111.667C129.523 111.567 129.293 111.457 129.183 111.317C129.433 112.907 129.453 114.447 129.243 115.947C129.033 117.447 128.643 118.987 128.073 120.577C127.633 121.757 127.123 122.887 126.533 123.977C125.943 125.057 125.263 125.947 124.493 126.627C123.723 127.317 122.833 127.657 121.823 127.657L121.813 127.647ZM122.393 126.537C123.103 126.537 123.773 126.207 124.393 125.547C125.013 124.887 125.563 124.097 126.063 123.157C126.553 122.227 126.973 121.337 127.293 120.487C127.893 118.927 128.283 117.327 128.463 115.697C128.643 114.067 128.563 112.477 128.233 110.947C127.603 110.477 127.043 109.887 126.563 109.157C126.083 108.427 125.843 107.727 125.843 107.037C124.223 110.687 122.953 113.967 122.013 116.867C121.083 119.777 120.613 122.187 120.613 124.107C120.613 125.037 120.803 125.677 121.173 126.017C121.543 126.357 121.943 126.527 122.383 126.527L122.393 126.537Z" fill="white"/>
<path d="M118.603 123.737C97.7131 142.007 68.0431 146.447 42.9631 135.077C18.7131 124.087 2.20309 99.8772 1.75309 72.5872C1.32309 46.0072 16.2131 21.7172 39.1131 9.69718C70.8431 -6.96282 101.793 8.38718 104.643 9.86718" stroke="white" stroke-width="2.21" stroke-miterlimit="10"/>
<path d="M87.1931 32.6771C92.8816 32.6771 97.4931 28.0657 97.4931 22.3771C97.4931 16.6886 92.8816 12.0771 87.1931 12.0771C81.5045 12.0771 76.8931 16.6886 76.8931 22.3771C76.8931 28.0657 81.5045 32.6771 87.1931 32.6771Z" fill="white"/>
<path d="M147.363 72.5872C147.363 72.5872 128.643 33.5272 118.253 24.4972C118.423 24.4972 117.743 24.4972 117.743 24.4972V25.5172L118.423 25.6472L118.973 26.4172L118.933 30.6772L117.743 30.5872V31.6072L118.933 31.5672L118.893 34.5872L120.083 34.6272V37.2672L121.143 37.3072L121.103 38.6672L116.823 38.6272V40.2272H119.183L119.123 41.9472H117.913L118.043 47.6872C118.043 47.6872 108.783 46.0272 108.723 36.5772C108.853 36.7072 110.893 36.5772 110.893 36.5772L110.833 34.5972L108.723 34.5372V29.4272L110.383 29.4872V25.4672H109.423L109.483 27.4472L107.883 27.3872V28.5972L106.413 28.6572V25.5972L104.943 25.7272V31.3472L102.903 31.2872V27.5172L100.923 27.4572V29.5672H101.883V32.9172H102.973V34.4772H101.603L101.633 35.8472L100.293 35.8772V37.5072L98.5731 37.6072V34.7972L96.5631 34.6672V40.6372L95.6831 40.5872L95.8131 41.6772L94.8531 41.6372V42.5972L93.7231 42.6372C93.7231 42.6372 85.1531 20.9372 114.933 21.2772C114.933 21.1872 101.743 13.5372 88.8931 29.4472C88.9831 29.0172 90.0831 6.80719 114.683 20.1672C114.683 19.9072 114.773 9.86719 114.773 9.86719L119.283 12.5872L116.643 18.5472L122.093 15.4872L130.603 24.1672C130.603 24.1672 120.053 22.8072 116.393 22.3772C116.483 22.3772 142.183 43.3172 146.863 56.7572C147.123 56.7572 147.373 72.5872 147.373 72.5872H147.363Z" fill="white"/>
<path d="M46.1731 24.5871C46.1731 24.5871 48.6031 21.0771 52.1131 24.5871C52.2431 24.3971 53.7131 24.5871 53.7131 24.5871C53.7131 24.5871 56.7131 21.2071 59.0731 24.5871" stroke="white" stroke-miterlimit="10"/>
<path d="M56.973 32.6772C56.973 32.6772 59.403 29.1672 62.913 32.6772C63.043 32.4872 64.513 32.6772 64.513 32.6772C64.513 32.6772 67.513 29.2972 69.873 32.6772" stroke="white" stroke-miterlimit="10"/>
<path d="M41.343 36.4872C41.343 36.4872 43.773 32.9772 47.283 36.4872C47.413 36.2972 48.883 36.4872 48.883 36.4872C48.883 36.4872 51.883 33.1072 54.243 36.4872" stroke="white" stroke-miterlimit="10"/>
<path d="M141.753 73.8672C142.143 77.1972 142.323 82.1072 141.073 87.8272C140.093 92.3272 138.533 95.9472 137.163 98.5472" stroke="white" stroke-width="2.21" stroke-miterlimit="10"/>
</svg>
