<svg width="200" height="69" viewBox="0 0 200 69" fill="none" xmlns="http://www.w3.org/2000/svg">
<path d="M85.1103 35.5203C85.1103 44.91 77.7647 51.8291 68.75 51.8291C59.7353 51.8291 52.3897 44.91 52.3897 35.5203C52.3897 26.0644 59.7353 19.2114 68.75 19.2114C77.7647 19.2114 85.1103 26.0644 85.1103 35.5203ZM77.9485 35.5203C77.9485 29.6526 73.6912 25.6379 68.75 25.6379C63.8088 25.6379 59.5515 29.6526 59.5515 35.5203C59.5515 41.3291 63.8088 45.4026 68.75 45.4026C73.6912 45.4026 77.9485 41.3217 77.9485 35.5203Z" fill="white"/>
<path d="M120.404 35.5203C120.404 44.91 113.059 51.8291 104.044 51.8291C95.0294 51.8291 87.6838 44.91 87.6838 35.5203C87.6838 26.0717 95.0294 19.2114 104.044 19.2114C113.059 19.2114 120.404 26.0644 120.404 35.5203ZM113.243 35.5203C113.243 29.6526 108.985 25.6379 104.044 25.6379C99.103 25.6379 94.8456 29.6526 94.8456 35.5203C94.8456 41.3291 99.103 45.4026 104.044 45.4026C108.985 45.4026 113.243 41.3217 113.243 35.5203Z" fill="white"/>
<path d="M154.228 20.1967V49.4761C154.228 61.5203 147.125 66.4394 138.728 66.4394C130.824 66.4394 126.066 61.1526 124.272 56.8291L130.507 54.2335C131.618 56.8879 134.338 60.0202 138.721 60.0202C144.096 60.0202 147.426 56.7041 147.426 50.4614V48.1158H147.176C145.574 50.0938 142.485 51.8217 138.588 51.8217C130.434 51.8217 122.963 44.7188 122.963 35.5791C122.963 26.3732 130.434 19.2114 138.588 19.2114C142.478 19.2114 145.566 20.9394 147.176 22.8585H147.426V20.2041H154.228V20.1967ZM147.934 35.5791C147.934 29.8364 144.103 25.6379 139.228 25.6379C134.287 25.6379 130.147 29.8364 130.147 35.5791C130.147 41.2629 134.287 45.4026 139.228 45.4026C144.103 45.4026 147.934 41.2629 147.934 35.5791Z" fill="white"/>
<path d="M165.441 3.03491V50.829H158.456V3.03491H165.441Z" fill="white"/>
<path d="M192.662 40.8879L198.221 44.5938C196.426 47.2482 192.103 51.8218 184.632 51.8218C175.368 51.8218 168.449 44.66 168.449 35.5129C168.449 25.8144 175.426 19.2041 183.831 19.2041C192.294 19.2041 196.434 25.9394 197.787 29.5791L198.529 31.432L176.728 40.4615C178.397 43.7335 180.993 45.4026 184.632 45.4026C188.279 45.4026 190.809 43.6085 192.662 40.8879ZM175.551 35.0203L190.125 28.9688C189.324 26.932 186.912 25.5129 184.074 25.5129C180.434 25.5129 175.368 28.7262 175.551 35.0203Z" fill="white"/>
<path d="M25.9485 31.2775V24.3584H49.2647C49.4926 25.5643 49.6103 26.9907 49.6103 28.5349C49.6103 33.726 48.1912 40.1451 43.6176 44.7187C39.1691 49.351 33.4853 51.8216 25.9559 51.8216C12 51.8216 0.264709 40.454 0.264709 26.4981C0.264709 12.5422 12 1.17456 25.9559 1.17456C33.6765 1.17456 39.1765 4.20397 43.3088 8.1525L38.4265 13.0349C35.4632 10.2554 31.4485 8.09368 25.9485 8.09368C15.7574 8.09368 7.78677 16.3069 7.78677 26.4981C7.78677 36.6893 15.7574 44.9025 25.9485 44.9025C32.5588 44.9025 36.3235 42.2481 38.7353 39.8363C40.6912 37.8804 41.9779 35.0863 42.4853 31.2701L25.9485 31.2775Z" fill="white"/>
</svg>
