<svg width="177" height="118" viewBox="0 0 177 118" fill="none" xmlns="http://www.w3.org/2000/svg">
<path d="M166.954 38.7869C159.506 2.42028 88.897 0.115129 43.3863 27.8213V30.8841C88.8486 7.50613 153.337 7.65725 159.208 41.1485C161.177 52.2309 154.934 63.7769 143.781 70.4263V79.117C157.193 74.1984 170.952 58.282 166.954 38.7869ZM84.2262 102.441C52.8326 105.336 20.103 100.772 15.5149 76.2376C13.2702 64.1396 18.7893 51.3101 26.0997 43.3368V39.0771C12.9317 50.623 5.79255 65.2418 9.90918 82.5022C15.1603 104.651 43.2432 117.19 86.1163 113.027C103.087 111.381 125.284 105.918 140.727 97.4414V85.3998C126.708 93.7499 103.534 100.653 84.2262 102.441Z" fill="white"/>
<path d="M138.184 33.4976H129.952V70.1604C129.952 74.4584 132.028 78.1962 138.184 78.7946V33.4976ZM40.1502 46.8852H31.9008L31.8928 70.8374C31.8928 75.1495 33.9803 78.8813 40.1502 79.4717V46.8852ZM31.9008 42.4159H40.126V34.6078H31.9008V42.4159ZM89.4551 79.0949C82.7956 79.0949 79.9786 74.4584 79.9786 69.8924V38.0857H88.1333V46.8771H94.279V53.4742H88.1333V69.3886C88.1333 71.2545 89.0138 72.2862 90.9583 72.2862H94.279V79.0949H89.4551ZM111.106 53.0873C108.313 53.0873 106.174 54.5281 105.261 56.4645C104.733 57.6291 104.535 58.5419 104.481 59.9746H117.05C116.893 56.4645 115.303 53.0873 111.106 53.0873ZM104.481 65.54C104.481 69.711 107.086 72.79 111.707 72.79C115.328 72.79 117.113 71.7825 119.206 69.711L124.252 74.5208C121.018 77.7166 117.625 79.653 111.65 79.653C103.836 79.653 96.3565 75.3953 96.3565 62.9669C96.3565 52.3398 102.899 46.3351 111.469 46.3351C120.184 46.3351 125.191 53.3634 125.191 62.5961V65.54H104.481ZM62.3151 53.4742C64.709 53.4742 65.7084 54.655 65.7084 56.5753V79.1432H73.8691V56.5249C73.8691 51.9448 71.431 46.8932 64.2576 46.8932L47.4002 46.8832V79.1392H55.5609V53.4742H62.3151Z" fill="white"/>
</svg>
