<svg width="135" height="134" viewBox="0 0 135 134" fill="none" xmlns="http://www.w3.org/2000/svg">
<g clip-path="url(#clip0_132_570)">
<path d="M88.7185 26.7215C89.0985 23.7815 91.0184 23.1515 91.0184 23.1515C91.0184 23.1515 91.0184 21.1115 90.7584 21.1115C97.2684 20.0915 102.118 24.8115 101.988 24.8115C102.688 25.8415 105.728 30.5415 104.498 36.4315C103.928 39.1615 102.648 41.1415 101.738 42.3015C101.648 41.7615 101.108 38.6615 98.2885 36.8515C96.7585 35.8715 95.2385 35.7015 94.4585 35.6715C92.0985 36.6415 89.6984 37.5915 87.2384 38.5315C86.4984 38.8115 85.7584 39.0915 85.0184 39.3715C59.3784 55.9715 59.9984 97.0715 59.7384 96.5615C82.9684 107.542 110.548 70.7715 110.548 70.7715C110.548 70.7715 110.808 15.3715 110.548 15.3715C68.6784 -14.4985 29.0984 15.3715 29.0984 15.3715V25.8415C29.0984 25.8415 63.3085 5.1615 87.8185 19.5815" stroke="white" stroke-width="3" stroke-miterlimit="10"/>
<path d="M29.0985 38.3415L28.4585 33.1115C28.4585 33.1115 45.3085 23.0215 54.4985 22.5115C54.6285 22.7715 32.9285 32.6015 29.0985 38.3415Z" fill="white"/>
<path d="M29.0984 54.2916V45.7416C29.0984 45.7416 47.0984 30.8016 55.2684 31.3116C55.5284 31.5716 31.3984 47.0116 29.0984 54.2916Z" fill="white"/>
<path d="M32.1685 74.4615C32.1685 74.4615 37.9085 54.2915 57.9585 38.3315C58.2185 38.3315 34.7285 51.8615 29.1085 66.4215C29.4885 66.5515 32.1685 74.4615 32.1685 74.4615Z" fill="white"/>
<path d="M43.5285 85.7014L37.1485 80.5914C37.1485 80.5914 49.2785 50.0814 59.8685 44.7214C59.9985 44.8514 43.1485 68.0814 43.5285 85.7014Z" fill="white"/>
<path d="M53.6085 93.4815L47.4785 89.1415C47.4785 89.1415 52.1985 59.9115 62.7985 50.3315C63.0585 50.5815 50.4185 76.7515 53.6085 93.4815Z" fill="white"/>
<path d="M67.4885 24.1717C67.4885 24.1717 76.8485 17.6617 85.9185 24.1717" stroke="white" stroke-width="2" stroke-miterlimit="10"/>
<path d="M86.6785 29.4016L76.0785 34.5116H98.4185L101.838 41.6516" stroke="white" stroke-width="2" stroke-miterlimit="10"/>
<path d="M78.6985 27.4816C80.1455 27.4816 81.3185 26.5683 81.3185 25.4416C81.3185 24.315 80.1455 23.4016 78.6985 23.4016C77.2515 23.4016 76.0785 24.315 76.0785 25.4416C76.0785 26.5683 77.2515 27.4816 78.6985 27.4816Z" fill="white"/>
<path d="M16.3985 104.342H28.0585L11.7985 133.102H0.0584717L16.3985 104.342Z" fill="white"/>
<path d="M61.1685 104.342H72.8285L56.5685 133.102H44.8285L61.1685 104.342Z" fill="white"/>
<path d="M30.1885 104.342H41.9285L34.6085 128.002L54.2285 106.212V104.342H58.8285V106.042H56.9085L33.5885 133.102H23.2085L30.1885 104.342Z" fill="white"/>
<path d="M61.7685 133.102H73.2585L87.9285 105.872C87.9285 105.872 95.5585 109.782 81.7685 119.492C81.9385 120.172 81.7685 131.582 81.7685 131.582L80.4885 131.542V133.112H92.6185V131.962H90.7485V118.732C90.7485 118.732 108.238 108.772 95.7285 104.352C95.9885 104.392 77.0885 104.352 77.0885 104.352L61.7685 133.122V133.102Z" fill="white"/>
<path d="M98.6584 133.102H111.678V129.782L116.528 120.982L132.608 105.662H134.908V103.742H129.288L115.888 117.022L116.778 105.782L118.188 105.912V103.102H104.908L105.288 120.852L98.6584 133.102Z" fill="white"/>
</g>
<defs>
<clipPath id="clip0_132_570">
<rect width="134.85" height="132.52" fill="white" transform="translate(0.0584717 0.581543)"/>
</clipPath>
</defs>
</svg>
