<svg width="314" height="51" viewBox="0 0 314 51" fill="none" xmlns="http://www.w3.org/2000/svg">
<path d="M25 0.5L30.6129 17.7746H48.7764L34.0818 28.4508L39.6946 45.7254L25 35.0491L10.3054 45.7254L15.9182 28.4508L1.22359 17.7746H19.3871L25 0.5Z" fill="#BA7802"/>
<path d="M91 0.5L96.6129 17.7746H114.776L100.082 28.4508L105.695 45.7254L91 35.0491L76.3054 45.7254L81.9182 28.4508L67.2236 17.7746H85.3871L91 0.5Z" fill="#BA7802"/>
<path d="M157 0.5L162.613 17.7746H180.776L166.082 28.4508L171.695 45.7254L157 35.0491L142.305 45.7254L147.918 28.4508L133.224 17.7746H151.387L157 0.5Z" fill="#BA7802"/>
<path d="M223 0.5L228.613 17.7746H246.776L232.082 28.4508L237.695 45.7254L223 35.0491L208.305 45.7254L213.918 28.4508L199.224 17.7746H217.387L223 0.5Z" fill="#BA7802"/>
<path d="M289 0.5L294.613 17.7746H312.776L298.082 28.4508L303.695 45.7254L289 35.0491L274.305 45.7254L279.918 28.4508L265.224 17.7746H283.387L289 0.5Z" fill="#BA7802"/>
</svg>
