<svg width="277" height="70" viewBox="0 0 277 70" fill="none" xmlns="http://www.w3.org/2000/svg">
<g clip-path="url(#clip0_6_29)">
<path d="M80.439 4.80982L80.8607 13.569H79.8065C79.7174 12.4257 79.4389 11.3051 78.9824 10.2532C78.4777 9.25006 77.683 8.42196 76.7015 7.87648C75.5038 7.31868 74.1878 7.06207 72.8682 7.12898H67.674V35.8023C67.4989 37.2819 67.7586 38.7805 68.4215 40.1148C68.8497 40.5242 69.3597 40.8384 69.918 41.0366C70.4763 41.2348 71.0702 41.3126 71.6607 41.2648H72.964V42.319H57.0557V41.284H58.3782C59.0158 41.3453 59.6586 41.2459 60.2479 40.9947C60.8372 40.7436 61.3541 40.3489 61.7515 39.8465C62.295 38.5788 62.5061 37.1935 62.3649 35.8215V7.16732H57.8607C56.6026 7.10393 55.3422 7.2332 54.1232 7.55065C53.1087 7.93747 52.2476 8.64386 51.6699 9.56315C50.9187 10.7686 50.4959 12.1496 50.4432 13.569H49.4082L49.849 4.77148L80.439 4.80982Z" fill="white"/>
<path d="M86.4766 17.4027V27.791H92.2266C93.2787 27.9068 94.3391 27.6636 95.2358 27.101C95.6172 26.6788 95.9116 26.1856 96.1024 25.6495C96.2931 25.1135 96.3764 24.5451 96.3474 23.9769H97.0757V33.1002H96.3474C96.2628 32.3226 96.0892 31.5573 95.8299 30.8194C95.5771 30.3433 95.1723 29.9654 94.6799 29.746C93.9042 29.4496 93.075 29.319 92.2458 29.3627H86.4958V38.026C86.4576 38.7325 86.5091 39.4409 86.6491 40.1344C86.7587 40.3917 86.9555 40.6021 87.2049 40.7285C87.6654 40.9196 88.1647 40.9985 88.6616 40.9585H93.1274C94.2097 41.004 95.2932 40.9008 96.3474 40.6519C97.0759 40.4035 97.7335 39.9827 98.2641 39.4252C99.2688 38.3554 100.097 37.1327 100.717 35.8027H101.503L99.2416 42.3194H79.0208V41.591H79.9408C80.5565 41.5972 81.1636 41.4454 81.7041 41.1502C82.0949 40.9659 82.3978 40.6355 82.5474 40.2302C82.7363 39.3945 82.8073 38.5364 82.7583 37.681V20.6227C82.8865 19.5677 82.7137 18.4979 82.2599 17.5369C81.9478 17.2551 81.5804 17.0413 81.1811 16.9093C80.7818 16.7773 80.3594 16.73 79.9408 16.7702H79.0208V16.061H99.2416L99.5291 21.811H98.7624C98.6245 20.8178 98.3268 19.8534 97.8808 18.9552C97.5207 18.423 97.0054 18.0147 96.4049 17.786C95.5261 17.5043 94.6057 17.3746 93.6833 17.4027H86.4766Z" fill="white"/>
<path d="M101.676 16.061H108.786L124.829 35.726V20.6035C124.956 19.5632 124.769 18.5085 124.292 17.5752C123.996 17.286 123.64 17.0643 123.25 16.9253C122.859 16.7864 122.443 16.7335 122.031 16.7702H121.111V16.061H130.253V16.7702H129.314C128.867 16.729 128.418 16.8005 128.006 16.9779C127.594 17.1554 127.233 17.4332 126.956 17.786C126.582 18.675 126.437 19.6439 126.535 20.6035V42.7219H125.845L108.595 21.6385V37.8152C108.473 38.8472 108.653 39.8922 109.112 40.8244C109.411 41.1105 109.767 41.3302 110.157 41.4689C110.547 41.6076 110.962 41.6623 111.374 41.6294H112.313V42.3194H103.113V41.591H104.033C104.481 41.6377 104.934 41.5709 105.349 41.3967C105.764 41.2225 106.129 40.9466 106.41 40.5944C106.78 39.7041 106.925 38.7364 106.831 37.7769V19.4919C106.322 18.8488 105.744 18.2639 105.106 17.7477C104.568 17.3944 103.98 17.1231 103.362 16.9427C102.811 16.8072 102.243 16.7491 101.676 16.7702V16.061Z" fill="white"/>
<path d="M131.422 16.061H138.552L154.595 35.726V20.6035C154.728 19.5651 154.548 18.5105 154.077 17.5752C153.779 17.288 153.423 17.0677 153.033 16.9289C152.643 16.7901 152.228 16.736 151.816 16.7702H150.896V16.061H160.019V16.7702H159.08C158.633 16.7273 158.183 16.7979 157.771 16.9755C157.359 17.153 156.998 17.4319 156.722 17.786C156.348 18.675 156.203 19.6439 156.301 20.6035V42.7219H155.592L138.342 21.6385V37.8152C138.196 38.8174 138.335 39.8404 138.744 40.7669C139.043 41.053 139.399 41.2727 139.789 41.4114C140.179 41.5501 140.593 41.6048 141.006 41.5719H141.945V42.3194H132.879V41.591H133.799C134.247 41.6377 134.7 41.5709 135.115 41.3967C135.53 41.2225 135.895 40.9466 136.176 40.5944C136.546 39.7041 136.691 38.7364 136.597 37.7769V19.4919C136.083 18.8534 135.505 18.269 134.872 17.7477C134.334 17.3944 133.746 17.1231 133.128 16.9427C132.571 16.8061 131.996 16.7481 131.422 16.7702V16.061Z" fill="white"/>
<path d="M169.277 17.4027V27.791H175.027C176.079 27.9098 177.14 27.6665 178.036 27.101C178.417 26.6788 178.712 26.1856 178.902 25.6495C179.093 25.1135 179.176 24.5451 179.147 23.9769H179.876V33.1002H179.147C179.071 32.3212 178.897 31.5549 178.63 30.8194C178.379 30.349 177.982 29.9725 177.499 29.746C176.716 29.4518 175.881 29.3213 175.046 29.3627H169.296V38.026C169.249 38.7335 169.307 39.4439 169.468 40.1344C169.564 40.3942 169.756 40.6071 170.005 40.7285C170.472 40.9212 170.977 41.0001 171.481 40.9585H175.927C177.01 41.004 178.093 40.9008 179.147 40.6519C179.876 40.4035 180.533 39.9827 181.064 39.4252C182.069 38.3554 182.897 37.1327 183.517 35.8027H184.303L182.042 42.3194H161.744V41.591H162.664C163.28 41.5972 163.887 41.4454 164.427 41.1502C164.818 40.9659 165.121 40.6355 165.271 40.2302C165.497 39.3935 165.6 38.5283 165.577 37.6619V20.6227C165.703 19.5658 165.523 18.495 165.06 17.5369C164.748 17.2551 164.38 17.0413 163.981 16.9093C163.582 16.7773 163.159 16.73 162.741 16.7702H161.744V16.061H182.042L182.329 21.811H181.582C181.43 20.8183 181.126 19.855 180.681 18.9552C180.321 18.423 179.805 18.0147 179.205 17.786C178.326 17.5043 177.406 17.3746 176.483 17.4027H169.277Z" fill="white"/>
<path d="M202.607 15.4857V24.5707H201.994C201.844 23.1158 201.415 21.7035 200.729 20.4116C200.132 19.3498 199.24 18.4841 198.161 17.9199C197.109 17.3224 195.921 17.0056 194.711 16.9999C193.483 16.9643 192.288 17.4036 191.376 18.2266C190.976 18.5772 190.654 19.007 190.43 19.4887C190.205 19.9705 190.084 20.4936 190.072 21.0249C190.062 21.8002 190.327 22.554 190.82 23.1524C192.513 24.7377 194.455 26.0329 196.57 26.9857C198.312 27.8774 199.99 28.8893 201.591 30.0141C202.459 30.6797 203.166 31.531 203.661 32.5057C204.136 33.4312 204.386 34.4557 204.39 35.4957C204.401 36.4906 204.192 37.4756 203.778 38.3803C203.364 39.2849 202.754 40.0867 201.994 40.7282C200.378 42.2079 198.241 42.9867 196.052 42.8941C195.333 42.8977 194.615 42.84 193.906 42.7216C193.061 42.5375 192.229 42.3007 191.414 42.0124C190.64 41.7224 189.836 41.5168 189.018 41.3991C188.878 41.3923 188.737 41.4143 188.605 41.4638C188.473 41.5132 188.353 41.589 188.251 41.6866C188.004 42.0417 187.864 42.4611 187.849 42.8941H187.121V33.9049H187.849C188.048 35.3777 188.502 36.8045 189.191 38.1216C189.848 39.109 190.762 39.8978 191.836 40.4024C193.019 41.0183 194.335 41.3342 195.669 41.3224C197.061 41.4017 198.431 40.9496 199.502 40.0574C199.941 39.6845 200.294 39.2204 200.536 38.6974C200.777 38.1745 200.902 37.6052 200.901 37.0291C200.884 36.3556 200.7 35.6969 200.365 35.1124C199.964 34.3591 199.401 33.7044 198.716 33.1957C197.385 32.333 196.009 31.5397 194.596 30.8191C192.93 29.9289 191.329 28.9234 189.804 27.8099C188.93 27.1252 188.194 26.2794 187.638 25.3182C187.153 24.4036 186.903 23.3827 186.91 22.3474C186.906 21.4289 187.097 20.5202 187.471 19.681C187.844 18.8418 188.391 18.0914 189.076 17.4791C189.82 16.8006 190.69 16.2753 191.637 15.9333C192.584 15.5913 193.59 15.4392 194.596 15.4857C196.128 15.5158 197.636 15.8685 199.023 16.5207C199.501 16.7726 200.02 16.935 200.556 16.9999C200.707 17.0064 200.858 16.9826 201 16.93C201.141 16.8773 201.271 16.7968 201.381 16.6932C201.698 16.3587 201.911 15.9392 201.994 15.4857H202.607Z" fill="white"/>
<path d="M223.672 15.486V24.571H222.962C222.818 23.1174 222.395 21.7053 221.717 20.4118C221.138 19.369 220.282 18.5066 219.244 17.9202C218.192 17.3227 217.004 17.0059 215.794 17.0002C214.566 16.9645 213.371 17.4039 212.459 18.2268C212.06 18.5775 211.738 19.0073 211.513 19.489C211.289 19.9707 211.167 20.4939 211.156 21.0252C211.153 21.83 211.446 22.6077 211.98 23.2102C213.673 24.7955 215.615 26.0907 217.73 27.0435C219.472 27.9352 221.15 28.9471 222.752 30.0718C223.619 30.7374 224.326 31.5888 224.822 32.5635C225.296 33.489 225.546 34.5134 225.55 35.5535C225.543 36.5448 225.318 37.5224 224.891 38.4168C224.464 39.3113 223.844 40.1005 223.077 40.7285C221.461 42.2082 219.325 42.987 217.136 42.8943C216.417 42.898 215.698 42.8403 214.989 42.7218C214.145 42.5352 213.313 42.2984 212.497 42.0127C211.723 41.7227 210.92 41.5171 210.102 41.3993C209.961 41.3926 209.82 41.4146 209.689 41.4641C209.557 41.5135 209.436 41.5893 209.335 41.6868C209.095 42.0461 208.956 42.4631 208.932 42.8943H208.204V33.9052H208.932C209.131 35.3779 209.585 36.8048 210.274 38.1218C210.926 39.1066 211.834 39.8951 212.9 40.4027C214.083 41.0178 215.399 41.3337 216.733 41.3227C218.125 41.404 219.496 40.9516 220.567 40.0577C221.006 39.6847 221.358 39.2207 221.6 38.6977C221.841 38.1747 221.966 37.6054 221.966 37.0293C221.948 36.3558 221.764 35.6972 221.429 35.1127C221.029 34.3594 220.465 33.7047 219.781 33.196C218.449 32.3332 217.074 31.54 215.66 30.8193C213.997 29.9247 212.396 28.9194 210.868 27.8102C209.994 27.1304 209.265 26.2834 208.722 25.3185C208.222 24.4086 207.964 23.3856 207.974 22.3477C207.97 21.4292 208.162 20.5204 208.535 19.6813C208.908 18.8421 209.455 18.0916 210.14 17.4793C211.649 16.1199 213.63 15.4045 215.66 15.486C217.192 15.5161 218.701 15.8688 220.087 16.521C220.566 16.7706 221.085 16.9328 221.621 17.0002C221.772 17.0067 221.922 16.9829 222.064 16.9302C222.205 16.8776 222.335 16.7971 222.445 16.6935C222.727 16.3476 222.907 15.9291 222.962 15.486H223.672Z" fill="white"/>
<path d="M234.577 17.4027V27.791H240.327C241.38 27.9068 242.44 27.6636 243.337 27.101C243.718 26.6788 244.012 26.1856 244.203 25.6495C244.394 25.1135 244.477 24.5451 244.448 23.9769H245.177V33.1002H244.448C244.371 32.2635 244.191 31.4395 243.912 30.6469C243.659 30.1708 243.254 29.7929 242.762 29.5735C241.986 29.2771 241.157 29.1465 240.327 29.1902H234.577V37.8535C234.539 38.56 234.591 39.2684 234.731 39.9619C234.84 40.2192 235.037 40.4296 235.287 40.556C235.747 40.7471 236.246 40.826 236.743 40.786H241.209C242.291 40.8315 243.375 40.7283 244.429 40.4794C245.158 40.231 245.815 39.8102 246.346 39.2527C247.35 38.1829 248.179 36.9602 248.799 35.6302H249.585L247.247 42.3194H227.026V41.591H227.946C228.562 41.5972 229.169 41.4454 229.709 41.1502C230.095 40.9595 230.396 40.6314 230.552 40.2302C230.751 39.3959 230.828 38.5374 230.782 37.681V20.6227C230.908 19.5658 230.728 18.495 230.265 17.5369C229.953 17.2551 229.585 17.0413 229.186 16.9093C228.787 16.7773 228.364 16.73 227.946 16.7702H227.026V16.061H247.247L247.534 21.811H246.767C246.63 20.8178 246.332 19.8534 245.886 18.9552C245.526 18.423 245.01 18.0147 244.41 17.786C243.531 17.5043 242.611 17.3746 241.688 17.4027H234.577Z" fill="white"/>
<path d="M257.961 17.4027V27.791H263.711C264.763 27.9098 265.825 27.6665 266.72 27.101C267.101 26.6788 267.396 26.1856 267.587 25.6495C267.777 25.1135 267.861 24.5451 267.832 23.9769H268.56V33.1002H267.832C267.764 32.2619 267.584 31.4367 267.295 30.6469C267.044 30.1765 266.647 29.8 266.164 29.5735C265.382 29.2772 264.546 29.1466 263.711 29.1902H257.961V37.8535C257.912 38.56 257.964 39.2699 258.114 39.9619C258.21 40.2217 258.402 40.4346 258.651 40.556C259.118 40.7487 259.623 40.8276 260.127 40.786H264.573C265.656 40.8315 266.739 40.7283 267.793 40.4794C268.522 40.231 269.179 39.8102 269.71 39.2527C270.715 38.1793 271.549 36.9575 272.182 35.6302H272.949L270.707 42.3194H250.486V41.591H251.406C252.022 41.5998 252.63 41.4479 253.169 41.1502C253.56 40.9659 253.863 40.6355 254.012 40.2302C254.211 39.3959 254.288 38.5374 254.242 37.681V20.6227C254.374 19.5676 254.201 18.497 253.744 17.5369C253.432 17.2551 253.065 17.0413 252.665 16.9093C252.266 16.7773 251.844 16.73 251.425 16.7702H250.505V16.061H270.726L271.013 21.811H270.266C270.124 20.8162 269.82 19.8514 269.365 18.9552C269.012 18.4244 268.503 18.0159 267.908 17.786C267.047 17.5131 266.147 17.3836 265.244 17.4027H257.961Z" fill="white"/>
<path d="M69.4757 45.6926V53.3593H68.8815C68.7565 52.1398 68.3986 50.9556 67.8273 49.871C67.3044 48.9873 66.5485 48.2646 65.6423 47.7818C64.7529 47.281 63.7497 47.017 62.729 47.0151C61.6909 46.9799 60.68 47.3512 59.9115 48.0501C59.5669 48.3436 59.2893 48.7077 59.0976 49.1177C58.9058 49.5278 58.8043 49.9742 58.7998 50.4268C58.7827 51.1294 59.0288 51.813 59.4898 52.3435C60.9217 53.6919 62.5584 54.8047 64.339 55.6401C65.8162 56.3875 67.2382 57.2394 68.594 58.1893C69.3185 58.7603 69.913 59.479 70.3382 60.2976C70.7458 61.0852 70.9563 61.96 70.9515 62.8468C70.9607 63.6667 70.7945 64.4792 70.4639 65.2296C70.1333 65.98 69.6461 66.651 69.0348 67.1976C67.6737 68.4772 65.8615 69.1662 63.994 69.1143C63.3838 69.1141 62.7748 69.0628 62.1732 68.961C61.4594 68.8041 60.7555 68.6057 60.0648 68.3668C59.4151 68.1208 58.7402 67.9473 58.0523 67.8493C57.932 67.8393 57.8109 67.8565 57.6981 67.8996C57.5853 67.9427 57.4836 68.0107 57.4007 68.0985C57.1772 68.3913 57.05 68.7462 57.0365 69.1143H56.3273V61.4476H56.9215C57.0968 62.6994 57.4858 63.9117 58.0715 65.0318C58.629 65.8498 59.3882 66.5099 60.2757 66.9485C61.2821 67.4706 62.4003 67.7402 63.534 67.7343C64.714 67.7997 65.8739 67.4085 66.7732 66.6418C67.144 66.3282 67.4423 65.9379 67.6474 65.4978C67.8526 65.0577 67.9598 64.5782 67.9615 64.0926C67.9487 63.5097 67.7976 62.9382 67.5207 62.4251C67.1671 61.8101 66.683 61.2802 66.1023 60.8726C65.6807 60.5468 64.5115 59.8568 62.614 58.7835C61.2042 58.0254 59.8467 57.1738 58.5507 56.2343C57.8169 55.6595 57.199 54.9505 56.7298 54.1451C56.3123 53.3681 56.1012 52.497 56.1165 51.6151C56.107 50.8379 56.2647 50.0677 56.5789 49.3567C56.893 48.6458 57.3563 48.0106 57.9373 47.4943C58.564 46.9105 59.2996 46.456 60.1021 46.1567C60.9045 45.8574 61.7581 45.7193 62.614 45.7501C63.9406 45.7624 65.2487 46.0633 66.4473 46.6318C66.8553 46.8402 67.2962 46.9764 67.7507 47.0343C67.8766 47.0423 68.0029 47.0243 68.1216 46.9815C68.2403 46.9386 68.3489 46.8718 68.4407 46.7851C68.6754 46.4845 68.8274 46.1277 68.8815 45.7501L69.4757 45.6926Z" fill="white"/>
<path d="M84.7515 52.8801L84.924 56.5218H84.4831C84.4529 56.0508 84.3359 55.5895 84.1381 55.161C83.9356 54.7397 83.6075 54.3915 83.199 54.1643C82.7136 53.939 82.1811 53.8338 81.6465 53.8576H79.4423V65.741C79.3788 66.3582 79.4848 66.9811 79.749 67.5426C79.9248 67.7145 80.1358 67.8463 80.3674 67.929C80.599 68.0117 80.8457 68.0434 81.0906 68.0218H81.6465V68.4435H75.034V68.0218H75.5898C75.8542 68.0492 76.1213 68.009 76.366 67.9051C76.6107 67.8012 76.825 67.6369 76.989 67.4276C77.2103 66.8947 77.2959 66.3151 77.2381 65.741V53.8193H75.3215C74.7994 53.7996 74.2771 53.8512 73.769 53.9726C73.3438 54.1377 72.9816 54.4329 72.734 54.816C72.4334 55.3224 72.2622 55.8951 72.2356 56.4835H71.8523L72.044 52.8418L84.7515 52.8801Z" fill="white"/>
<path d="M94.6608 63.2302H88.5849L87.5308 65.6835C87.3255 66.1116 87.1959 66.572 87.1474 67.0443C87.1536 67.1669 87.1859 67.2867 87.2421 67.3957C87.2983 67.5048 87.3771 67.6006 87.4733 67.6768C87.9305 67.9083 88.4366 68.0266 88.9491 68.0218V68.4435H84.0424V68.0218C84.4936 67.9795 84.9277 67.8282 85.3074 67.581C85.868 66.9072 86.3088 66.1422 86.6108 65.3193L92.0733 52.4968H92.4758L97.8999 65.4535C98.1607 66.2013 98.5643 66.8913 99.0883 67.4852C99.5158 67.818 100.041 68 100.583 68.0027V68.4243H94.4308V68.0027C94.872 68.0134 95.3084 67.9076 95.6958 67.696C95.7953 67.6186 95.8763 67.5199 95.9327 67.4072C95.9891 67.2944 96.0194 67.1704 96.0216 67.0443C95.9614 66.4914 95.8057 65.9532 95.5616 65.4535L94.6608 63.2302ZM94.3349 62.3868L91.6899 56.1002L88.9108 62.3868H94.3349Z" fill="white"/>
<path d="M112.735 52.8801L112.907 56.5218H112.467C112.436 56.0508 112.319 55.5895 112.122 55.161C111.919 54.7397 111.591 54.3915 111.182 54.1643C110.694 53.9242 110.155 53.8058 109.611 53.8193H107.426V65.7026C107.352 66.3202 107.458 66.946 107.732 67.5043C107.908 67.6761 108.119 67.8079 108.351 67.8907C108.582 67.9734 108.829 68.005 109.074 67.9835H109.611V68.4051H103.017V67.9835H103.573C103.837 68.0091 104.104 67.9681 104.348 67.8643C104.593 67.7605 104.807 67.5972 104.972 67.3893C105.194 66.8563 105.279 66.2768 105.222 65.7026V53.8193H103.305C102.789 53.799 102.273 53.8506 101.772 53.9726C101.346 54.1377 100.984 54.4329 100.737 54.816C100.427 55.3186 100.256 55.8936 100.238 56.4835H99.8357L100.027 52.8418L112.735 52.8801Z" fill="white"/>
<path d="M118.216 53.8194V59.9719H121.628C122.251 60.0456 122.88 59.9035 123.411 59.5694C123.651 59.3149 123.835 59.0127 123.95 58.6825C124.066 58.3523 124.111 58.0014 124.081 57.6527H124.503V63.0769H124.081C124.037 62.5793 123.927 62.0896 123.756 61.6202C123.608 61.3415 123.372 61.1192 123.085 60.9877C122.621 60.8098 122.124 60.7315 121.628 60.7577H118.216V65.8944C118.194 66.3121 118.226 66.731 118.312 67.1402C118.375 67.2898 118.482 67.4167 118.619 67.5044C118.901 67.6067 119.201 67.6523 119.501 67.6386H122.146C122.79 67.6683 123.436 67.6037 124.062 67.4469C124.502 67.3062 124.897 67.0555 125.212 66.7186C125.8 66.0776 126.29 65.3544 126.669 64.5719H127.129L125.787 68.4052H113.827V67.9836H114.383C114.745 67.9812 115.101 67.889 115.418 67.7152C115.534 67.6606 115.638 67.5833 115.724 67.4878C115.809 67.3924 115.875 67.2807 115.916 67.1594C116.036 66.6707 116.082 66.1667 116.051 65.6644V55.5827C116.117 54.9778 116.011 54.3664 115.744 53.8194C115.563 53.6505 115.348 53.5221 115.113 53.4428C114.878 53.3635 114.63 53.3351 114.383 53.3594H113.827V52.9377H125.826L125.998 56.3494H125.538C125.466 55.7586 125.284 55.1866 125.002 54.6627C124.791 54.346 124.491 54.0991 124.139 53.9536C123.615 53.8116 123.071 53.7534 122.529 53.7811L118.216 53.8194Z" fill="white"/>
<path d="M148.807 46.8043V46.1526H156.684V46.7468H155.841C155.452 46.7502 155.071 46.8545 154.735 47.0493C154.399 47.2442 154.12 47.523 153.924 47.8584C153.622 48.6054 153.504 49.4138 153.579 50.2159V59.2434C153.642 60.9936 153.416 62.7423 152.908 64.4184C152.406 65.7652 151.469 66.9054 150.244 67.6576C148.648 68.6052 146.807 69.0587 144.954 68.9609C143.033 69.0779 141.118 68.6458 139.434 67.7151C138.194 66.8982 137.252 65.701 136.751 64.3034C136.314 62.5173 136.14 60.6772 136.233 58.8409V50.1393C136.335 49.2086 136.14 48.2696 135.677 47.4559C135.426 47.2129 135.123 47.0285 134.792 46.9158C134.461 46.8032 134.108 46.7651 133.761 46.8043H132.994V46.1526H142.577V46.7468H141.715C141.347 46.7217 140.979 46.7894 140.644 46.9434C140.309 47.0974 140.018 47.3329 139.798 47.6284C139.436 48.3922 139.29 49.2408 139.377 50.0818V59.7801C139.393 60.7748 139.477 61.7673 139.626 62.7509C139.715 63.6733 140.01 64.5639 140.488 65.3576C140.943 66.0116 141.556 66.5392 142.271 66.8909C143.173 67.3234 144.165 67.5337 145.165 67.5043C146.503 67.5123 147.821 67.1827 148.998 66.5459C150.04 66.0296 150.873 65.17 151.356 64.1118C151.869 62.49 152.084 60.7885 151.988 59.0901V50.0818C152.095 49.1865 151.935 48.2798 151.528 47.4751C151.283 47.2194 150.983 47.0215 150.652 46.8955C150.32 46.7696 149.965 46.7188 149.612 46.7468L148.807 46.8043Z" fill="white"/>
<path d="M155.227 52.8801H159.463L169.046 64.5526V55.5826C169.12 54.9651 169.014 54.3393 168.74 53.781C168.564 53.6091 168.353 53.4773 168.121 53.3946C167.89 53.3119 167.643 53.2802 167.398 53.3018H166.842V52.8801H172.266V53.3018H171.711C171.446 53.2762 171.18 53.3172 170.935 53.4209C170.691 53.5247 170.477 53.688 170.311 53.896C170.09 54.4289 170.005 55.0084 170.062 55.5826V68.6926H169.66L159.386 56.1576V65.741C159.313 66.3585 159.419 66.9843 159.693 67.5426C159.869 67.7145 160.08 67.8463 160.312 67.929C160.543 68.0117 160.79 68.0433 161.035 68.0218H161.591V68.4435H156.09V68.0218H156.626C156.894 68.0526 157.165 68.0141 157.413 67.91C157.662 67.806 157.879 67.6399 158.045 67.4276C158.266 66.8947 158.352 66.3151 158.294 65.741V54.931C157.994 54.544 157.654 54.1905 157.278 53.8768C156.959 53.6664 156.61 53.5048 156.243 53.3976C155.91 53.3243 155.569 53.2921 155.227 53.3018V52.8801Z" fill="white"/>
<path d="M179.742 68.0219V68.4436H173.072V68.0219H173.627C173.888 68.0455 174.15 68.0074 174.393 67.9109C174.636 67.8143 174.853 67.662 175.027 67.4661C175.271 66.9057 175.363 66.291 175.295 65.6836V55.7361C175.325 55.2085 175.28 54.6792 175.161 54.1644C175.06 53.95 174.892 53.7748 174.682 53.6661C174.357 53.4922 173.995 53.4001 173.627 53.3977H173.072V52.9761H179.742V53.3977H179.186C178.926 53.3786 178.665 53.4187 178.422 53.515C178.18 53.6112 177.963 53.7612 177.787 53.9536C177.533 54.5114 177.434 55.1269 177.499 55.7361V65.7794C177.472 66.308 177.523 66.8378 177.652 67.3511C177.759 67.561 177.926 67.7345 178.132 67.8494C178.457 68.0212 178.818 68.1131 179.186 68.1177L179.742 68.0219Z" fill="white"/>
<path d="M197.049 52.8801V53.3018C196.584 53.3544 196.145 53.5409 195.784 53.8385C195.304 54.3203 194.937 54.9031 194.711 55.5443L189.286 68.8076H188.865L183.019 55.391C182.861 54.951 182.648 54.5325 182.386 54.1451C182.203 53.9085 181.967 53.7181 181.696 53.5893C181.338 53.4351 180.955 53.3443 180.566 53.321V52.8993H186.91V53.321C186.421 53.3291 185.941 53.454 185.511 53.6851C185.409 53.7684 185.329 53.8741 185.276 53.9939C185.222 54.1137 185.198 54.2442 185.204 54.3751C185.268 54.9955 185.443 55.5993 185.721 56.1576L189.689 65.3193L193.35 56.311C193.64 55.7073 193.828 55.0596 193.906 54.3943C193.898 54.2672 193.864 54.1432 193.804 54.0307C193.745 53.9182 193.662 53.8199 193.561 53.7426C193.231 53.4987 192.839 53.3526 192.43 53.321H192.238V52.8993L197.049 52.8801Z" fill="white"/>
<path d="M202.282 53.8192V59.9717H205.693C206.316 60.0393 206.943 59.8977 207.476 59.5692C207.711 59.3115 207.892 59.0088 208.007 58.6794C208.122 58.35 208.17 58.0007 208.147 57.6525H208.568V63.0767H208.147C208.093 62.5805 207.983 62.0919 207.821 61.62C207.67 61.3362 207.427 61.1129 207.131 60.9875C206.674 60.8071 206.183 60.7286 205.693 60.7575H202.282V65.8942C202.231 66.3079 202.231 66.7263 202.282 67.14C202.352 67.2909 202.465 67.4176 202.607 67.5042C202.889 67.6107 203.189 67.6564 203.489 67.6383H206.115C206.76 67.6692 207.406 67.6046 208.032 67.4467C208.471 67.306 208.867 67.0553 209.182 66.7183C209.775 66.0824 210.267 65.3582 210.638 64.5717H211.098L209.757 68.405H197.758V67.9833H198.314C198.682 67.9787 199.043 67.8868 199.368 67.715C199.599 67.5997 199.777 67.401 199.867 67.1592C199.976 66.6688 200.022 66.1662 200.001 65.6642V55.5825C200.087 54.9274 199.981 54.2612 199.694 53.6658C199.51 53.4954 199.292 53.3662 199.054 53.2869C198.816 53.2076 198.564 53.18 198.314 53.2058H197.758V52.7842H209.757L209.929 56.1958H209.661C209.57 55.6093 209.389 55.0403 209.124 54.5092C208.913 54.1924 208.613 53.9456 208.262 53.8C207.731 53.657 207.181 53.5988 206.632 53.6275L202.282 53.8192Z" fill="white"/>
<path d="M226.911 68.4435H222.752L217.481 61.1601H216.542H215.852V65.6835C215.765 66.3406 215.879 67.0085 216.177 67.6001C216.346 67.7724 216.549 67.9062 216.774 67.9922C216.999 68.0782 217.24 68.1145 217.481 68.0985H218.094V68.5201H211.577V68.0985H212.172C212.442 68.1253 212.714 68.079 212.96 67.9643C213.207 67.8497 213.417 67.6709 213.571 67.4468C213.797 66.9152 213.883 66.3344 213.82 65.7601V55.736C213.906 55.0789 213.793 54.4109 213.494 53.8193C213.322 53.6466 213.115 53.5127 212.887 53.4267C212.659 53.3408 212.415 53.3047 212.172 53.321H211.577V52.8993H217.327C218.559 52.8493 219.791 52.9719 220.988 53.2635C221.745 53.5037 222.412 53.9642 222.905 54.586C223.457 55.2305 223.751 56.0568 223.729 56.9051C223.746 57.8251 223.41 58.7166 222.79 59.3968C222.007 60.1882 220.994 60.7116 219.896 60.8918L223.077 65.3193C223.597 66.0999 224.245 66.7869 224.994 67.351C225.625 67.7236 226.333 67.9466 227.064 68.0026L226.911 68.4435ZM215.852 60.451H216.503C217.699 60.5342 218.886 60.1951 219.857 59.4926C220.219 59.1953 220.508 58.8202 220.704 58.3954C220.899 57.9706 220.997 57.507 220.988 57.0393C220.996 56.611 220.917 56.1855 220.756 55.7887C220.594 55.3919 220.354 55.032 220.049 54.7309C219.745 54.4298 219.382 54.1937 218.983 54.037C218.584 53.8803 218.158 53.8063 217.73 53.8193C217.123 53.8397 216.52 53.9167 215.928 54.0493L215.852 60.451Z" fill="white"/>
<path d="M237.031 52.516V57.9018H236.609C236.528 57.0359 236.274 56.1951 235.862 55.4293C235.497 54.8165 234.974 54.3133 234.347 53.9726C233.718 53.6281 233.014 53.4438 232.297 53.436C231.589 53.4294 230.905 53.6894 230.38 54.1643C230.143 54.3732 229.952 54.6296 229.82 54.9168C229.688 55.204 229.617 55.5157 229.613 55.8318C229.604 56.3109 229.775 56.7759 230.092 57.1351C231.1 58.0642 232.244 58.8335 233.485 59.416C234.521 59.9369 235.515 60.5394 236.456 61.2176C236.971 61.6107 237.39 62.1153 237.682 62.6935C237.972 63.2432 238.123 63.8549 238.123 64.476C238.124 65.053 238.001 65.6235 237.763 66.1491C237.525 66.6747 237.177 67.1434 236.743 67.5235C235.78 68.3948 234.514 68.8555 233.217 68.8076C232.792 68.81 232.369 68.7715 231.952 68.6926C231.45 68.5863 230.957 68.4454 230.476 68.271C230.016 68.1046 229.541 67.9827 229.057 67.9068C228.888 67.9077 228.725 67.9688 228.597 68.0793C228.449 68.2945 228.362 68.5465 228.348 68.8076H227.927V63.4026H228.348C228.479 64.2776 228.751 65.1255 229.153 65.9135C229.534 66.5076 230.071 66.9851 230.706 67.2935C231.408 67.6658 232.192 67.8568 232.987 67.8493C233.811 67.8971 234.622 67.6222 235.248 67.0826C235.509 66.8648 235.718 66.592 235.86 66.2838C236.003 65.9756 236.075 65.6397 236.072 65.3001C236.068 64.8911 235.963 64.4893 235.766 64.131C235.521 63.7069 235.188 63.3407 234.788 63.0576C233.996 62.5236 233.178 62.031 232.335 61.5818C231.35 61.0532 230.402 60.4577 229.498 59.7993C228.969 59.4051 228.531 58.9018 228.214 58.3235C227.92 57.7824 227.769 57.1757 227.773 56.5601C227.771 56.0173 227.885 55.4803 228.106 54.9847C228.328 54.4891 228.652 54.0461 229.057 53.6851C229.495 53.2741 230.011 52.9541 230.573 52.7435C231.136 52.533 231.735 52.4361 232.335 52.4585C233.243 52.4798 234.137 52.6887 234.961 53.0718C235.248 53.2216 235.559 53.319 235.881 53.3593C236.056 53.3631 236.227 53.3017 236.36 53.1868C236.532 52.9797 236.639 52.7262 236.666 52.4585L237.031 52.516Z" fill="white"/>
<path d="M245.541 68.0219V68.4436H238.871V68.0219H239.407C239.67 68.0426 239.935 68.0033 240.18 67.907C240.426 67.8107 240.647 67.66 240.826 67.4661C241.06 66.9029 241.152 66.2908 241.094 65.6836V55.7361C241.121 55.2075 241.07 54.6777 240.941 54.1644C240.842 53.9551 240.681 53.7812 240.481 53.6661C240.149 53.4921 239.781 53.4 239.407 53.3977H238.871V52.9761H245.541V53.3977H244.966C244.708 53.3757 244.449 53.4146 244.209 53.5111C243.97 53.6077 243.756 53.7592 243.586 53.9536C243.332 54.5114 243.233 55.1269 243.298 55.7361V65.7794C243.271 66.308 243.322 66.8378 243.451 67.3511C243.552 67.5655 243.72 67.7407 243.931 67.8494C244.248 68.0232 244.604 68.1154 244.966 68.1177L245.541 68.0219Z" fill="white"/>
<path d="M259.494 52.8801L259.667 56.5218H259.245C259.194 56.0543 259.078 55.5963 258.9 55.161C258.69 54.7383 258.356 54.3904 257.942 54.1643C257.457 53.9353 256.924 53.8299 256.389 53.8576H254.204V65.741C254.13 66.3585 254.237 66.9843 254.511 67.5426C254.686 67.7155 254.897 67.848 255.128 67.9308C255.36 68.0136 255.607 68.0447 255.852 68.0218H256.389V68.4435H249.796V68.0218H250.332C250.6 68.0489 250.869 68.0088 251.117 67.905C251.365 67.8012 251.583 67.6371 251.751 67.4276C251.959 66.8912 252.044 66.3148 252 65.741V53.8193H250.083C249.561 53.7996 249.039 53.8512 248.531 53.9726C248.111 54.1389 247.755 54.4342 247.515 54.816C247.197 55.3147 247.024 55.8921 247.017 56.4835H246.576L246.748 52.8418L259.494 52.8801Z" fill="white"/>
<path d="M271.32 52.8801H276.744V53.3018H276.437C276.136 53.3371 275.843 53.4281 275.575 53.5701C275.181 53.7526 274.823 54.006 274.521 54.3176C274.092 54.8208 273.708 55.3594 273.371 55.9276L269.537 61.8501V65.6835C269.467 66.303 269.58 66.9295 269.863 67.4851C270.045 67.66 270.262 67.7934 270.501 67.8761C270.739 67.9589 270.992 67.9889 271.243 67.9643H271.741V68.386H265.244V67.9643H265.8C266.064 67.9899 266.331 67.9489 266.575 67.8451C266.819 67.7414 267.034 67.5781 267.199 67.3701C267.42 66.8372 267.506 66.2576 267.448 65.6835V62.061L263.174 55.5443C262.865 55.045 262.526 54.5649 262.158 54.1068C261.82 53.8184 261.438 53.5855 261.027 53.4168C260.822 53.3296 260.599 53.2903 260.376 53.3018V52.8801H267.026V53.3018H266.681C266.333 53.2926 265.988 53.3788 265.685 53.551C265.542 53.6209 265.423 53.7305 265.342 53.8665C265.26 54.0025 265.22 54.1591 265.225 54.3176C265.35 54.8616 265.592 55.3719 265.934 55.8126L269.077 60.8151L272.144 56.0235C272.505 55.5529 272.742 54.9994 272.834 54.4135C272.836 54.2088 272.776 54.0084 272.661 53.8385C272.542 53.6668 272.376 53.5336 272.182 53.4551C271.889 53.3412 271.576 53.289 271.262 53.3018L271.32 52.8801Z" fill="white"/>
<path d="M44.0607 65.4534V8.47092C44.0607 7.45426 43.6568 6.47923 42.9379 5.76035C42.219 5.04146 41.244 4.63759 40.2274 4.63759H22.9774L22.7857 1.66675C22.9058 1.5953 23.0057 1.49448 23.0761 1.37378C23.1465 1.25308 23.1851 1.11646 23.1882 0.976755C23.1882 0.868523 23.1669 0.761352 23.1254 0.66136C23.084 0.561367 23.0233 0.470512 22.9468 0.393981C22.8703 0.31745 22.7794 0.256742 22.6794 0.215324C22.5794 0.173906 22.4722 0.152588 22.364 0.152588C22.1454 0.152588 21.9358 0.239419 21.7812 0.393981C21.6267 0.548542 21.5399 0.758172 21.5399 0.976755C21.5391 1.115 21.574 1.25111 21.6411 1.37196C21.7083 1.49282 21.8054 1.59434 21.9232 1.66675L21.8274 4.69509H4.57735C3.56069 4.69509 2.58567 5.09896 1.86678 5.81785C1.14789 6.53673 0.744019 7.51176 0.744019 8.52842L0.744019 65.4534C0.744019 66.4701 1.14789 67.4451 1.86678 68.164C2.58567 68.8829 3.56069 69.2868 4.57735 69.2868H40.2849C41.3015 69.2868 42.2765 68.8829 42.9954 68.164C43.7143 67.4451 44.1182 66.4701 44.1182 65.4534H44.0607ZM39.4607 5.50009C40.4773 5.50009 41.4524 5.90396 42.1713 6.62285C42.8902 7.34173 43.294 8.31676 43.294 9.33342V38.0834L41.684 35.3234L39.7674 34.7293L28.2674 31.5859L36.279 33.1768C34.2474 30.0526 32.2157 25.2034 29.379 22.9418C27.8568 21.5379 26.004 20.5423 23.9932 20.0476C24.3065 19.6698 24.4822 19.1967 24.4915 18.7059V14.9876C24.7982 14.8343 24.9899 14.6426 24.9899 14.4509C24.9899 14.2593 24.5874 13.8951 23.9932 13.7418C23.8782 13.7418 23.6865 13.6076 23.6674 13.4351L23.169 5.53842L39.4607 5.50009ZM28.9382 68.4434V49.9859C28.9105 49.339 29.0472 48.6956 29.3354 48.1158C29.6237 47.5359 30.0541 47.0386 30.5865 46.6701C30.5865 46.6701 31.6407 46.4593 31.679 49.9284C31.7174 53.3976 31.679 66.2968 31.679 68.3859L28.9382 68.4434ZM22.0765 7.43592L22.4024 13.5693C22.2124 13.533 22.0173 13.533 21.8274 13.5693L22.0765 7.43592ZM22.4024 14.8151V19.7409C22.0158 19.6463 21.6757 19.4166 21.4437 19.0932C21.2118 18.7698 21.1031 18.3741 21.1374 17.9776V15.2751C21.1374 14.8726 22.4024 14.8151 22.4024 14.8151ZM21.5207 35.4959V38.5818H16.5757V35.4959C16.5731 35.4465 16.5806 35.3971 16.5977 35.3507C16.6148 35.3042 16.6412 35.2618 16.6753 35.2259C16.7094 35.1901 16.7504 35.1615 16.7959 35.142C16.8414 35.1225 16.8904 35.1125 16.9399 35.1126H21.1565C21.2548 35.1175 21.3475 35.1601 21.4153 35.2314C21.4831 35.3028 21.5208 35.3975 21.5207 35.4959ZM16.5757 41.6868V41.0543H21.5207V41.6868H16.5757ZM21.5207 42.3959V43.0476H16.5757V42.3193L21.5207 42.3959ZM16.5757 39.8276V39.1951H21.5207V39.8276H16.5757ZM15.4449 33.8668V33.1384H22.4024V33.8668H15.4449ZM13.5282 43.4501V42.7601L15.7132 41.4568V42.1468L13.5282 43.4501ZM15.7132 42.7601V43.4884L13.5282 44.7726V44.0634L15.7132 42.7601ZM13.5282 41.5718V40.8434L15.7132 39.5209V40.4026L13.5282 41.5718ZM13.5282 40.2301V37.2593C13.5251 37.1668 13.5445 37.0749 13.5845 36.9915C13.6245 36.9081 13.6841 36.8356 13.7582 36.7801L15.4449 35.7259C15.579 35.7259 15.6749 35.7259 15.694 35.8984V38.9651L13.5282 40.2301ZM15.4449 32.6784V32.1609H22.4024V32.7359L15.4449 32.6784ZM21.8274 21.2359V31.4709H17.8024L19.3357 23.9768C19.5274 22.6734 20.4474 21.2359 21.8274 21.2359ZM18.5115 23.7851C18.3007 24.7434 16.9974 31.4518 16.9974 31.4518H14.889L10.1549 34.6526C10.1549 34.6526 15.0424 24.7434 16.4224 23.4209C17.616 22.4162 18.9533 21.5957 20.3899 20.9868C19.8843 21.2793 19.4522 21.6834 19.1267 22.1684C18.8011 22.6534 18.5907 23.2064 18.5115 23.7851ZM14.6782 32.5443V33.0426L3.88735 39.9234V39.4634L14.6782 32.5443ZM14.6782 33.5026V34.3076L3.88735 41.1501V40.4026L14.6782 33.5026ZM12.7615 39.2526V42.4534L9.82902 44.2359H9.36902V41.3609L12.7615 39.2526ZM6.16818 47.6093V46.9576L8.08485 45.7884V46.4401L6.16818 47.6093ZM8.08485 47.0343V47.7243L6.16818 48.8934V48.2034L8.08485 47.0343ZM6.16818 45.8268V45.1368L8.08485 43.9484V44.6384L6.16818 45.8268ZM6.16818 44.5426V41.6676C6.18176 41.5704 6.21843 41.478 6.27512 41.3979C6.33182 41.3179 6.40688 41.2526 6.49402 41.2076L7.96985 40.2876C8.10402 40.2876 8.19985 40.2876 8.21902 40.4793V43.3926L6.16818 44.5426ZM6.16818 49.4684L8.08485 48.3184V68.4434H6.16818V49.4684ZM9.36902 45.9226L12.6465 44.0059V45.4434C12.4789 45.4854 12.3177 45.5499 12.1674 45.6351C11.4519 46.2102 10.8765 46.9404 10.4847 47.7705C10.0929 48.6006 9.89492 49.5089 9.90569 50.4268V68.5201H9.36902V45.9226ZM10.3274 68.4434V51.0209C10.217 50.0955 10.354 49.1574 10.7244 48.3022C11.0947 47.4469 11.6852 46.7052 12.4357 46.1526C12.5058 46.1461 12.5764 46.1461 12.6465 46.1526V47.1876C12.0018 48.3591 11.6903 49.6849 11.7457 51.0209V68.4434H10.3274ZM13.4515 45.4434L15.694 44.2359V68.4434H13.509L13.4515 45.4434ZM16.5182 68.4434V43.7184H21.4632V68.4434H16.5182ZM29.494 44.2359C28.2174 44.2906 26.9876 44.7317 25.9674 45.5009C26.3291 44.8182 26.8886 44.2608 27.5727 43.9017C28.2567 43.5426 29.0333 43.3985 29.8007 43.4884C30.8767 43.5977 31.882 44.075 32.6468 44.8398C33.4116 45.6046 33.8889 46.6099 33.9982 47.6859V68.4434H33.0207V47.9543C32.9953 47.0085 32.6211 46.1056 31.97 45.4191C31.319 44.7327 30.4371 44.3113 29.494 44.2359ZM39.9399 47.6093V68.4051H38.7323V45.9418L39.9399 47.6093ZM39.5565 42.6834V42.1276L40.0165 42.7984V43.3351L39.5565 42.6834ZM40.2274 41.9743L39.2307 40.5176V38.8693L40.2274 40.3259V41.9743ZM40.2274 37.8534V36.4543L41.569 38.4859V39.8659L40.2274 37.8534ZM41.2049 36.1859V35.6876L42.5657 37.7959V38.2943L41.2049 36.1859ZM1.56819 64.6484V9.29509C1.56819 8.27842 1.97205 7.3034 2.69094 6.58451C3.40983 5.86562 4.38486 5.46175 5.40152 5.46175H21.7507L21.2524 13.3584C21.2524 13.5309 21.0415 13.6268 20.9265 13.6651H20.8307C20.2365 13.8184 19.834 14.0868 19.834 14.3743C19.834 14.6618 20.0257 14.7576 20.3324 14.9109V18.7059C20.3308 19.2079 20.5152 19.6926 20.8499 20.0668C19.107 20.7852 17.4642 21.7257 15.9624 22.8651C13.7007 25.2418 10.0974 33.9434 8.29569 35.9559L3.00569 39.2718V41.3226L5.17152 44.5426V46.3059L4.88402 46.4784V47.3601L5.17152 47.7626V68.4242C4.20509 68.3662 3.29641 67.9447 2.628 67.2443C1.95959 66.5439 1.58097 65.6165 1.56819 64.6484ZM40.994 68.1176V46.6509L41.5115 46.3059V45.4243L40.994 44.5426V41.0734L42.2974 40.1534V39.0609L43.294 38.6393V64.6484C43.2855 65.3868 43.0639 66.1069 42.6559 66.7224C42.2479 67.3378 41.6708 67.8223 40.994 68.1176Z" fill="white"/>
</g>
<defs>
<clipPath id="clip0_6_29">
<rect width="276" height="69" fill="white" transform="translate(0.744019 0.152588)"/>
</clipPath>
</defs>
</svg>
