<svg width="40" height="40" viewBox="0 0 40 40" fill="none" xmlns="http://www.w3.org/2000/svg">
<path d="M33.9009 22.4483C33.0136 18.9974 30.8819 15.9964 27.9156 14.0223H36.7285C37.0454 14.0223 37.3494 13.8964 37.5735 13.6723C37.7976 13.4482 37.9235 13.1442 37.9235 12.8273C37.9235 12.5104 37.7976 12.2065 37.5735 11.9824C37.3494 11.7583 37.0454 11.6324 36.7285 11.6324H24.6295C24.3662 10.6042 23.7682 9.69288 22.9298 9.0421C22.0914 8.39132 21.0603 8.03809 19.999 8.03809C18.9376 8.03809 17.9065 8.39132 17.0681 9.0421C16.2297 9.69288 15.6317 10.6042 15.3685 11.6324H3.26944C2.95251 11.6324 2.64857 11.7583 2.42447 11.9824C2.20037 12.2065 2.07447 12.5104 2.07447 12.8273C2.07447 13.1442 2.20037 13.4482 2.42447 13.6723C2.64857 13.8964 2.95251 14.0223 3.26944 14.0223H12.0823C9.11605 15.9964 6.98432 18.9974 6.09703 22.4483C4.94967 22.6314 3.90827 23.2261 3.16757 24.1212C2.42686 25.0164 2.03757 26.1507 2.07247 27.312C2.10738 28.4734 2.56409 29.5823 3.35722 30.4313C4.15034 31.2804 5.22557 31.8115 6.38186 31.9253C7.53814 32.0392 8.6963 31.7279 9.63977 31.0498C10.5833 30.3718 11.2474 29.3732 11.5082 28.241C11.7689 27.1088 11.6082 25.9203 11.0563 24.8979C10.5044 23.8755 9.59899 23.0891 8.50937 22.6858C9.02242 20.9168 9.93452 19.2892 11.1754 17.9281C12.4164 16.567 13.9531 15.5088 15.6672 14.8349C16.0507 15.6618 16.6627 16.3619 17.431 16.8525C18.1993 17.3431 19.0919 17.6037 20.0034 17.6037C20.915 17.6037 21.8076 17.3431 22.5759 16.8525C23.3442 16.3619 23.9562 15.6618 24.3397 14.8349C26.0522 15.5099 27.5871 16.5686 28.8264 17.9296C30.0657 19.2907 30.9764 20.9177 31.4886 22.6858C30.3984 23.0877 29.492 23.873 28.9388 24.8947C28.3856 25.9165 28.2235 27.1047 28.4828 28.2373C28.7421 29.3699 29.4051 30.3692 30.3477 31.0485C31.2904 31.7277 32.4482 32.0404 33.6046 31.928C34.761 31.8155 35.8369 31.2858 36.6311 30.4377C37.4253 29.5896 37.8833 28.4812 37.9196 27.3199C37.956 26.1586 37.568 25.0238 36.8284 24.1278C36.0887 23.2317 35.0481 22.6357 33.9009 22.4513V22.4483ZM9.24427 27.1669C9.24427 27.6396 9.1041 28.1017 8.84149 28.4947C8.57888 28.8877 8.20563 29.194 7.76893 29.3749C7.33222 29.5558 6.85169 29.6031 6.38808 29.5109C5.92448 29.4187 5.49864 29.1911 5.1644 28.8569C4.83016 28.5226 4.60254 28.0968 4.51033 27.6332C4.41811 27.1696 4.46544 26.689 4.64633 26.2523C4.82722 25.8156 5.13354 25.4424 5.52656 25.1798C5.91958 24.9172 6.38165 24.777 6.85434 24.777C7.48819 24.777 8.09608 25.0288 8.54427 25.477C8.99247 25.9252 9.24427 26.5331 9.24427 27.1669ZM19.999 15.2173C19.5263 15.2173 19.0642 15.0771 18.6712 14.8145C18.2782 14.5519 17.9718 14.1786 17.791 13.7419C17.6101 13.3052 17.5627 12.8247 17.655 12.3611C17.7472 11.8975 17.9748 11.4716 18.309 11.1374C18.6433 10.8031 19.0691 10.5755 19.5327 10.4833C19.9963 10.3911 20.4769 10.4384 20.9136 10.6193C21.3503 10.8002 21.7235 11.1065 21.9861 11.4995C22.2487 11.8926 22.3889 12.3546 22.3889 12.8273C22.3889 13.4612 22.1371 14.0691 21.6889 14.5173C21.2407 14.9655 20.6328 15.2173 19.999 15.2173ZM33.1436 29.5568C32.6709 29.5568 32.2088 29.4167 31.8158 29.1541C31.4228 28.8915 31.1165 28.5182 30.9356 28.0815C30.7547 27.6448 30.7074 27.1643 30.7996 26.7007C30.8918 26.2371 31.1194 25.8112 31.4537 25.477C31.7879 25.1427 32.2137 24.9151 32.6773 24.8229C33.1409 24.7307 33.6215 24.778 34.0582 24.9589C34.4949 25.1398 34.8681 25.4461 35.1307 25.8391C35.3934 26.2322 35.5335 26.6942 35.5335 27.1669C35.5335 27.8008 35.2817 28.4087 34.8335 28.8569C34.3853 29.3051 33.7774 29.5568 33.1436 29.5568Z" fill="#F5D06F"/>
</svg>
