<svg width="39" height="40" viewBox="0 0 39 40" fill="none" xmlns="http://www.w3.org/2000/svg">
<path d="M33.839 30.7522H32.644V6.85293C32.644 6.536 32.5181 6.23206 32.294 6.00796C32.0699 5.78386 31.766 5.65796 31.4491 5.65796H23.0843C22.7674 5.65796 22.4634 5.78386 22.2393 6.00796C22.0152 6.23206 21.8893 6.536 21.8893 6.85293V12.8278H14.7195C14.4026 12.8278 14.0987 12.9537 13.8746 13.1778C13.6505 13.4019 13.5246 13.7058 13.5246 14.0227V19.9976H7.54974C7.23282 19.9976 6.92887 20.1234 6.70477 20.3475C6.48067 20.5716 6.35478 20.8756 6.35478 21.1925V30.7522H5.15981C4.84289 30.7522 4.53894 30.8781 4.31484 31.1022C4.09074 31.3263 3.96484 31.6303 3.96484 31.9472C3.96484 32.2641 4.09074 32.5681 4.31484 32.7922C4.53894 33.0163 4.84289 33.1422 5.15981 33.1422H33.839C34.1559 33.1422 34.4599 33.0163 34.684 32.7922C34.9081 32.5681 35.034 32.2641 35.034 31.9472C35.034 31.6303 34.9081 31.3263 34.684 31.1022C34.4599 30.8781 34.1559 30.7522 33.839 30.7522ZM24.2793 8.04789H30.2541V30.7522H24.2793V8.04789ZM15.9145 15.2177H21.8893V30.7522H15.9145V15.2177ZM8.74471 22.3875H13.5246V30.7522H8.74471V22.3875Z" fill="#F5D06F"/>
</svg>
