<svg width="39" height="40" viewBox="0 0 39 40" fill="none" xmlns="http://www.w3.org/2000/svg">
<path d="M10.7034 14.9407L4.63596 19.9969L10.7034 25.0531C10.8274 25.1524 10.9304 25.2754 11.0064 25.415C11.0823 25.5546 11.1296 25.7079 11.1455 25.866C11.1615 26.0241 11.1458 26.1838 11.0992 26.3357C11.0527 26.4876 10.9764 26.6288 10.8747 26.7509C10.773 26.8729 10.6479 26.9735 10.5069 27.0467C10.3658 27.1198 10.2116 27.1641 10.0532 27.177C9.89485 27.1898 9.73551 27.171 9.58451 27.1215C9.43351 27.072 9.2939 26.9929 9.17384 26.8888L2.00405 20.914C1.86951 20.8019 1.76128 20.6615 1.687 20.5029C1.61272 20.3443 1.57422 20.1713 1.57422 19.9961C1.57422 19.821 1.61272 19.648 1.687 19.4893C1.76128 19.3307 1.86951 19.1904 2.00405 19.0782L9.17384 13.1034C9.41748 12.9006 9.73171 12.8028 10.0474 12.8317C10.3631 12.8605 10.6544 13.0136 10.8573 13.2573C11.0601 13.5009 11.1578 13.8151 11.129 14.1308C11.1001 14.4465 10.947 14.7378 10.7034 14.9407ZM36.9927 19.0782L29.8229 13.1034C29.7022 13.003 29.563 12.9273 29.4131 12.8807C29.2632 12.834 29.1056 12.8174 28.9493 12.8317C28.793 12.846 28.641 12.8909 28.502 12.9639C28.3631 13.0369 28.2399 13.1366 28.1394 13.2573C27.9366 13.5009 27.8389 13.8151 27.8677 14.1308C27.8966 14.4465 28.0497 14.7378 28.2933 14.9407L34.3607 19.9969L28.2933 25.0531C28.1693 25.1524 28.0663 25.2754 27.9903 25.415C27.9144 25.5546 27.8671 25.7079 27.8512 25.866C27.8352 26.0241 27.851 26.1838 27.8975 26.3357C27.944 26.4876 28.0203 26.6288 28.122 26.7509C28.2237 26.8729 28.3488 26.9735 28.4898 27.0467C28.6309 27.1198 28.7851 27.1641 28.9435 27.177C29.1018 27.1898 29.2612 27.171 29.4122 27.1215C29.5632 27.072 29.7028 26.9929 29.8229 26.8888L36.9927 20.914C37.1272 20.8019 37.2354 20.6615 37.3097 20.5029C37.384 20.3443 37.4225 20.1713 37.4225 19.9961C37.4225 19.821 37.384 19.648 37.3097 19.4893C37.2354 19.3307 37.1272 19.1904 36.9927 19.0782ZM24.686 5.72896C24.5385 5.67541 24.3819 5.65143 24.2251 5.65841C24.0683 5.66538 23.9145 5.70317 23.7723 5.7696C23.6301 5.83604 23.5024 5.92984 23.3965 6.04563C23.2906 6.16142 23.2085 6.29694 23.1549 6.44445L13.5952 32.7337C13.5414 32.8813 13.5173 33.0381 13.5241 33.195C13.531 33.3519 13.5687 33.506 13.6352 33.6483C13.7016 33.7907 13.7955 33.9185 13.9114 34.0245C14.0273 34.1306 14.163 34.2127 14.3107 34.2662C14.4416 34.3128 14.5795 34.3365 14.7185 34.3365C14.9639 34.3365 15.2033 34.2609 15.4043 34.1201C15.6053 33.9792 15.758 33.7799 15.8418 33.5493L25.4015 7.26001C25.455 7.11251 25.479 6.95589 25.472 6.79912C25.4651 6.64234 25.4273 6.48847 25.3608 6.3463C25.2944 6.20413 25.2006 6.07644 25.0848 5.97051C24.969 5.86459 24.8335 5.78251 24.686 5.72896Z" fill="#F5D06F"/>
</svg>
