<svg width="39" height="40" viewBox="0 0 39 40" fill="none" xmlns="http://www.w3.org/2000/svg">
<path d="M33.8406 11.6329H31.4507V10.4379C31.4507 9.48715 31.073 8.57532 30.4007 7.90302C29.7284 7.23072 28.8165 6.85303 27.8658 6.85303H6.35638C5.40561 6.85303 4.49378 7.23072 3.82148 7.90302C3.14918 8.57532 2.77148 9.48715 2.77148 10.4379V24.7775C2.77148 25.7283 3.14918 26.6401 3.82148 27.3124C4.49378 27.9847 5.40561 28.3624 6.35638 28.3624H23.0859V29.5574C23.0859 30.5082 23.4636 31.42 24.1359 32.0923C24.8082 32.7646 25.72 33.1423 26.6708 33.1423H33.8406C34.7914 33.1423 35.7032 32.7646 36.3755 32.0923C37.0478 31.42 37.4255 30.5082 37.4255 29.5574V15.2178C37.4255 14.267 37.0478 13.3552 36.3755 12.6829C35.7032 12.0106 34.7914 11.6329 33.8406 11.6329ZM6.35638 25.9725C6.03946 25.9725 5.73551 25.8466 5.51141 25.6225C5.28731 25.3984 5.16142 25.0944 5.16142 24.7775V10.4379C5.16142 10.121 5.28731 9.81706 5.51141 9.59296C5.73551 9.36886 6.03946 9.24296 6.35638 9.24296H27.8658C28.1827 9.24296 28.4866 9.36886 28.7107 9.59296C28.9348 9.81706 29.0607 10.121 29.0607 10.4379V11.6329H26.6708C25.72 11.6329 24.8082 12.0106 24.1359 12.6829C23.4636 13.3552 23.0859 14.267 23.0859 15.2178V25.9725H6.35638ZM35.0356 29.5574C35.0356 29.8743 34.9097 30.1783 34.6856 30.4024C34.4615 30.6265 34.1575 30.7524 33.8406 30.7524H26.6708C26.3539 30.7524 26.0499 30.6265 25.8258 30.4024C25.6017 30.1783 25.4758 29.8743 25.4758 29.5574V15.2178C25.4758 14.9009 25.6017 14.5969 25.8258 14.3728C26.0499 14.1487 26.3539 14.0228 26.6708 14.0228H33.8406C34.1575 14.0228 34.4615 14.1487 34.6856 14.3728C34.9097 14.5969 35.0356 14.9009 35.0356 15.2178V29.5574ZM20.696 31.9473C20.696 32.2642 20.5701 32.5682 20.346 32.7923C20.1219 33.0164 19.8179 33.1423 19.501 33.1423H13.5262C13.2093 33.1423 12.9053 33.0164 12.6812 32.7923C12.4571 32.5682 12.3312 32.2642 12.3312 31.9473C12.3312 31.6304 12.4571 31.3264 12.6812 31.1023C12.9053 30.8782 13.2093 30.7524 13.5262 30.7524H19.501C19.8179 30.7524 20.1219 30.8782 20.346 31.1023C20.5701 31.3264 20.696 31.6304 20.696 31.9473ZM32.6456 17.6077C32.6456 17.9246 32.5197 18.2286 32.2956 18.4527C32.0715 18.6768 31.7676 18.8027 31.4507 18.8027H29.0607C28.7438 18.8027 28.4399 18.6768 28.2158 18.4527C27.9917 18.2286 27.8658 17.9246 27.8658 17.6077C27.8658 17.2908 27.9917 16.9869 28.2158 16.7628C28.4399 16.5387 28.7438 16.4128 29.0607 16.4128H31.4507C31.7676 16.4128 32.0715 16.5387 32.2956 16.7628C32.5197 16.9869 32.6456 17.2908 32.6456 17.6077Z" fill="#F5D06F"/>
</svg>
