<svg width="39" height="40" viewBox="0 0 39 40" fill="none" xmlns="http://www.w3.org/2000/svg">
<path d="M26.6706 3.26758H12.331C11.3802 3.26758 10.4684 3.64527 9.79609 4.31757C9.12379 4.98987 8.74609 5.9017 8.74609 6.85248V33.1417C8.74609 34.0925 9.12379 35.0043 9.79609 35.6766C10.4684 36.3489 11.3802 36.7266 12.331 36.7266H26.6706C27.6214 36.7266 28.5332 36.3489 29.2055 35.6766C29.8778 35.0043 30.2555 34.0925 30.2555 33.1417V6.85248C30.2555 5.9017 29.8778 4.98987 29.2055 4.31757C28.5332 3.64527 27.6214 3.26758 26.6706 3.26758ZM27.8656 33.1417C27.8656 33.4587 27.7397 33.7626 27.5156 33.9867C27.2915 34.2108 26.9875 34.3367 26.6706 34.3367H12.331C12.0141 34.3367 11.7101 34.2108 11.486 33.9867C11.2619 33.7626 11.136 33.4587 11.136 33.1417V6.85248C11.136 6.53555 11.2619 6.23161 11.486 6.00751C11.7101 5.78341 12.0141 5.65751 12.331 5.65751H26.6706C26.9875 5.65751 27.2915 5.78341 27.5156 6.00751C27.7397 6.23161 27.8656 6.53555 27.8656 6.85248V33.1417ZM25.4756 9.24241C25.4756 9.55933 25.3497 9.86328 25.1256 10.0874C24.9015 10.3115 24.5976 10.4374 24.2807 10.4374H14.7209C14.404 10.4374 14.1001 10.3115 13.876 10.0874C13.6519 9.86328 13.526 9.55933 13.526 9.24241C13.526 8.92548 13.6519 8.62154 13.876 8.39744C14.1001 8.17334 14.404 8.04744 14.7209 8.04744H24.2807C24.5976 8.04744 24.9015 8.17334 25.1256 8.39744C25.3497 8.62154 25.4756 8.92548 25.4756 9.24241Z" fill="#F5D06F"/>
</svg>
