<svg width="39" height="38" viewBox="0 0 39 38" fill="none" xmlns="http://www.w3.org/2000/svg">
<path d="M34.9377 32.0599H27.7177C30.8636 30.0779 33.188 27.0266 34.2633 23.4674C35.3386 19.9081 35.0926 16.0803 33.5704 12.688C32.0483 9.29565 29.3524 6.56707 25.9787 5.00414C22.605 3.44121 18.7804 3.14905 15.2084 4.18141C11.6364 5.21377 8.55738 7.50121 6.53762 10.6229C4.51787 13.7447 3.69326 17.4907 4.2155 21.172C4.73773 24.8533 6.57168 28.2222 9.37999 30.6591C12.1883 33.0959 15.7821 34.4367 19.5002 34.4349H34.9377C35.2527 34.4349 35.5547 34.3098 35.7774 34.0871C36.0001 33.8644 36.1252 33.5623 36.1252 33.2474C36.1252 32.9324 36.0001 32.6304 35.7774 32.4077C35.5547 32.185 35.2527 32.0599 34.9377 32.0599ZM6.43772 18.9974C6.43772 16.4139 7.20382 13.8884 8.63914 11.7402C10.0745 9.59212 12.1146 7.91787 14.5014 6.9292C16.8883 5.94053 19.5147 5.68184 22.0486 6.18586C24.5825 6.68988 26.91 7.93397 28.7368 9.76079C30.5636 11.5876 31.8077 13.9151 32.3117 16.449C32.8157 18.9829 32.5571 21.6093 31.5684 23.9962C30.5797 26.383 28.9055 28.4231 26.7574 29.8584C24.6092 31.2938 22.0837 32.0599 19.5002 32.0599C16.037 32.0559 12.7168 30.6785 10.268 28.2296C7.81913 25.7808 6.44165 22.4606 6.43772 18.9974ZM19.5002 15.4349C20.2048 15.4349 20.8936 15.2259 21.4794 14.8345C22.0653 14.443 22.5219 13.8866 22.7915 13.2357C23.0612 12.5847 23.1317 11.8684 22.9943 11.1774C22.8568 10.4863 22.5175 9.85153 22.0193 9.3533C21.5211 8.85508 20.8863 8.51578 20.1952 8.37832C19.5042 8.24086 18.7879 8.31141 18.1369 8.58105C17.4859 8.85069 16.9296 9.3073 16.5381 9.89315C16.1467 10.479 15.9377 11.1678 15.9377 11.8724C15.9377 12.8172 16.313 13.7233 16.9811 14.3914C17.6492 15.0595 18.5554 15.4349 19.5002 15.4349ZM19.5002 10.6849C19.7351 10.6849 19.9647 10.7545 20.16 10.885C20.3552 11.0155 20.5074 11.2009 20.5973 11.4179C20.6872 11.6349 20.7107 11.8737 20.6649 12.104C20.6191 12.3344 20.506 12.546 20.3399 12.7121C20.1738 12.8781 19.9622 12.9912 19.7319 13.0371C19.5015 13.0829 19.2628 13.0594 19.0458 12.9695C18.8288 12.8796 18.6433 12.7274 18.5128 12.5321C18.3824 12.3368 18.3127 12.1072 18.3127 11.8724C18.3127 11.5574 18.4378 11.2554 18.6605 11.0327C18.8832 10.81 19.1853 10.6849 19.5002 10.6849ZM23.0627 26.1224C23.0627 25.4178 22.8538 24.729 22.4623 24.1432C22.0709 23.5573 21.5145 23.1007 20.8635 22.8311C20.2126 22.5614 19.4963 22.4909 18.8052 22.6283C18.1142 22.7658 17.4794 23.1051 16.9811 23.6033C16.4829 24.1015 16.1436 24.7363 16.0062 25.4274C15.8687 26.1184 15.9393 26.8347 16.2089 27.4857C16.4785 28.1366 16.9351 28.693 17.521 29.0845C18.1068 29.4759 18.7956 29.6849 19.5002 29.6849C20.445 29.6849 21.3512 29.3095 22.0193 28.6414C22.6874 27.9733 23.0627 27.0672 23.0627 26.1224ZM18.3127 26.1224C18.3127 25.8875 18.3824 25.6579 18.5128 25.4626C18.6433 25.2673 18.8288 25.1151 19.0458 25.0253C19.2628 24.9354 19.5015 24.9119 19.7319 24.9577C19.9622 25.0035 20.1738 25.1166 20.3399 25.2827C20.506 25.4488 20.6191 25.6603 20.6649 25.8907C20.7107 26.1211 20.6872 26.3598 20.5973 26.5768C20.5074 26.7938 20.3552 26.9793 20.16 27.1097C19.9647 27.2402 19.7351 27.3099 19.5002 27.3099C19.1853 27.3099 18.8832 27.1848 18.6605 26.9621C18.4378 26.7394 18.3127 26.4373 18.3127 26.1224ZM26.6252 22.5599C27.3298 22.5599 28.0186 22.3509 28.6044 21.9595C29.1903 21.568 29.6469 21.0116 29.9165 20.3607C30.1862 19.7097 30.2567 18.9934 30.1193 18.3024C29.9818 17.6113 29.6425 16.9765 29.1443 16.4783C28.6461 15.9801 28.0113 15.6408 27.3202 15.5033C26.6292 15.3659 25.9129 15.4364 25.2619 15.706C24.6109 15.9757 24.0546 16.4323 23.6631 17.0182C23.2717 17.604 23.0627 18.2928 23.0627 18.9974C23.0627 19.9422 23.4381 20.8483 24.1061 21.5164C24.7742 22.1845 25.6804 22.5599 26.6252 22.5599ZM26.6252 17.8099C26.8601 17.8099 27.0897 17.8795 27.285 18.01C27.4802 18.1405 27.6324 18.3259 27.7223 18.5429C27.8122 18.7599 27.8357 18.9987 27.7899 19.229C27.7441 19.4594 27.631 19.671 27.4649 19.8371C27.2988 20.0031 27.0872 20.1162 26.8569 20.1621C26.6265 20.2079 26.3878 20.1844 26.1708 20.0945C25.9538 20.0046 25.7683 19.8524 25.6378 19.6571C25.5074 19.4618 25.4377 19.2322 25.4377 18.9974C25.4377 18.6824 25.5628 18.3804 25.7855 18.1577C26.0082 17.935 26.3103 17.8099 26.6252 17.8099ZM12.3752 15.4349C11.6706 15.4349 10.9818 15.6438 10.396 16.0353C9.81015 16.4267 9.35353 16.9831 9.0839 17.6341C8.81426 18.285 8.74371 19.0013 8.88117 19.6924C9.01863 20.3834 9.35792 21.0182 9.85615 21.5164C10.3544 22.0147 10.9891 22.354 11.6802 22.4914C12.3713 22.6289 13.0876 22.5583 13.7385 22.2887C14.3895 22.0191 14.9459 21.5624 15.3373 20.9766C15.7288 20.3907 15.9377 19.702 15.9377 18.9974C15.9377 18.0525 15.5624 17.1464 14.8943 16.4783C14.2262 15.8102 13.3201 15.4349 12.3752 15.4349ZM12.3752 20.1849C12.1404 20.1849 11.9108 20.1152 11.7155 19.9847C11.5202 19.8543 11.368 19.6688 11.2781 19.4518C11.1882 19.2348 11.1647 18.9961 11.2105 18.7657C11.2564 18.5353 11.3695 18.3238 11.5355 18.1577C11.7016 17.9916 11.9132 17.8785 12.1435 17.8327C12.3739 17.7869 12.6127 17.8104 12.8297 17.9003C13.0466 17.9901 13.2321 18.1423 13.3626 18.3376C13.4931 18.5329 13.5627 18.7625 13.5627 18.9974C13.5627 19.3123 13.4376 19.6144 13.2149 19.8371C12.9922 20.0598 12.6902 20.1849 12.3752 20.1849Z" fill="#F5D06F"/>
</svg>
