<svg width="40" height="40" viewBox="0 0 40 40" fill="none" xmlns="http://www.w3.org/2000/svg">
<path d="M36.1085 32.4267C36.1085 32.7553 35.9779 33.0705 35.7455 33.3029C35.5131 33.5353 35.1979 33.6659 34.8693 33.6659H5.1279C4.79923 33.6659 4.48403 33.5353 4.25163 33.3029C4.01923 33.0705 3.88867 32.7553 3.88867 32.4267V7.64218C3.88867 7.31352 4.01923 6.99831 4.25163 6.76591C4.48403 6.53352 4.79923 6.40295 5.1279 6.40295C5.45656 6.40295 5.77176 6.53352 6.00416 6.76591C6.23656 6.99831 6.36712 7.31352 6.36712 7.64218V24.4786L14.1649 16.6792C14.28 16.564 14.4167 16.4726 14.5671 16.4102C14.7176 16.3479 14.8788 16.3158 15.0417 16.3158C15.2045 16.3158 15.3658 16.3479 15.5162 16.4102C15.6667 16.4726 15.8033 16.564 15.9184 16.6792L19.9986 20.7609L28.1604 12.5991H24.9555C24.6268 12.5991 24.3116 12.4685 24.0792 12.2361C23.8468 12.0037 23.7163 11.6885 23.7163 11.3599C23.7163 11.0312 23.8468 10.716 24.0792 10.4836C24.3116 10.2512 24.6268 10.1206 24.9555 10.1206H31.1516C31.4803 10.1206 31.7955 10.2512 32.0279 10.4836C32.2603 10.716 32.3908 11.0312 32.3908 11.3599V17.556C32.3908 17.8846 32.2603 18.1998 32.0279 18.4322C31.7955 18.6646 31.4803 18.7952 31.1516 18.7952C30.8229 18.7952 30.5077 18.6646 30.2753 18.4322C30.0429 18.1998 29.9124 17.8846 29.9124 17.556V14.351L20.8753 23.3896C20.7602 23.5048 20.6236 23.5962 20.4731 23.6586C20.3227 23.721 20.1614 23.7531 19.9986 23.7531C19.8357 23.7531 19.6745 23.721 19.524 23.6586C19.3736 23.5962 19.2369 23.5048 19.1218 23.3896L15.0417 19.3079L6.36712 27.9825V31.1874H34.8693C35.1979 31.1874 35.5131 31.318 35.7455 31.5504C35.9779 31.7828 36.1085 32.098 36.1085 32.4267Z" fill="#F5D06F"/>
</svg>
