<svg width="41" height="40" viewBox="0 0 41 40" fill="none" xmlns="http://www.w3.org/2000/svg">
<path d="M34.1301 6.40298H21.7378V3.92453C21.7378 3.59586 21.6072 3.28066 21.3748 3.04826C21.1425 2.81586 20.8272 2.6853 20.4986 2.6853C20.1699 2.6853 19.8547 2.81586 19.6223 3.04826C19.3899 3.28066 19.2594 3.59586 19.2594 3.92453V6.40298H6.86712C6.20979 6.40298 5.57939 6.6641 5.11459 7.1289C4.64979 7.5937 4.38867 8.2241 4.38867 8.88142V27.4698C4.38867 28.1271 4.64979 28.7575 5.11459 29.2223C5.57939 29.6871 6.20979 29.9482 6.86712 29.9482H12.9641L9.61665 34.1306C9.41123 34.3874 9.31623 34.7152 9.35255 35.042C9.38886 35.3689 9.55351 35.6679 9.81028 35.8733C10.067 36.0787 10.3949 36.1737 10.7217 36.1374C11.0485 36.1011 11.3475 35.9364 11.5529 35.6796L16.1365 29.9482H24.8607L29.4442 35.6796C29.5459 35.8068 29.6717 35.9126 29.8143 35.9912C29.9569 36.0697 30.1136 36.1194 30.2755 36.1374C30.4373 36.1554 30.6011 36.1413 30.7574 36.096C30.9138 36.0507 31.0598 35.975 31.1869 35.8733C31.314 35.7716 31.4199 35.6458 31.4984 35.5032C31.577 35.3606 31.6266 35.2039 31.6446 35.042C31.6626 34.8802 31.6485 34.7164 31.6032 34.5601C31.5579 34.4037 31.4822 34.2578 31.3805 34.1306L28.0331 29.9482H34.1301C34.7874 29.9482 35.4178 29.6871 35.8826 29.2223C36.3474 28.7575 36.6085 28.1271 36.6085 27.4698V8.88142C36.6085 8.2241 36.3474 7.5937 35.8826 7.1289C35.4178 6.6641 34.7874 6.40298 34.1301 6.40298ZM34.1301 27.4698H6.86712V8.88142H34.1301V27.4698ZM16.7809 18.7952V22.5129C16.7809 22.8416 16.6504 23.1568 16.418 23.3892C16.1856 23.6216 15.8704 23.7521 15.5417 23.7521C15.213 23.7521 14.8978 23.6216 14.6654 23.3892C14.433 23.1568 14.3025 22.8416 14.3025 22.5129V18.7952C14.3025 18.4666 14.433 18.1514 14.6654 17.919C14.8978 17.6866 15.213 17.556 15.5417 17.556C15.8704 17.556 16.1856 17.6866 16.418 17.919C16.6504 18.1514 16.7809 18.4666 16.7809 18.7952ZM21.7378 16.3168V22.5129C21.7378 22.8416 21.6072 23.1568 21.3748 23.3892C21.1425 23.6216 20.8272 23.7521 20.4986 23.7521C20.1699 23.7521 19.8547 23.6216 19.6223 23.3892C19.3899 23.1568 19.2594 22.8416 19.2594 22.5129V16.3168C19.2594 15.9881 19.3899 15.6729 19.6223 15.4405C19.8547 15.2081 20.1699 15.0775 20.4986 15.0775C20.8272 15.0775 21.1425 15.2081 21.3748 15.4405C21.6072 15.6729 21.7378 15.9881 21.7378 16.3168ZM26.6947 13.8383V22.5129C26.6947 22.8416 26.5641 23.1568 26.3317 23.3892C26.0993 23.6216 25.7841 23.7521 25.4555 23.7521C25.1268 23.7521 24.8116 23.6216 24.5792 23.3892C24.3468 23.1568 24.2163 22.8416 24.2163 22.5129V13.8383C24.2163 13.5097 24.3468 13.1945 24.5792 12.9621C24.8116 12.7297 25.1268 12.5991 25.4555 12.5991C25.7841 12.5991 26.0993 12.7297 26.3317 12.9621C26.5641 13.1945 26.6947 13.5097 26.6947 13.8383Z" fill="#F5D06F"/>
</svg>
