<svg width="40" height="40" viewBox="0 0 40 40" fill="none" xmlns="http://www.w3.org/2000/svg">
<path d="M22.3889 25.6258C24.2622 24.4591 25.7045 22.714 26.4976 20.6546C27.2908 18.5951 27.3916 16.3334 26.7849 14.2116C26.1781 12.0897 24.8968 10.2232 23.1348 8.89446C21.3728 7.56568 19.2259 6.84692 17.0191 6.84692C14.8122 6.84692 12.6653 7.56568 10.9033 8.89446C9.14133 10.2232 7.86002 12.0897 7.25328 14.2116C6.64653 16.3334 6.74736 18.5951 7.5405 20.6546C8.33364 22.714 9.77593 24.4591 11.6492 25.6258C8.56468 26.6356 5.78937 28.5221 3.55777 31.1779C3.35375 31.4206 3.25448 31.7343 3.28179 32.0502C3.3091 32.366 3.46076 32.6581 3.70341 32.8621C3.94606 33.0661 4.25981 33.1654 4.57565 33.1381C4.89149 33.1108 5.18354 32.9591 5.38756 32.7164C8.38544 29.1375 12.517 27.1673 17.0116 27.1673C21.5062 27.1673 25.6378 29.1375 28.6446 32.7164C28.8486 32.9591 29.1407 33.1108 29.4565 33.1381C29.7723 33.1654 30.0861 33.0661 30.3287 32.8621C30.5714 32.6581 30.7231 32.366 30.7504 32.0502C30.7777 31.7343 30.6784 31.4206 30.4744 31.1779C28.2413 28.5221 25.466 26.6356 22.3889 25.6258ZM9.24432 17.0101C9.24432 15.4739 9.69986 13.9722 10.5533 12.6948C11.4068 11.4175 12.6199 10.422 14.0392 9.83408C15.4585 9.24619 17.0202 9.09237 18.5269 9.39208C20.0336 9.69178 21.4176 10.4315 22.5039 11.5178C23.5902 12.6041 24.3299 13.9881 24.6296 15.4948C24.9293 17.0015 24.7755 18.5632 24.1876 19.9825C23.5997 21.4018 22.6042 22.6149 21.3269 23.4684C20.0495 24.3218 18.5478 24.7774 17.0116 24.7774C14.9523 24.775 12.9781 23.9559 11.5219 22.4998C10.0658 21.0437 9.24669 19.0694 9.24432 17.0101ZM31.8531 10.6768C32.7047 12.6797 33.1436 14.8337 33.1436 17.0101C33.1436 19.1865 32.7047 21.3406 31.8531 23.3434C31.7611 23.5589 31.6079 23.7425 31.4125 23.8716C31.217 24.0007 30.9879 24.0694 30.7537 24.0694C30.5559 24.0695 30.3611 24.0206 30.1869 23.9269C30.0127 23.8332 29.8645 23.6978 29.7555 23.5327C29.6465 23.3676 29.5802 23.1781 29.5626 22.9811C29.5449 22.784 29.5765 22.5857 29.6543 22.4039C30.3798 20.6982 30.7537 18.8637 30.7537 17.0101C30.7537 15.1565 30.3798 13.322 29.6543 11.6163C29.5297 11.3248 29.5261 10.9956 29.6442 10.7014C29.7622 10.4071 29.9924 10.1718 30.2839 10.0472C30.5755 9.9226 30.9046 9.91894 31.1989 10.037C31.4932 10.1551 31.7285 10.3852 31.8531 10.6768ZM37.9235 17.0101C37.9291 19.8423 37.3552 22.6457 36.2371 25.2479C36.1063 25.5299 35.8708 25.7499 35.5805 25.8611C35.2902 25.9723 34.968 25.966 34.6823 25.8435C34.3966 25.7211 34.1698 25.4921 34.0502 25.2052C33.9305 24.9183 33.9273 24.5961 34.0414 24.3069C35.026 22.0002 35.5336 19.5181 35.5336 17.0101C35.5336 14.5021 35.026 12.02 34.0414 9.71335C33.9741 9.56831 33.9366 9.41125 33.9312 9.25147C33.9257 9.09169 33.9524 8.93244 34.0095 8.78314C34.0667 8.63385 34.1533 8.49755 34.2641 8.38232C34.375 8.26709 34.5078 8.17526 34.6547 8.11228C34.8017 8.04931 34.9598 8.01646 35.1196 8.01568C35.2795 8.0149 35.4379 8.04621 35.5854 8.10776C35.733 8.1693 35.8667 8.25983 35.9786 8.37398C36.0906 8.48813 36.1785 8.62358 36.2371 8.77231C37.3552 11.3745 37.9291 14.1779 37.9235 17.0101Z" fill="#F5D06F"/>
</svg>
