<svg width="41" height="40" viewBox="0 0 41 40" fill="none" xmlns="http://www.w3.org/2000/svg">
<path d="M38.5936 23.5043C38.4634 23.6019 38.3153 23.673 38.1576 23.7134C38 23.7537 37.8359 23.7627 37.6748 23.7397C37.5137 23.7167 37.3587 23.6621 37.2187 23.5792C37.0787 23.4963 36.9563 23.3866 36.8587 23.2564C36.1118 22.2525 35.1396 21.4379 34.0203 20.8782C32.9011 20.3186 31.6661 20.0296 30.4147 20.0345C30.171 20.0344 29.9328 19.9626 29.7297 19.8278C29.5267 19.6931 29.3678 19.5015 29.2731 19.277C29.2088 19.1245 29.1756 18.9607 29.1756 18.7952C29.1756 18.6298 29.2088 18.466 29.2731 18.3135C29.3678 18.089 29.5267 17.8974 29.7297 17.7626C29.9328 17.6279 30.171 17.556 30.4147 17.556C31.1101 17.5559 31.7914 17.3609 32.3814 16.993C32.9714 16.6251 33.4465 16.0991 33.7525 15.4748C34.0586 14.8505 34.1834 14.1528 34.1129 13.4611C34.0423 12.7694 33.7792 12.1113 33.3534 11.5616C32.9276 11.0119 32.3561 10.5927 31.704 10.3515C31.0518 10.1103 30.3451 10.0568 29.6641 10.1972C28.9831 10.3375 28.3551 10.666 27.8514 11.1453C27.3478 11.6247 26.9886 12.2357 26.8148 12.9089C26.7741 13.0666 26.7028 13.2147 26.6048 13.3447C26.5069 13.4748 26.3843 13.5844 26.2441 13.6671C26.1039 13.7498 25.9487 13.804 25.7875 13.8268C25.6263 13.8495 25.4621 13.8403 25.3045 13.7996C25.1468 13.7589 24.9987 13.6876 24.8687 13.5897C24.7386 13.4918 24.6291 13.3692 24.5463 13.2289C24.4636 13.0887 24.4094 12.9335 24.3866 12.7723C24.3639 12.6111 24.3731 12.447 24.4138 12.2893C24.6551 11.3557 25.1109 10.4913 25.745 9.76493C26.3791 9.03852 27.174 8.47013 28.0665 8.10499C28.9589 7.73985 29.9243 7.58804 30.8857 7.66163C31.8471 7.73522 32.7781 8.03219 33.6046 8.5289C34.4311 9.02561 35.1302 9.70836 35.6464 10.5228C36.1626 11.3373 36.4815 12.261 36.5779 13.2204C36.6743 14.1798 36.5454 15.1485 36.2015 16.0493C35.8577 16.9502 35.3083 17.7584 34.5971 18.4095C36.2822 19.1391 37.747 20.2969 38.8461 21.7678C38.9437 21.8983 39.0147 22.0468 39.0548 22.2048C39.095 22.3628 39.1036 22.5271 39.0801 22.6884C39.0567 22.8497 39.0016 23.0048 38.9181 23.1448C38.8347 23.2848 38.7244 23.407 38.5936 23.5043ZM30.2474 33.0463C30.3371 33.1874 30.3973 33.3451 30.4244 33.51C30.4516 33.6749 30.445 33.8436 30.4053 34.0059C30.3655 34.1683 30.2933 34.3209 30.1931 34.4546C30.0928 34.5883 29.9665 34.7004 29.8218 34.784C29.6771 34.8676 29.517 34.9212 29.3511 34.9413C29.1852 34.9615 29.0169 34.9478 28.8564 34.9013C28.6959 34.8547 28.5464 34.7762 28.417 34.6703C28.2877 34.5645 28.1811 34.4336 28.1036 34.2855C27.3229 32.9637 26.2112 31.8682 24.8779 31.1072C23.5447 30.3462 22.0361 29.946 20.5009 29.946C18.9658 29.946 17.4572 30.3462 16.124 31.1072C14.7907 31.8682 13.6789 32.9637 12.8983 34.2855C12.8208 34.4336 12.7142 34.5645 12.5848 34.6703C12.4555 34.7762 12.306 34.8547 12.1455 34.9013C11.985 34.9478 11.8167 34.9615 11.6508 34.9413C11.4849 34.9212 11.3248 34.8676 11.1801 34.784C11.0354 34.7004 10.9091 34.5883 10.8088 34.4546C10.7086 34.3209 10.6364 34.1683 10.5966 34.0059C10.5568 33.8436 10.5503 33.6749 10.5774 33.51C10.6046 33.3451 10.6648 33.1874 10.7544 33.0463C11.9559 30.982 13.7877 29.3576 15.9809 28.4116C14.7468 27.4668 13.8398 26.1589 13.3875 24.672C12.9351 23.185 12.9601 21.5937 13.4589 20.1217C13.9577 18.6497 14.9053 17.3709 16.1684 16.4653C17.4315 15.5597 18.9467 15.0726 20.5009 15.0726C22.0552 15.0726 23.5704 15.5597 24.8335 16.4653C26.0966 17.3709 27.0442 18.6497 27.543 20.1217C28.0418 21.5937 28.0668 23.185 27.6144 24.672C27.162 26.1589 26.2551 27.4668 25.021 28.4116C27.2141 29.3576 29.046 30.982 30.2474 33.0463ZM20.5009 27.4698C21.4813 27.4698 22.4397 27.1791 23.2548 26.6344C24.07 26.0897 24.7053 25.3156 25.0805 24.4098C25.4557 23.5041 25.5539 22.5074 25.3626 21.5459C25.1713 20.5843 24.6992 19.7011 24.006 19.0079C23.3128 18.3146 22.4295 17.8425 21.468 17.6513C20.5064 17.46 19.5098 17.5582 18.604 17.9333C17.6983 18.3085 16.9241 18.9438 16.3794 19.759C15.8348 20.5742 15.544 21.5325 15.544 22.5129C15.544 23.8276 16.0663 25.0884 16.9959 26.018C17.9255 26.9476 19.1863 27.4698 20.5009 27.4698ZM11.8264 18.7952C11.8264 18.4666 11.6958 18.1514 11.4634 17.919C11.231 17.6866 10.9158 17.556 10.5871 17.556C9.89183 17.5559 9.21047 17.3609 8.62045 16.993C8.03043 16.6251 7.55541 16.0991 7.24935 15.4748C6.94328 14.8505 6.81843 14.1528 6.88899 13.4611C6.95955 12.7694 7.22268 12.1113 7.64849 11.5616C8.07431 11.0119 8.64575 10.5927 9.29789 10.3515C9.95003 10.1103 10.6567 10.0568 11.3378 10.1972C12.0188 10.3375 12.6468 10.666 13.1504 11.1453C13.6541 11.6247 14.0133 12.2357 14.1871 12.9089C14.2693 13.2273 14.4745 13.5 14.7578 13.6671C15.041 13.8341 15.379 13.8818 15.6974 13.7996C16.0158 13.7174 16.2885 13.5122 16.4555 13.2289C16.6226 12.9457 16.6703 12.6077 16.5881 12.2893C16.3468 11.3557 15.891 10.4913 15.2569 9.76493C14.6228 9.03852 13.8278 8.47013 12.9354 8.10499C12.043 7.73985 11.0776 7.58804 10.1162 7.66163C9.15474 7.73522 8.22374 8.03219 7.39727 8.5289C6.5708 9.02561 5.87166 9.70836 5.35549 10.5228C4.83931 11.3373 4.52035 12.261 4.42397 13.2204C4.3276 14.1798 4.45648 15.1485 4.80035 16.0493C5.14422 16.9502 5.6936 17.7584 6.40477 18.4095C4.72141 19.1398 3.25824 20.2975 2.16042 21.7678C1.96302 22.0308 1.87815 22.3613 1.92449 22.6868C1.97082 23.0123 2.14456 23.3061 2.40749 23.5035C2.67042 23.7009 3.001 23.7858 3.32651 23.7395C3.65201 23.6931 3.94578 23.5194 4.14318 23.2564C4.8901 22.2525 5.86232 21.4379 6.98156 20.8782C8.1008 20.3186 9.33581 20.0296 10.5871 20.0345C10.9158 20.0345 11.231 19.9039 11.4634 19.6715C11.6958 19.4391 11.8264 19.1239 11.8264 18.7952Z" fill="#F5D06F"/>
</svg>
