<svg width="38" height="38" viewBox="0 0 38 38" fill="none" xmlns="http://www.w3.org/2000/svg">
<path d="M24.4091 15.634L17.2841 10.884C17.1052 10.7646 16.8973 10.6961 16.6825 10.6857C16.4677 10.6753 16.2541 10.7234 16.0645 10.8249C15.8749 10.9264 15.7165 11.0774 15.606 11.262C15.4956 11.4465 15.4374 11.6575 15.4375 11.8726V21.3726C15.4374 21.5876 15.4956 21.7986 15.606 21.9832C15.7165 22.1677 15.8749 22.3187 16.0645 22.4202C16.2541 22.5217 16.4677 22.5698 16.6825 22.5594C16.8973 22.549 17.1052 22.4805 17.2841 22.3612L24.4091 17.6112C24.5719 17.5028 24.7055 17.3558 24.7979 17.1833C24.8903 17.0108 24.9387 16.8182 24.9387 16.6226C24.9387 16.4269 24.8903 16.2343 24.7979 16.0618C24.7055 15.8893 24.5719 15.7424 24.4091 15.634ZM17.8125 19.1534V14.0991L21.6095 16.6226L17.8125 19.1534ZM32.0625 5.93506H5.9375C5.30761 5.93506 4.70352 6.18528 4.25812 6.63068C3.81272 7.07608 3.5625 7.68017 3.5625 8.31006V24.9351C3.5625 25.5649 3.81272 26.169 4.25812 26.6144C4.70352 27.0598 5.30761 27.3101 5.9375 27.3101H32.0625C32.6924 27.3101 33.2965 27.0598 33.7419 26.6144C34.1873 26.169 34.4375 25.5649 34.4375 24.9351V8.31006C34.4375 7.68017 34.1873 7.07608 33.7419 6.63068C33.2965 6.18528 32.6924 5.93506 32.0625 5.93506ZM32.0625 24.9351H5.9375V8.31006H32.0625V24.9351ZM34.4375 30.8726C34.4375 31.1875 34.3124 31.4895 34.0897 31.7122C33.867 31.9349 33.5649 32.0601 33.25 32.0601H4.75C4.43506 32.0601 4.13301 31.9349 3.91031 31.7122C3.68761 31.4895 3.5625 31.1875 3.5625 30.8726C3.5625 30.5576 3.68761 30.2556 3.91031 30.0329C4.13301 29.8102 4.43506 29.6851 4.75 29.6851H33.25C33.5649 29.6851 33.867 29.8102 34.0897 30.0329C34.3124 30.2556 34.4375 30.5576 34.4375 30.8726Z" fill="#F5D06F"/>
</svg>
